ply
format ascii 1.0
comment Created by Blender 2.76 (sub 0) - www.blender.org, source file: 'Cake.blend'
element vertex 338
property float x
property float y
property float z
property float nx
property float ny
property float nz
property uchar red
property uchar green
property uchar blue
element face 156
property list uchar uint vertex_indices
end_header
0.001253 0.287130 0.070000 0.000000 0.000000 -1.000000 214 214 214
0.111037 0.264794 0.070000 0.000000 0.000000 -1.000000 214 214 214
0.000071 0.016269 0.070000 0.000000 0.000000 -1.000000 214 214 214
0.203917 0.202145 0.070000 0.000000 0.000000 -1.000000 214 214 214
0.265753 0.108722 0.070000 0.000000 0.000000 -1.000000 214 214 214
0.287130 -0.001253 0.070000 0.000000 0.000000 -1.000000 214 214 214
0.264794 -0.111037 0.070000 0.000000 0.000000 -1.000000 214 214 214
0.202145 -0.203917 0.070000 0.000000 0.000000 -1.000000 214 214 214
0.114015 -0.262249 0.070000 0.000000 0.000000 -1.000000 214 214 214
-0.116300 -0.261244 0.070000 0.000000 -0.000000 -1.000000 214 214 214
-0.203917 -0.202145 0.070000 0.000000 -0.000000 -1.000000 214 214 214
-0.265753 -0.108722 0.070000 0.000000 -0.000000 -1.000000 214 214 214
-0.287130 0.001253 0.070000 0.000000 -0.000000 -1.000000 214 214 214
-0.264794 0.111038 0.070000 -0.000000 0.000000 -1.000000 214 214 214
-0.202145 0.203917 0.070000 -0.000000 0.000000 -1.000000 214 214 214
-0.108722 0.265753 0.070000 -0.000000 0.000000 -1.000000 214 214 214
-0.111125 0.271628 0.074455 -0.190808 0.981627 0.000000 148 148 148
-0.111125 0.271628 0.290845 -0.190808 0.981627 0.000000 148 148 148
0.001281 0.293477 0.290845 -0.190808 0.981627 0.000000 148 148 148
0.111037 0.264794 0.295300 -0.000000 0.000000 1.000000 214 214 214
0.001253 0.287130 0.295300 -0.000000 0.000000 1.000000 214 214 214
0.000071 0.016269 0.295300 -0.000000 0.000000 1.000000 214 214 214
-0.206614 0.208426 0.290845 -0.551936 0.833887 0.000000 166 166 166
-0.111125 0.271628 0.290845 -0.551936 0.833887 0.000000 166 166 166
-0.111125 0.271628 0.074455 -0.551936 0.833887 0.000000 166 166 166
-0.270647 0.113492 0.290845 -0.829037 0.559194 0.000000 176 176 176
-0.206614 0.208426 0.290845 -0.829037 0.559194 0.000000 176 176 176
-0.206614 0.208426 0.074455 -0.829037 0.559194 0.000000 176 176 176
-0.293477 0.001281 0.290845 -0.979924 0.199369 0.000000 189 189 189
-0.270647 0.113492 0.290845 -0.979924 0.199369 0.000000 189 189 189
-0.270647 0.113492 0.074455 -0.979924 0.199369 0.000000 189 189 189
-0.271628 -0.111126 0.290845 -0.981627 -0.190808 0.000000 201 201 201
-0.293477 0.001281 0.290845 -0.981627 -0.190808 0.000000 201 201 201
-0.293477 0.001281 0.074455 -0.981627 -0.190808 0.000000 201 201 201
-0.208425 -0.206614 0.290845 -0.833886 -0.551936 0.000000 214 214 214
-0.271628 -0.111126 0.290845 -0.833886 -0.551936 0.000000 214 214 214
-0.271628 -0.111126 0.074455 -0.833886 -0.551936 0.000000 214 214 214
0.003839 -0.009384 0.074455 -0.538590 -0.220343 -0.813246 191 191 191
0.000071 0.016269 0.070000 -0.538590 -0.220343 -0.813246 191 191 191
0.114015 -0.262249 0.070000 -0.538590 -0.220343 -0.813246 191 191 191
0.206614 -0.208425 0.290845 0.551937 -0.833886 0.000000 232 232 232
0.116317 -0.268191 0.290845 0.551937 -0.833886 0.000000 232 232 232
0.116317 -0.268191 0.074455 0.551937 -0.833886 0.000000 232 232 232
0.206614 -0.208425 0.290845 0.829038 -0.559193 0.000000 214 214 214
0.206614 -0.208425 0.074455 0.829038 -0.559193 0.000000 214 214 214
0.270648 -0.113492 0.074455 0.829038 -0.559193 0.000000 214 214 214
0.293477 -0.001281 0.290845 0.979925 -0.199368 0.000000 201 201 201
0.270648 -0.113492 0.290845 0.979925 -0.199368 0.000000 201 201 201
0.270648 -0.113492 0.074455 0.979925 -0.199368 0.000000 201 201 201
0.271628 0.111126 0.290845 0.981627 0.190809 -0.000000 189 189 189
0.293477 -0.001281 0.290845 0.981627 0.190809 -0.000000 189 189 189
0.293477 -0.001281 0.074455 0.981627 0.190809 -0.000000 189 189 189
0.208425 0.206614 0.290845 0.833886 0.551937 -0.000000 176 176 176
0.271628 0.111126 0.290845 0.833886 0.551937 -0.000000 176 176 176
0.271628 0.111126 0.074455 0.833886 0.551937 -0.000000 176 176 176
0.113492 0.270648 0.290845 0.559193 0.829038 -0.000000 166 166 166
0.208425 0.206614 0.290845 0.559193 0.829038 -0.000000 166 166 166
0.208425 0.206614 0.074455 0.559193 0.829038 -0.000000 166 166 166
0.203917 0.202145 0.295300 -0.000000 0.000000 1.000000 214 214 214
0.265753 0.108722 0.295300 -0.000000 0.000000 1.000000 214 214 214
0.287130 -0.001253 0.295300 -0.000000 0.000000 1.000000 214 214 214
0.264794 -0.111037 0.295300 0.000000 0.000000 1.000000 214 214 214
0.202145 -0.203917 0.295300 0.000000 0.000000 1.000000 214 214 214
0.114015 -0.262249 0.295300 0.000000 0.000000 1.000000 214 214 214
-0.203917 -0.202145 0.295300 0.000000 0.000000 1.000000 214 214 214
-0.116300 -0.261244 0.295300 0.000000 0.000000 1.000000 214 214 214
-0.208425 -0.206614 0.290845 -0.559194 -0.829037 0.000000 232 232 232
-0.208425 -0.206614 0.074455 -0.559194 -0.829037 0.000000 232 232 232
-0.118654 -0.267166 0.074455 -0.559194 -0.829037 0.000000 232 232 232
-0.003921 -0.009350 0.290845 0.536647 -0.225035 0.813246 191 191 191
0.000071 0.016269 0.295300 0.536647 -0.225035 0.813246 191 191 191
-0.116300 -0.261244 0.295300 0.536647 -0.225035 0.813246 191 191 191
-0.265753 -0.108722 0.295300 0.000000 0.000000 1.000000 214 214 214
-0.287130 0.001253 0.295300 0.000000 0.000000 1.000000 214 214 214
-0.264794 0.111038 0.295300 0.000000 -0.000000 1.000000 214 214 214
-0.202145 0.203917 0.295300 0.000000 -0.000000 1.000000 214 214 214
-0.108722 0.265753 0.295300 0.000000 -0.000000 1.000000 214 214 214
0.114015 -0.262249 0.070000 -0.195858 -0.635657 -0.746713 191 191 191
0.116317 -0.268191 0.074455 -0.195858 -0.635657 -0.746713 191 191 191
0.108768 -0.265866 0.074455 -0.195858 -0.635657 -0.746713 191 191 191
0.114015 -0.262249 0.295300 -0.195858 -0.635657 0.746712 191 191 191
0.108768 -0.265866 0.290845 -0.195858 -0.635657 0.746712 191 191 191
0.116317 -0.268191 0.290845 -0.195858 -0.635657 0.746712 191 191 191
-0.111085 -0.264906 0.074455 0.190302 -0.637343 -0.746713 191 191 191
-0.118654 -0.267166 0.074455 0.190302 -0.637343 -0.746713 191 191 191
-0.116300 -0.261244 0.070000 0.190302 -0.637343 -0.746713 191 191 191
-0.111085 -0.264906 0.290845 0.190302 -0.637343 0.746712 191 191 191
-0.116300 -0.261244 0.295300 0.190302 -0.637343 0.746712 191 191 191
-0.118654 -0.267166 0.290845 0.190302 -0.637343 0.746712 191 191 191
0.001281 0.293477 0.074455 0.116016 0.570239 -0.813245 191 191 191
0.113492 0.270648 0.074455 0.116016 0.570239 -0.813245 191 191 191
0.111037 0.264794 0.070000 0.116016 0.570239 -0.813245 191 191 191
0.001281 0.293477 0.290845 0.116016 0.570239 0.813245 191 191 191
0.001253 0.287130 0.295300 0.116016 0.570239 0.813245 191 191 191
0.111037 0.264794 0.295300 0.116016 0.570239 0.813245 191 191 191
0.113492 0.270648 0.074455 0.325405 0.482433 -0.813247 191 191 191
0.208425 0.206614 0.074455 0.325405 0.482433 -0.813247 191 191 191
0.203917 0.202145 0.070000 0.325405 0.482433 -0.813247 191 191 191
0.208425 0.206614 0.290845 0.325406 0.482435 0.813245 191 191 191
0.113492 0.270648 0.290845 0.325406 0.482435 0.813245 191 191 191
0.111037 0.264794 0.295300 0.325406 0.482435 0.813245 191 191 191
0.271628 0.111126 0.074455 0.485255 0.321183 -0.813246 191 191 191
0.265753 0.108722 0.070000 0.485255 0.321183 -0.813246 191 191 191
0.203917 0.202145 0.070000 0.485255 0.321183 -0.813246 191 191 191
0.271628 0.111126 0.290845 0.485255 0.321183 0.813246 191 191 191
0.208425 0.206614 0.290845 0.485255 0.321183 0.813246 191 191 191
0.203917 0.202145 0.295300 0.485255 0.321183 0.813246 191 191 191
0.293477 -0.001281 0.074455 0.571227 0.111035 -0.813247 191 191 191
0.287130 -0.001253 0.070000 0.571227 0.111035 -0.813247 191 191 191
0.265753 0.108722 0.070000 0.571227 0.111035 -0.813247 191 191 191
0.293477 -0.001281 0.290845 0.571229 0.111036 0.813246 191 191 191
0.271628 0.111126 0.290845 0.571229 0.111036 0.813246 191 191 191
0.265753 0.108722 0.295300 0.571229 0.111036 0.813246 191 191 191
0.293477 -0.001281 0.074455 0.570237 -0.116016 -0.813247 191 191 191
0.270648 -0.113492 0.074455 0.570237 -0.116016 -0.813247 191 191 191
0.264794 -0.111037 0.070000 0.570237 -0.116016 -0.813247 191 191 191
0.293477 -0.001281 0.290845 0.570237 -0.116016 0.813247 191 191 191
0.287130 -0.001253 0.295300 0.570237 -0.116016 0.813247 191 191 191
0.264794 -0.111037 0.295300 0.570237 -0.116016 0.813247 191 191 191
0.206614 -0.208425 0.074455 0.482433 -0.325405 -0.813247 191 191 191
0.202145 -0.203917 0.070000 0.482433 -0.325405 -0.813247 191 191 191
0.264794 -0.111037 0.070000 0.482433 -0.325405 -0.813247 191 191 191
0.206614 -0.208425 0.290845 0.482433 -0.325405 0.813246 191 191 191
0.270648 -0.113492 0.290845 0.482433 -0.325405 0.813246 191 191 191
0.264794 -0.111037 0.295300 0.482433 -0.325405 0.813246 191 191 191
0.206614 -0.208425 0.074455 0.321183 -0.485255 -0.813246 191 191 191
0.116317 -0.268191 0.074455 0.321183 -0.485255 -0.813246 191 191 191
0.114015 -0.262249 0.070000 0.321183 -0.485255 -0.813246 191 191 191
0.206614 -0.208425 0.290845 0.321183 -0.485255 0.813246 191 191 191
0.202145 -0.203917 0.295300 0.321183 -0.485255 0.813246 191 191 191
0.114015 -0.262249 0.295300 0.321183 -0.485255 0.813246 191 191 191
0.108768 -0.265865 0.189863 -0.294461 -0.955663 -0.000000 191 191 191
0.116317 -0.268191 0.074455 -0.294461 -0.955663 -0.000000 191 191 191
0.116317 -0.268191 0.290845 -0.294461 -0.955663 -0.000000 191 191 191
-0.118654 -0.267166 0.074455 0.286105 -0.958198 0.000000 191 191 191
-0.111085 -0.264906 0.175437 0.286105 -0.958198 0.000000 191 191 191
-0.118654 -0.267166 0.290845 0.286105 -0.958198 0.000000 191 191 191
-0.208425 -0.206614 0.074455 -0.325406 -0.482433 -0.813246 191 191 191
-0.203917 -0.202145 0.070000 -0.325406 -0.482433 -0.813246 191 191 191
-0.116300 -0.261244 0.070000 -0.325406 -0.482433 -0.813246 191 191 191
-0.208425 -0.206614 0.290845 -0.325406 -0.482433 0.813246 191 191 191
-0.118654 -0.267166 0.290845 -0.325406 -0.482433 0.813246 191 191 191
-0.116300 -0.261244 0.295300 -0.325406 -0.482433 0.813246 191 191 191
-0.271628 -0.111126 0.074455 -0.485256 -0.321184 -0.813245 191 191 191
-0.265753 -0.108722 0.070000 -0.485256 -0.321184 -0.813245 191 191 191
-0.203917 -0.202145 0.070000 -0.485256 -0.321184 -0.813245 191 191 191
-0.271628 -0.111126 0.290845 -0.485256 -0.321183 0.813245 191 191 191
-0.208425 -0.206614 0.290845 -0.485256 -0.321183 0.813245 191 191 191
-0.203917 -0.202145 0.295300 -0.485256 -0.321183 0.813245 191 191 191
-0.271628 -0.111126 0.074455 -0.571229 -0.111035 -0.813246 191 191 191
-0.293477 0.001281 0.074455 -0.571229 -0.111035 -0.813246 191 191 191
-0.287130 0.001253 0.070000 -0.571229 -0.111035 -0.813246 191 191 191
-0.271628 -0.111126 0.290845 -0.571231 -0.111035 0.813244 191 191 191
-0.265753 -0.108722 0.295300 -0.571231 -0.111035 0.813244 191 191 191
-0.287130 0.001253 0.295300 -0.571231 -0.111035 0.813244 191 191 191
-0.270647 0.113492 0.074455 -0.570237 0.116017 -0.813247 191 191 191
-0.264794 0.111038 0.070000 -0.570237 0.116017 -0.813247 191 191 191
-0.287130 0.001253 0.070000 -0.570237 0.116017 -0.813247 191 191 191
-0.270647 0.113492 0.290845 -0.570239 0.116017 0.813245 191 191 191
-0.293477 0.001281 0.290845 -0.570239 0.116017 0.813245 191 191 191
-0.287130 0.001253 0.295300 -0.570239 0.116017 0.813245 191 191 191
-0.206614 0.208426 0.074455 -0.482433 0.325406 -0.813246 191 191 191
-0.202145 0.203917 0.070000 -0.482433 0.325406 -0.813246 191 191 191
-0.264794 0.111038 0.070000 -0.482433 0.325406 -0.813246 191 191 191
-0.270647 0.113492 0.290845 -0.482433 0.325406 0.813246 191 191 191
-0.264794 0.111038 0.295300 -0.482433 0.325406 0.813246 191 191 191
-0.202145 0.203917 0.295300 -0.482433 0.325406 0.813246 191 191 191
-0.206614 0.208426 0.074455 -0.321182 0.485255 -0.813246 191 191 191
-0.111125 0.271628 0.074455 -0.321182 0.485255 -0.813246 191 191 191
-0.108722 0.265753 0.070000 -0.321182 0.485255 -0.813246 191 191 191
-0.111125 0.271628 0.290845 -0.321183 0.485256 0.813246 191 191 191
-0.206614 0.208426 0.290845 -0.321183 0.485256 0.813246 191 191 191
-0.202145 0.203917 0.295300 -0.321183 0.485256 0.813246 191 191 191
-0.111125 0.271628 0.074455 -0.111035 0.571229 -0.813246 191 191 191
0.001281 0.293477 0.074455 -0.111035 0.571229 -0.813246 191 191 191
0.001253 0.287130 0.070000 -0.111035 0.571229 -0.813246 191 191 191
-0.111125 0.271628 0.290845 -0.111035 0.571229 0.813246 191 191 191
-0.108722 0.265753 0.295300 -0.111035 0.571229 0.813246 191 191 191
0.001253 0.287130 0.295300 -0.111035 0.571229 0.813246 191 191 191
0.000071 0.016269 0.295300 -0.538591 -0.220343 0.813246 191 191 191
0.003839 -0.009384 0.290845 -0.538591 -0.220343 0.813246 191 191 191
0.114015 -0.262249 0.295300 -0.538591 -0.220343 0.813246 191 191 191
-0.111085 -0.264906 0.189863 0.922201 -0.386712 -0.000000 102 0 0
-0.003921 -0.009350 0.189863 0.922201 -0.386712 -0.000000 102 0 0
-0.003921 -0.009350 0.290845 0.922201 -0.386712 -0.000000 102 0 0
0.000071 0.016269 0.070000 0.536647 -0.225035 -0.813246 191 191 191
-0.003921 -0.009350 0.074455 0.536647 -0.225035 -0.813246 191 191 191
-0.116300 -0.261244 0.070000 0.536647 -0.225035 -0.813246 191 191 191
0.113492 0.270648 0.290845 0.199368 0.979925 -0.000000 158 158 158
0.113492 0.270648 0.074455 0.199368 0.979925 -0.000000 158 158 158
0.001281 0.293477 0.074455 0.199368 0.979925 -0.000000 158 158 158
-0.003921 -0.009350 0.290845 -0.000595 -0.136370 0.990658 191 191 191
0.003839 -0.009384 0.290845 -0.000595 -0.136370 0.990658 191 191 191
0.000041 0.009469 0.293438 -0.000595 -0.136370 0.990658 191 191 191
0.003839 -0.009384 0.074455 -0.000595 -0.136370 -0.990658 191 191 191
-0.003921 -0.009350 0.074455 -0.000595 -0.136370 -0.990658 191 191 191
0.000041 0.009469 0.071862 -0.000595 -0.136370 -0.990658 191 191 191
0.003839 -0.009384 0.175437 -0.004364 -0.999990 0.000000 94 0 0
-0.003921 -0.009350 0.175437 -0.004364 -0.999990 0.000000 94 0 0
-0.003921 -0.009350 0.074455 -0.004364 -0.999990 0.000000 94 0 0
0.003839 -0.009384 0.189863 -0.925541 -0.378648 -0.000000 102 0 0
0.108768 -0.265865 0.189863 -0.925541 -0.378648 -0.000000 102 0 0
0.108768 -0.265866 0.290845 -0.925541 -0.378648 -0.000000 102 0 0
-0.003921 -0.009350 0.175437 0.922201 -0.386712 0.000000 102 0 0
-0.111085 -0.264906 0.175437 0.922201 -0.386712 0.000000 102 0 0
-0.111085 -0.264906 0.074455 0.922201 -0.386712 0.000000 102 0 0
0.108768 -0.265865 0.175437 -0.925541 -0.378648 0.000000 102 0 0
0.003839 -0.009384 0.175437 -0.925541 -0.378648 0.000000 102 0 0
0.003839 -0.009384 0.074455 -0.925541 -0.378648 0.000000 102 0 0
0.108768 -0.265865 0.189863 -0.925541 -0.378648 0.000000 235 235 235
0.003839 -0.009384 0.189863 -0.925541 -0.378648 0.000000 235 235 235
0.003839 -0.009384 0.175437 -0.925541 -0.378648 0.000000 235 235 235
-0.111085 -0.264906 0.175437 0.922201 -0.386712 0.000000 235 235 235
-0.003921 -0.009350 0.175437 0.922201 -0.386712 0.000000 235 235 235
-0.003921 -0.009350 0.189863 0.922201 -0.386712 0.000000 235 235 235
0.003839 -0.009384 0.189863 -0.004364 -0.999990 0.000000 222 222 222
-0.003921 -0.009350 0.189863 -0.004364 -0.999990 0.000000 222 222 222
-0.003921 -0.009350 0.175437 -0.004364 -0.999990 0.000000 222 222 222
-0.003921 -0.009350 0.290845 -0.004364 -0.999990 -0.000000 94 0 0
-0.003921 -0.009350 0.189863 -0.004364 -0.999990 -0.000000 94 0 0
0.003839 -0.009384 0.189863 -0.004364 -0.999990 -0.000000 94 0 0
0.001281 0.293477 0.074455 -0.190808 0.981627 0.000000 148 148 148
-0.206614 0.208426 0.074455 -0.551936 0.833887 0.000000 166 166 166
-0.270647 0.113492 0.074455 -0.829037 0.559194 0.000000 176 176 176
-0.293477 0.001281 0.074455 -0.979924 0.199369 0.000000 189 189 189
-0.271628 -0.111126 0.074455 -0.981627 -0.190808 -0.000000 201 201 201
-0.208425 -0.206614 0.074455 -0.833886 -0.551936 -0.000000 214 214 214
0.108768 -0.265866 0.074455 -0.538590 -0.220343 -0.813246 191 191 191
0.003839 -0.009384 0.074455 -0.538589 -0.220343 -0.813247 191 191 191
0.000041 0.009469 0.071862 -0.538589 -0.220343 -0.813247 191 191 191
0.000071 0.016269 0.070000 -0.538589 -0.220343 -0.813247 191 191 191
0.206614 -0.208425 0.074455 0.551937 -0.833886 0.000000 232 232 232
0.270648 -0.113492 0.290845 0.829038 -0.559193 0.000000 214 214 214
0.293477 -0.001281 0.074455 0.979925 -0.199368 0.000000 201 201 201
0.271628 0.111126 0.074455 0.981627 0.190809 0.000000 189 189 189
0.208425 0.206614 0.074455 0.833886 0.551937 0.000000 176 176 176
0.113492 0.270648 0.074455 0.559193 0.829038 0.000000 166 166 166
-0.118654 -0.267166 0.290845 -0.559194 -0.829037 0.000000 232 232 232
-0.111085 -0.264906 0.290845 0.536647 -0.225035 0.813246 191 191 191
-0.003921 -0.009350 0.290845 0.536644 -0.225035 0.813248 191 191 191
0.000041 0.009469 0.293438 0.536644 -0.225035 0.813248 191 191 191
0.000071 0.016269 0.295300 0.536644 -0.225035 0.813248 191 191 191
0.001253 0.287130 0.070000 0.116016 0.570238 -0.813246 191 191 191
0.001281 0.293477 0.074455 0.116016 0.570238 -0.813246 191 191 191
0.111037 0.264794 0.070000 0.116016 0.570238 -0.813246 191 191 191
0.113492 0.270648 0.290845 0.116017 0.570239 0.813245 191 191 191
0.001281 0.293477 0.290845 0.116017 0.570239 0.813245 191 191 191
0.111037 0.264794 0.295300 0.116017 0.570239 0.813245 191 191 191
0.111037 0.264794 0.070000 0.325406 0.482434 -0.813246 191 191 191
0.113492 0.270648 0.074455 0.325406 0.482434 -0.813246 191 191 191
0.203917 0.202145 0.070000 0.325406 0.482434 -0.813246 191 191 191
0.203917 0.202145 0.295300 0.325406 0.482433 0.813246 191 191 191
0.208425 0.206614 0.290845 0.325406 0.482433 0.813246 191 191 191
0.111037 0.264794 0.295300 0.325406 0.482433 0.813246 191 191 191
0.208425 0.206614 0.074455 0.485255 0.321183 -0.813246 191 191 191
0.265753 0.108722 0.295300 0.485255 0.321183 0.813246 191 191 191
0.271628 0.111126 0.074455 0.571228 0.111036 -0.813246 191 191 191
0.293477 -0.001281 0.074455 0.571228 0.111036 -0.813246 191 191 191
0.265753 0.108722 0.070000 0.571228 0.111036 -0.813246 191 191 191
0.287130 -0.001253 0.295300 0.571228 0.111035 0.813246 191 191 191
0.293477 -0.001281 0.290845 0.571228 0.111035 0.813246 191 191 191
0.265753 0.108722 0.295300 0.571228 0.111035 0.813246 191 191 191
0.287130 -0.001253 0.070000 0.570236 -0.116016 -0.813247 191 191 191
0.293477 -0.001281 0.074455 0.570236 -0.116016 -0.813247 191 191 191
0.264794 -0.111037 0.070000 0.570236 -0.116016 -0.813247 191 191 191
0.270648 -0.113492 0.290845 0.570237 -0.116016 0.813246 191 191 191
0.293477 -0.001281 0.290845 0.570237 -0.116016 0.813246 191 191 191
0.264794 -0.111037 0.295300 0.570237 -0.116016 0.813246 191 191 191
0.270648 -0.113492 0.074455 0.482433 -0.325405 -0.813247 191 191 191
0.202145 -0.203917 0.295300 0.482433 -0.325405 0.813246 191 191 191
0.202145 -0.203917 0.070000 0.321183 -0.485255 -0.813246 191 191 191
0.116317 -0.268191 0.290845 0.321183 -0.485255 0.813246 191 191 191
0.116317 -0.268191 0.290845 -0.294458 -0.955664 -0.000000 191 191 191
0.108768 -0.265866 0.290845 -0.294458 -0.955664 -0.000000 191 191 191
0.108768 -0.265865 0.189863 -0.294458 -0.955664 -0.000000 191 191 191
0.108768 -0.265865 0.175437 -0.294461 -0.955663 0.000000 191 191 191
0.108768 -0.265866 0.074455 -0.294458 -0.955664 0.000000 191 191 191
0.116317 -0.268191 0.074455 -0.294458 -0.955664 0.000000 191 191 191
0.108768 -0.265865 0.175437 -0.294458 -0.955664 0.000000 191 191 191
-0.111085 -0.264906 0.290845 0.286105 -0.958198 0.000000 191 191 191
-0.111085 -0.264906 0.189863 0.286105 -0.958198 0.000000 191 191 191
-0.111085 -0.264906 0.074455 0.286105 -0.958198 0.000000 191 191 191
-0.118654 -0.267166 0.074455 -0.325406 -0.482433 -0.813246 191 191 191
-0.203917 -0.202145 0.295300 -0.325406 -0.482434 0.813246 191 191 191
-0.208425 -0.206614 0.290845 -0.325406 -0.482434 0.813246 191 191 191
-0.116300 -0.261244 0.295300 -0.325406 -0.482434 0.813246 191 191 191
-0.208425 -0.206614 0.074455 -0.485255 -0.321183 -0.813246 191 191 191
-0.271628 -0.111126 0.074455 -0.485255 -0.321183 -0.813246 191 191 191
-0.203917 -0.202145 0.070000 -0.485255 -0.321183 -0.813246 191 191 191
-0.265753 -0.108722 0.295300 -0.485257 -0.321184 0.813245 191 191 191
-0.271628 -0.111126 0.290845 -0.485257 -0.321184 0.813245 191 191 191
-0.203917 -0.202145 0.295300 -0.485257 -0.321184 0.813245 191 191 191
-0.265753 -0.108722 0.070000 -0.571230 -0.111035 -0.813245 191 191 191
-0.271628 -0.111126 0.074455 -0.571230 -0.111035 -0.813245 191 191 191
-0.287130 0.001253 0.070000 -0.571230 -0.111035 -0.813245 191 191 191
-0.293477 0.001281 0.290845 -0.571230 -0.111035 0.813245 191 191 191
-0.271628 -0.111126 0.290845 -0.571230 -0.111035 0.813245 191 191 191
-0.287130 0.001253 0.295300 -0.571230 -0.111035 0.813245 191 191 191
-0.293477 0.001281 0.074455 -0.570238 0.116017 -0.813246 191 191 191
-0.270647 0.113492 0.074455 -0.570238 0.116017 -0.813246 191 191 191
-0.287130 0.001253 0.070000 -0.570238 0.116017 -0.813246 191 191 191
-0.264794 0.111038 0.295300 -0.570237 0.116017 0.813246 191 191 191
-0.270647 0.113492 0.290845 -0.570237 0.116017 0.813246 191 191 191
-0.287130 0.001253 0.295300 -0.570237 0.116017 0.813246 191 191 191
-0.270647 0.113492 0.074455 -0.482432 0.325406 -0.813247 191 191 191
-0.206614 0.208426 0.074455 -0.482432 0.325406 -0.813247 191 191 191
-0.264794 0.111038 0.070000 -0.482432 0.325406 -0.813247 191 191 191
-0.206614 0.208426 0.290845 -0.482434 0.325407 0.813246 191 191 191
-0.270647 0.113492 0.290845 -0.482434 0.325407 0.813246 191 191 191
-0.202145 0.203917 0.295300 -0.482434 0.325407 0.813246 191 191 191
-0.202145 0.203917 0.070000 -0.321182 0.485255 -0.813246 191 191 191
-0.108722 0.265753 0.295300 -0.321183 0.485256 0.813246 191 191 191
-0.108722 0.265753 0.070000 -0.111035 0.571228 -0.813246 191 191 191
-0.111125 0.271628 0.074455 -0.111035 0.571228 -0.813246 191 191 191
0.001253 0.287130 0.070000 -0.111035 0.571228 -0.813246 191 191 191
0.001281 0.293477 0.290845 -0.111035 0.571230 0.813245 191 191 191
-0.111125 0.271628 0.290845 -0.111035 0.571230 0.813245 191 191 191
0.001253 0.287130 0.295300 -0.111035 0.571230 0.813245 191 191 191
0.108768 -0.265866 0.290845 -0.538591 -0.220343 0.813246 191 191 191
0.000071 0.016269 0.295300 -0.538588 -0.220343 0.813248 191 191 191
0.000041 0.009469 0.293438 -0.538588 -0.220343 0.813248 191 191 191
0.003839 -0.009384 0.290845 -0.538588 -0.220343 0.813248 191 191 191
-0.111085 -0.264906 0.290845 0.922201 -0.386712 0.000000 102 0 0
-0.111085 -0.264906 0.074455 0.536647 -0.225035 -0.813246 191 191 191
0.000071 0.016269 0.070000 0.536645 -0.225035 -0.813247 191 191 191
0.000041 0.009469 0.071862 0.536645 -0.225035 -0.813247 191 191 191
-0.003921 -0.009350 0.074455 0.536645 -0.225035 -0.813247 191 191 191
0.001281 0.293477 0.290845 0.199368 0.979925 0.000000 158 158 158
0.003839 -0.009384 0.074455 -0.004364 -0.999991 -0.000000 94 0 0
0.003839 -0.009384 0.175437 -0.004364 -0.999991 -0.000000 94 0 0
-0.003921 -0.009350 0.074455 -0.004364 -0.999991 -0.000000 94 0 0
0.003839 -0.009384 0.290845 -0.925541 -0.378648 0.000000 102 0 0
-0.003921 -0.009350 0.074455 0.922201 -0.386712 -0.000000 102 0 0
0.108768 -0.265866 0.074455 -0.925541 -0.378648 0.000000 102 0 0
0.108768 -0.265865 0.175437 -0.925541 -0.378648 -0.000000 235 235 235
-0.111085 -0.264906 0.189863 0.922201 -0.386712 0.000000 235 235 235
0.003839 -0.009384 0.175437 -0.004364 -0.999990 0.000000 222 222 222
0.003839 -0.009384 0.290845 -0.004364 -0.999990 0.000000 94 0 0
3 0 1 2
3 1 3 2
3 3 4 2
3 4 5 2
3 5 6 2
3 6 7 2
3 7 8 2
3 9 10 2
3 10 11 2
3 11 12 2
3 12 13 2
3 13 14 2
3 14 15 2
3 16 17 18
3 15 0 2
3 19 20 21
3 22 23 24
3 25 26 27
3 28 29 30
3 31 32 33
3 34 35 36
3 37 38 39
3 40 41 42
3 43 44 45
3 46 47 48
3 49 50 51
3 52 53 54
3 55 56 57
3 58 19 21
3 59 58 21
3 60 59 21
3 61 60 21
3 62 61 21
3 63 62 21
3 64 65 21
3 66 67 68
3 69 70 71
3 72 64 21
3 73 72 21
3 74 73 21
3 75 74 21
3 76 75 21
3 20 76 21
3 77 78 79
3 80 81 82
3 83 84 85
3 86 87 88
3 89 90 91
3 92 93 94
3 95 96 97
3 98 99 100
3 101 102 103
3 104 105 106
3 107 108 109
3 110 111 112
3 113 114 115
3 116 117 118
3 119 120 121
3 122 123 124
3 125 126 127
3 128 129 130
3 131 132 133
3 134 135 136
3 137 138 139
3 140 141 142
3 143 144 145
3 146 147 148
3 149 150 151
3 152 153 154
3 155 156 157
3 158 159 160
3 161 162 163
3 164 165 166
3 167 168 169
3 170 171 172
3 173 174 175
3 176 177 178
3 179 180 181
3 182 183 184
3 185 186 187
3 188 189 190
3 191 192 193
3 194 195 196
3 197 198 199
3 200 201 202
3 203 204 205
3 206 207 208
3 209 210 211
3 212 213 214
3 215 216 217
3 218 219 220
3 221 16 18
3 222 22 24
3 223 25 27
3 224 28 30
3 225 31 33
3 226 34 36
3 39 227 37
3 228 229 230
3 231 40 42
3 232 43 45
3 233 46 48
3 234 49 51
3 235 52 54
3 236 55 57
3 237 66 68
3 71 238 69
3 239 240 241
3 242 243 244
3 245 246 247
3 248 249 250
3 251 252 253
3 254 101 103
3 255 104 106
3 256 257 258
3 259 260 261
3 262 263 264
3 265 266 267
3 268 119 121
3 269 122 124
3 270 125 127
3 271 128 130
3 272 273 274
3 131 275 132
3 276 277 278
3 279 136 280
3 134 281 135
3 135 280 136
3 282 137 139
3 283 284 285
3 286 287 288
3 289 290 291
3 292 293 294
3 295 296 297
3 298 299 300
3 301 302 303
3 304 305 306
3 307 308 309
3 310 167 169
3 311 170 172
3 312 313 314
3 315 316 317
3 318 181 180
3 319 320 321
3 322 182 184
3 323 187 186
3 324 325 326
3 327 188 190
3 328 329 330
3 331 200 202
3 332 203 205
3 333 206 208
3 334 209 211
3 335 212 214
3 336 215 217
3 337 218 220
