ply
format ascii 1.0
comment Created by Blender 2.76 (sub 0) - www.blender.org, source file: 'CubeKey_A.blend'
element vertex 482
property float x
property float y
property float z
property float nx
property float ny
property float nz
property uchar red
property uchar green
property uchar blue
element face 188
property list uchar uint vertex_indices
end_header
-0.170710 0.000000 0.070004 -0.000000 0.000000 -1.000000 130 104 0
0.000000 0.170710 0.070004 -0.000000 0.000000 -1.000000 130 104 0
0.170710 0.000000 0.070004 -0.000000 0.000000 -1.000000 130 104 0
0.019277 -0.189987 0.338686 0.707107 -0.707107 0.000000 171 137 0
0.019277 -0.189987 0.097265 0.707107 -0.707107 0.000000 171 137 0
0.189987 -0.019277 0.097265 0.707107 -0.707107 0.000000 171 137 0
0.000000 -0.170710 0.365948 0.000000 0.000000 1.000000 255 204 0
0.170710 0.000000 0.365948 0.000000 0.000000 1.000000 255 204 0
0.000000 0.170710 0.365948 0.000000 0.000000 1.000000 255 204 0
-0.189987 -0.019277 0.338686 -0.707107 -0.707107 0.000000 171 137 0
-0.189987 -0.019277 0.097265 -0.707107 -0.707107 0.000000 171 137 0
-0.019277 -0.189987 0.097265 -0.707107 -0.707107 0.000000 171 137 0
0.189987 0.019277 0.338686 0.707107 0.707107 -0.000000 171 137 0
0.189987 0.019277 0.097265 0.707107 0.707107 -0.000000 171 137 0
0.019277 0.189987 0.097265 0.707107 0.707107 -0.000000 171 137 0
-0.197038 -0.007076 0.097265 -0.842490 -0.469888 -0.263470 181 145 0
-0.194129 -0.004982 0.084229 -0.842490 -0.469888 -0.263470 181 145 0
-0.187412 -0.016702 0.083652 -0.842490 -0.469888 -0.263470 181 145 0
-0.197038 -0.007076 0.097265 -0.975998 -0.000000 -0.217778 199 159 0
-0.197038 0.007076 0.097265 -0.975998 -0.000000 -0.217778 199 159 0
-0.194129 0.004982 0.084229 -0.975998 -0.000000 -0.217778 199 159 0
-0.187412 0.016702 0.083652 -0.842490 0.469887 -0.263470 181 145 0
-0.194129 0.004982 0.084229 -0.842490 0.469887 -0.263470 181 145 0
-0.197038 0.007076 0.097265 -0.842490 0.469887 -0.263470 181 145 0
-0.187412 0.016702 0.083652 -0.641993 0.334005 -0.690135 158 126 0
-0.180336 0.009626 0.073646 -0.641993 0.334005 -0.690135 158 126 0
-0.189147 0.000000 0.077184 -0.641993 0.334005 -0.690135 158 126 0
-0.180336 -0.009626 0.073646 -0.372605 -0.000000 -0.927990 143 114 0
-0.189147 0.000000 0.077184 -0.372605 -0.000000 -0.927990 143 114 0
-0.180336 0.009626 0.073646 -0.372605 -0.000000 -0.927990 143 114 0
-0.187412 -0.016702 0.083652 -0.641990 -0.334006 -0.690136 158 126 0
-0.194129 -0.004982 0.084229 -0.641990 -0.334006 -0.690136 158 126 0
-0.189147 0.000000 0.077184 -0.641990 -0.334006 -0.690136 158 126 0
-0.194129 -0.004982 0.084229 -0.816495 -0.000000 -0.577352 199 159 0
-0.194129 0.004982 0.084229 -0.816495 -0.000000 -0.577352 199 159 0
-0.189147 0.000000 0.077184 -0.816495 -0.000000 -0.577352 199 159 0
-0.187412 -0.016702 0.352299 -0.842490 -0.469888 0.263469 181 145 0
-0.194129 -0.004982 0.351723 -0.842490 -0.469888 0.263469 181 145 0
-0.197038 -0.007076 0.338686 -0.842490 -0.469888 0.263469 181 145 0
-0.187412 -0.016702 0.352299 -0.641991 -0.334007 0.690135 212 169 0
-0.180336 -0.009626 0.362306 -0.641991 -0.334007 0.690135 212 169 0
-0.189147 0.000000 0.358768 -0.641991 -0.334007 0.690135 212 169 0
-0.180336 0.009626 0.362306 -0.372602 -0.000000 0.927991 232 186 0
-0.189147 0.000000 0.358768 -0.372602 -0.000000 0.927991 232 186 0
-0.180336 -0.009626 0.362306 -0.372602 -0.000000 0.927991 232 186 0
-0.187412 0.016702 0.352299 -0.641991 0.334007 0.690136 212 169 0
-0.194129 0.004982 0.351723 -0.641991 0.334007 0.690136 212 169 0
-0.189147 0.000000 0.358768 -0.641991 0.334007 0.690136 212 169 0
-0.197038 0.007076 0.338686 -0.842490 0.469887 0.263470 181 145 0
-0.194129 0.004982 0.351723 -0.842490 0.469887 0.263470 181 145 0
-0.187412 0.016702 0.352299 -0.842490 0.469887 0.263470 181 145 0
-0.197038 -0.007076 0.338686 -0.975998 0.000000 0.217778 199 159 0
-0.194129 -0.004982 0.351723 -0.975998 0.000000 0.217778 199 159 0
-0.194129 0.004982 0.351723 -0.975998 0.000000 0.217778 199 159 0
-0.194129 -0.004982 0.351723 -0.816496 0.000000 0.577351 212 169 0
-0.189147 0.000000 0.358768 -0.816496 0.000000 0.577351 212 169 0
-0.194129 0.004982 0.351723 -0.816496 0.000000 0.577351 212 169 0
0.016702 0.187412 0.083652 0.469887 0.842490 -0.263470 181 145 0
0.004982 0.194129 0.084229 0.469887 0.842490 -0.263470 181 145 0
0.007076 0.197038 0.097265 0.469887 0.842490 -0.263470 181 145 0
0.016702 0.187412 0.083652 0.334005 0.641992 -0.690135 158 126 0
0.009626 0.180336 0.073646 0.334005 0.641992 -0.690135 158 126 0
0.000000 0.189147 0.077184 0.334005 0.641992 -0.690135 158 126 0
-0.009626 0.180336 0.073646 0.000000 0.372605 -0.927990 143 114 0
0.000000 0.189147 0.077184 0.000000 0.372605 -0.927990 143 114 0
0.009626 0.180336 0.073646 0.000000 0.372605 -0.927990 143 114 0
-0.016702 0.187412 0.083652 -0.334006 0.641991 -0.690136 158 126 0
-0.004982 0.194129 0.084229 -0.334006 0.641991 -0.690136 158 126 0
0.000000 0.189147 0.077184 -0.334006 0.641991 -0.690136 158 126 0
-0.007076 0.197038 0.097265 -0.469887 0.842490 -0.263470 181 145 0
-0.004982 0.194129 0.084229 -0.469887 0.842490 -0.263470 181 145 0
-0.016702 0.187412 0.083652 -0.469887 0.842490 -0.263470 181 145 0
-0.007076 0.197038 0.097265 0.000000 0.975998 -0.217778 199 159 0
0.007076 0.197038 0.097265 0.000000 0.975998 -0.217778 199 159 0
0.004982 0.194129 0.084229 0.000000 0.975998 -0.217778 199 159 0
0.004982 0.194129 0.084229 0.000000 0.816495 -0.577352 199 159 0
0.000000 0.189147 0.077184 0.000000 0.816495 -0.577352 199 159 0
-0.004982 0.194129 0.084229 0.000000 0.816495 -0.577352 199 159 0
0.009626 0.180336 0.362306 0.000000 0.372602 0.927991 232 186 0
0.000000 0.189147 0.358768 0.000000 0.372602 0.927991 232 186 0
-0.009626 0.180336 0.362306 0.000000 0.372602 0.927991 232 186 0
0.009626 0.180336 0.362306 0.334006 0.641991 0.690136 212 169 0
0.016702 0.187412 0.352299 0.334006 0.641991 0.690136 212 169 0
0.004982 0.194129 0.351723 0.334006 0.641991 0.690136 212 169 0
0.007076 0.197038 0.338686 0.469887 0.842490 0.263469 181 145 0
0.004982 0.194129 0.351723 0.469887 0.842490 0.263469 181 145 0
0.016702 0.187412 0.352299 0.469887 0.842490 0.263469 181 145 0
0.007076 0.197038 0.338686 -0.000000 0.975998 0.217778 199 159 0
-0.007076 0.197038 0.338686 -0.000000 0.975998 0.217778 199 159 0
-0.004982 0.194129 0.351723 -0.000000 0.975998 0.217778 199 159 0
-0.016702 0.187412 0.352299 -0.469887 0.842490 0.263469 181 145 0
-0.004982 0.194129 0.351723 -0.469887 0.842490 0.263469 181 145 0
-0.007076 0.197038 0.338686 -0.469887 0.842490 0.263469 181 145 0
-0.016702 0.187412 0.352299 -0.334007 0.641991 0.690136 212 169 0
-0.009626 0.180336 0.362306 -0.334007 0.641991 0.690136 212 169 0
0.000000 0.189147 0.358768 -0.334007 0.641991 0.690136 212 169 0
0.000000 0.189147 0.358768 -0.000000 0.816496 0.577351 212 169 0
0.004982 0.194129 0.351723 -0.000000 0.816496 0.577351 212 169 0
-0.004982 0.194129 0.351723 -0.000000 0.816496 0.577351 212 169 0
-0.016702 -0.187412 0.083652 -0.469887 -0.842490 -0.263470 181 145 0
-0.004982 -0.194129 0.084229 -0.469887 -0.842490 -0.263470 181 145 0
-0.007076 -0.197038 0.097265 -0.469887 -0.842490 -0.263470 181 145 0
-0.016702 -0.187412 0.083652 -0.334006 -0.641992 -0.690135 158 126 0
-0.009626 -0.180336 0.073646 -0.334006 -0.641992 -0.690135 158 126 0
0.000000 -0.189147 0.077184 -0.334006 -0.641992 -0.690135 158 126 0
0.009626 -0.180336 0.073646 -0.000000 -0.372605 -0.927990 143 114 0
0.000000 -0.189147 0.077184 -0.000000 -0.372605 -0.927990 143 114 0
-0.009626 -0.180336 0.073646 -0.000000 -0.372605 -0.927990 143 114 0
0.016702 -0.187412 0.083652 0.334006 -0.641991 -0.690136 158 126 0
0.004982 -0.194129 0.084229 0.334006 -0.641991 -0.690136 158 126 0
0.000000 -0.189147 0.077184 0.334006 -0.641991 -0.690136 158 126 0
0.007076 -0.197038 0.097265 0.469887 -0.842490 -0.263470 181 145 0
0.004982 -0.194129 0.084229 0.469887 -0.842490 -0.263470 181 145 0
0.016702 -0.187412 0.083652 0.469887 -0.842490 -0.263470 181 145 0
-0.007076 -0.197038 0.097265 -0.000000 -0.975998 -0.217778 199 159 0
-0.004982 -0.194129 0.084229 -0.000000 -0.975998 -0.217778 199 159 0
0.004982 -0.194129 0.084229 -0.000000 -0.975998 -0.217778 199 159 0
-0.004982 -0.194129 0.084229 0.000000 -0.816495 -0.577352 199 159 0
0.000000 -0.189147 0.077184 0.000000 -0.816495 -0.577352 199 159 0
0.004982 -0.194129 0.084229 0.000000 -0.816495 -0.577352 199 159 0
-0.009626 -0.180336 0.362306 -0.000000 -0.372602 0.927991 232 186 0
0.000000 -0.189147 0.358768 -0.000000 -0.372602 0.927991 232 186 0
0.009626 -0.180336 0.362306 -0.000000 -0.372602 0.927991 232 186 0
-0.009626 -0.180336 0.362306 -0.334006 -0.641991 0.690136 212 169 0
-0.016702 -0.187412 0.352299 -0.334006 -0.641991 0.690136 212 169 0
-0.004982 -0.194129 0.351723 -0.334006 -0.641991 0.690136 212 169 0
-0.007076 -0.197038 0.338686 -0.469887 -0.842490 0.263469 181 145 0
-0.004982 -0.194129 0.351723 -0.469887 -0.842490 0.263469 181 145 0
-0.016702 -0.187412 0.352299 -0.469887 -0.842490 0.263469 181 145 0
-0.007076 -0.197038 0.338686 0.000000 -0.975998 0.217778 199 159 0
0.007076 -0.197038 0.338686 0.000000 -0.975998 0.217778 199 159 0
0.004982 -0.194129 0.351723 0.000000 -0.975998 0.217778 199 159 0
0.016702 -0.187412 0.352299 0.469887 -0.842490 0.263470 181 145 0
0.004982 -0.194129 0.351723 0.469887 -0.842490 0.263470 181 145 0
0.007076 -0.197038 0.338686 0.469887 -0.842490 0.263470 181 145 0
0.016702 -0.187412 0.352299 0.334007 -0.641991 0.690135 212 169 0
0.009626 -0.180336 0.362306 0.334007 -0.641991 0.690135 212 169 0
0.000000 -0.189147 0.358768 0.334007 -0.641991 0.690135 212 169 0
0.000000 -0.189147 0.358768 0.000000 -0.816496 0.577351 212 169 0
-0.004982 -0.194129 0.351723 0.000000 -0.816496 0.577351 212 169 0
0.004982 -0.194129 0.351723 0.000000 -0.816496 0.577351 212 169 0
0.187412 -0.016702 0.083652 0.842490 -0.469887 -0.263470 181 145 0
0.194129 -0.004982 0.084229 0.842490 -0.469887 -0.263470 181 145 0
0.197038 -0.007076 0.097265 0.842490 -0.469887 -0.263470 181 145 0
0.187412 -0.016702 0.083652 0.641992 -0.334005 -0.690135 158 126 0
0.180336 -0.009626 0.073646 0.641992 -0.334005 -0.690135 158 126 0
0.189147 0.000000 0.077184 0.641992 -0.334005 -0.690135 158 126 0
0.180336 0.009626 0.073646 0.372605 -0.000000 -0.927990 143 114 0
0.189147 0.000000 0.077184 0.372605 -0.000000 -0.927990 143 114 0
0.180336 -0.009626 0.073646 0.372605 -0.000000 -0.927990 143 114 0
0.187412 0.016702 0.083652 0.641991 0.334006 -0.690136 158 126 0
0.194129 0.004982 0.084229 0.641991 0.334006 -0.690136 158 126 0
0.189147 0.000000 0.077184 0.641991 0.334006 -0.690136 158 126 0
0.197038 0.007076 0.097265 0.842490 0.469887 -0.263470 181 145 0
0.194129 0.004982 0.084229 0.842490 0.469887 -0.263470 181 145 0
0.187412 0.016702 0.083652 0.842490 0.469887 -0.263470 181 145 0
0.197038 0.007076 0.097265 0.975998 0.000000 -0.217778 199 159 0
0.197038 -0.007076 0.097265 0.975998 0.000000 -0.217778 199 159 0
0.194129 -0.004982 0.084229 0.975998 0.000000 -0.217778 199 159 0
0.194129 -0.004982 0.084229 0.816495 0.000000 -0.577352 199 159 0
0.189147 0.000000 0.077184 0.816495 0.000000 -0.577352 199 159 0
0.194129 0.004982 0.084229 0.816495 0.000000 -0.577352 199 159 0
0.180336 -0.009626 0.362306 0.372602 -0.000000 0.927991 232 186 0
0.189147 0.000000 0.358768 0.372602 -0.000000 0.927991 232 186 0
0.180336 0.009626 0.362306 0.372602 -0.000000 0.927991 232 186 0
0.187412 -0.016702 0.352299 0.641991 -0.334006 0.690136 212 169 0
0.194129 -0.004982 0.351723 0.641991 -0.334006 0.690136 212 169 0
0.189147 0.000000 0.358768 0.641991 -0.334006 0.690136 212 169 0
0.197038 -0.007076 0.338686 0.842490 -0.469887 0.263469 181 145 0
0.194129 -0.004982 0.351723 0.842490 -0.469887 0.263469 181 145 0
0.187412 -0.016702 0.352299 0.842490 -0.469887 0.263469 181 145 0
0.197038 0.007076 0.338686 0.975998 -0.000000 0.217778 199 159 0
0.194129 0.004982 0.351723 0.975998 -0.000000 0.217778 199 159 0
0.194129 -0.004982 0.351723 0.975998 -0.000000 0.217778 199 159 0
0.187412 0.016702 0.352299 0.842490 0.469887 0.263469 181 145 0
0.194129 0.004982 0.351723 0.842490 0.469887 0.263469 181 145 0
0.197038 0.007076 0.338686 0.842490 0.469887 0.263469 181 145 0
0.180336 0.009626 0.362306 0.641991 0.334006 0.690136 212 169 0
0.189147 0.000000 0.358768 0.641991 0.334006 0.690136 212 169 0
0.194129 0.004982 0.351723 0.641991 0.334006 0.690136 212 169 0
0.189147 0.000000 0.358768 0.816496 0.000000 0.577351 212 169 0
0.194129 -0.004982 0.351723 0.816496 0.000000 0.577351 212 169 0
0.194129 0.004982 0.351723 0.816496 0.000000 0.577351 212 169 0
-0.189987 -0.019277 0.338686 -0.865836 -0.500328 0.000000 181 145 0
-0.197038 -0.007076 0.338686 -0.865836 -0.500328 0.000000 181 145 0
-0.197038 -0.007076 0.097265 -0.865836 -0.500328 0.000000 181 145 0
-0.197038 -0.007076 0.097265 -1.000000 -0.000000 -0.000000 199 159 0
-0.197038 -0.007076 0.338686 -1.000000 -0.000000 -0.000000 199 159 0
-0.197038 0.007076 0.338686 -1.000000 -0.000000 -0.000000 199 159 0
-0.197038 0.007076 0.338686 -0.865836 0.500328 0.000000 181 145 0
-0.189987 0.019277 0.338686 -0.865836 0.500328 0.000000 181 145 0
-0.189987 0.019277 0.097265 -0.865836 0.500328 0.000000 181 145 0
0.000000 0.170710 0.365948 -0.182754 0.182754 0.966024 232 186 0
-0.009626 0.180336 0.362306 -0.182754 0.182754 0.966024 232 186 0
-0.180336 0.009626 0.362306 -0.182754 0.182754 0.966024 232 186 0
-0.009626 0.180336 0.362306 -0.499999 0.499999 0.707108 212 169 0
-0.016702 0.187412 0.352299 -0.499999 0.499999 0.707108 212 169 0
-0.187412 0.016702 0.352299 -0.499999 0.499999 0.707108 212 169 0
-0.187412 0.016702 0.352299 -0.683082 0.683082 0.258452 181 145 0
-0.016702 0.187412 0.352299 -0.683082 0.683082 0.258452 181 145 0
-0.019277 0.189987 0.338686 -0.683082 0.683082 0.258452 181 145 0
0.019277 0.189987 0.097265 0.500329 0.865835 0.000000 181 145 0
0.007076 0.197038 0.097265 0.500329 0.865835 0.000000 181 145 0
0.007076 0.197038 0.338686 0.500329 0.865835 0.000000 181 145 0
0.007076 0.197038 0.338686 0.000000 1.000000 0.000000 199 159 0
0.007076 0.197038 0.097265 0.000000 1.000000 0.000000 199 159 0
-0.007076 0.197038 0.097265 0.000000 1.000000 0.000000 199 159 0
-0.007076 0.197038 0.097265 -0.500329 0.865836 0.000000 181 145 0
-0.019277 0.189987 0.097265 -0.500329 0.865836 0.000000 181 145 0
-0.019277 0.189987 0.338686 -0.500329 0.865836 0.000000 181 145 0
-0.170710 0.000000 0.070004 -0.182754 0.182754 -0.966024 143 114 0
-0.180336 0.009626 0.073646 -0.182754 0.182754 -0.966024 143 114 0
-0.009626 0.180336 0.073646 -0.182754 0.182754 -0.966024 143 114 0
-0.180336 0.009626 0.073646 -0.500000 0.500000 -0.707107 158 126 0
-0.187412 0.016702 0.083652 -0.500000 0.500000 -0.707107 158 126 0
-0.016702 0.187412 0.083652 -0.500000 0.500000 -0.707107 158 126 0
-0.187412 0.016702 0.083652 -0.683082 0.683082 -0.258453 181 145 0
-0.189987 0.019277 0.097265 -0.683082 0.683082 -0.258453 181 145 0
-0.019277 0.189987 0.097265 -0.683082 0.683082 -0.258453 181 145 0
0.170710 0.000000 0.365948 0.182754 0.182754 0.966024 232 186 0
0.180336 0.009626 0.362306 0.182754 0.182754 0.966024 232 186 0
0.009626 0.180336 0.362306 0.182754 0.182754 0.966024 232 186 0
0.009626 0.180336 0.362306 0.500000 0.500000 0.707107 212 169 0
0.180336 0.009626 0.362306 0.500000 0.500000 0.707107 212 169 0
0.187412 0.016702 0.352299 0.500000 0.500000 0.707107 212 169 0
0.016702 0.187412 0.352299 0.683082 0.683082 0.258452 181 145 0
0.187412 0.016702 0.352299 0.683082 0.683082 0.258452 181 145 0
0.189987 0.019277 0.338686 0.683082 0.683082 0.258452 181 145 0
0.189987 -0.019277 0.097265 0.865836 -0.500329 0.000000 181 145 0
0.197038 -0.007076 0.097265 0.865836 -0.500329 0.000000 181 145 0
0.197038 -0.007076 0.338686 0.865836 -0.500329 0.000000 181 145 0
0.197038 -0.007076 0.338686 1.000000 0.000000 -0.000000 199 159 0
0.197038 -0.007076 0.097265 1.000000 0.000000 -0.000000 199 159 0
0.197038 0.007076 0.097265 1.000000 0.000000 -0.000000 199 159 0
0.197038 0.007076 0.338686 0.865835 0.500329 -0.000000 181 145 0
0.197038 0.007076 0.097265 0.865835 0.500329 -0.000000 181 145 0
0.189987 0.019277 0.097265 0.865835 0.500329 -0.000000 181 145 0
0.000000 0.170710 0.070004 0.182754 0.182754 -0.966024 143 114 0
0.009626 0.180336 0.073646 0.182754 0.182754 -0.966024 143 114 0
0.180336 0.009626 0.073646 0.182754 0.182754 -0.966024 143 114 0
0.180336 0.009626 0.073646 0.500000 0.500000 -0.707107 158 126 0
0.009626 0.180336 0.073646 0.500000 0.500000 -0.707107 158 126 0
0.016702 0.187412 0.083652 0.500000 0.500000 -0.707107 158 126 0
0.016702 0.187412 0.083652 0.683082 0.683082 -0.258452 181 145 0
0.019277 0.189987 0.097265 0.683082 0.683082 -0.258452 181 145 0
0.189987 0.019277 0.097265 0.683082 0.683082 -0.258452 181 145 0
0.170710 0.000000 0.365948 0.182754 -0.182754 0.966024 232 186 0
0.000000 -0.170710 0.365948 0.182754 -0.182754 0.966024 232 186 0
0.009626 -0.180336 0.362306 0.182754 -0.182754 0.966024 232 186 0
0.009626 -0.180336 0.362306 0.500000 -0.500000 0.707107 212 169 0
0.016702 -0.187412 0.352299 0.500000 -0.500000 0.707107 212 169 0
0.187412 -0.016702 0.352299 0.500000 -0.500000 0.707107 212 169 0
0.187412 -0.016702 0.352299 0.683082 -0.683082 0.258453 181 145 0
0.016702 -0.187412 0.352299 0.683082 -0.683082 0.258453 181 145 0
0.019277 -0.189987 0.338686 0.683082 -0.683082 0.258453 181 145 0
-0.019277 -0.189987 0.338686 -0.500328 -0.865836 0.000000 181 145 0
-0.019277 -0.189987 0.097265 -0.500328 -0.865836 0.000000 181 145 0
-0.007076 -0.197038 0.097265 -0.500328 -0.865836 0.000000 181 145 0
-0.007076 -0.197038 0.338686 0.000000 -1.000000 0.000000 199 159 0
-0.007076 -0.197038 0.097265 0.000000 -1.000000 0.000000 199 159 0
0.007076 -0.197038 0.097265 0.000000 -1.000000 0.000000 199 159 0
0.007076 -0.197038 0.097265 0.500328 -0.865836 0.000000 181 145 0
0.019277 -0.189987 0.097265 0.500328 -0.865836 0.000000 181 145 0
0.019277 -0.189987 0.338686 0.500328 -0.865836 0.000000 181 145 0
0.000000 -0.170710 0.070004 0.182754 -0.182754 -0.966024 143 114 0
0.170710 0.000000 0.070004 0.182754 -0.182754 -0.966024 143 114 0
0.180336 -0.009626 0.073646 0.182754 -0.182754 -0.966024 143 114 0
0.180336 -0.009626 0.073646 0.500000 -0.500000 -0.707107 158 126 0
0.187412 -0.016702 0.083652 0.500000 -0.500000 -0.707107 158 126 0
0.016702 -0.187412 0.083652 0.500000 -0.500000 -0.707107 158 126 0
0.187412 -0.016702 0.083652 0.683082 -0.683082 -0.258452 181 145 0
0.189987 -0.019277 0.097265 0.683082 -0.683082 -0.258452 181 145 0
0.019277 -0.189987 0.097265 0.683082 -0.683082 -0.258452 181 145 0
0.000000 -0.170710 0.365948 -0.182754 -0.182754 0.966024 232 186 0
-0.170710 0.000000 0.365948 -0.182754 -0.182754 0.966024 232 186 0
-0.180336 -0.009626 0.362306 -0.182754 -0.182754 0.966024 232 186 0
-0.009626 -0.180336 0.362306 -0.500000 -0.500000 0.707107 212 169 0
-0.180336 -0.009626 0.362306 -0.500000 -0.500000 0.707107 212 169 0
-0.187412 -0.016702 0.352299 -0.500000 -0.500000 0.707107 212 169 0
-0.016702 -0.187412 0.352299 -0.683082 -0.683082 0.258454 181 145 0
-0.187412 -0.016702 0.352299 -0.683082 -0.683082 0.258454 181 145 0
-0.189987 -0.019277 0.338686 -0.683082 -0.683082 0.258454 181 145 0
-0.170710 0.000000 0.070004 -0.182754 -0.182754 -0.966024 143 114 0
0.000000 -0.170710 0.070004 -0.182754 -0.182754 -0.966024 143 114 0
-0.009626 -0.180336 0.073646 -0.182754 -0.182754 -0.966024 143 114 0
-0.180336 -0.009626 0.073646 -0.500000 -0.500000 -0.707107 158 126 0
-0.009626 -0.180336 0.073646 -0.500000 -0.500000 -0.707107 158 126 0
-0.016702 -0.187412 0.083652 -0.500000 -0.500000 -0.707107 158 126 0
-0.016702 -0.187412 0.083652 -0.683082 -0.683082 -0.258453 181 145 0
-0.019277 -0.189987 0.097265 -0.683082 -0.683082 -0.258453 181 145 0
-0.189987 -0.019277 0.097265 -0.683082 -0.683082 -0.258453 181 145 0
-0.019277 0.189987 0.338686 -0.707107 0.707107 0.000000 171 137 0
-0.019277 0.189987 0.097265 -0.707107 0.707107 0.000000 171 137 0
-0.189987 0.019277 0.097265 -0.707107 0.707107 0.000000 171 137 0
0.000000 -0.170710 0.070004 -0.000000 -0.000000 -1.000000 130 104 0
0.189987 -0.019277 0.338686 0.707107 -0.707107 0.000000 171 137 0
-0.170710 0.000000 0.365948 0.000000 0.000000 1.000000 255 204 0
-0.019277 -0.189987 0.338686 -0.707107 -0.707107 0.000000 171 137 0
0.019277 0.189987 0.338686 0.707107 0.707107 0.000000 171 137 0
-0.189987 -0.019277 0.097265 -0.838290 -0.484410 -0.250232 181 145 0
-0.197038 -0.007076 0.097265 -0.838290 -0.484410 -0.250232 181 145 0
-0.187412 -0.016702 0.083652 -0.838290 -0.484410 -0.250232 181 145 0
-0.194129 -0.004982 0.084229 -0.975998 0.000000 -0.217778 199 159 0
-0.189987 0.019277 0.097265 -0.838290 0.484411 -0.250231 181 145 0
-0.187412 0.016702 0.083652 -0.838290 0.484411 -0.250231 181 145 0
-0.197038 0.007076 0.097265 -0.838290 0.484411 -0.250231 181 145 0
-0.194129 0.004982 0.084229 -0.641991 0.334006 -0.690136 158 126 0
-0.187412 0.016702 0.083652 -0.641991 0.334006 -0.690136 158 126 0
-0.189147 0.000000 0.077184 -0.641991 0.334006 -0.690136 158 126 0
-0.170710 0.000000 0.070004 -0.353879 -0.000000 -0.935291 143 114 0
-0.180336 -0.009626 0.073646 -0.353879 -0.000000 -0.935291 143 114 0
-0.180336 0.009626 0.073646 -0.353879 -0.000000 -0.935291 143 114 0
-0.180336 -0.009626 0.073646 -0.641992 -0.334006 -0.690135 158 126 0
-0.187412 -0.016702 0.083652 -0.641992 -0.334006 -0.690135 158 126 0
-0.189147 0.000000 0.077184 -0.641992 -0.334006 -0.690135 158 126 0
-0.189987 -0.019277 0.338686 -0.838291 -0.484410 0.250231 181 145 0
-0.187412 -0.016702 0.352299 -0.838291 -0.484410 0.250231 181 145 0
-0.197038 -0.007076 0.338686 -0.838291 -0.484410 0.250231 181 145 0
-0.194129 -0.004982 0.351723 -0.641991 -0.334007 0.690135 212 169 0
-0.170710 0.000000 0.365948 -0.353879 -0.000000 0.935291 232 186 0
-0.180336 0.009626 0.362306 -0.353879 -0.000000 0.935291 232 186 0
-0.180336 -0.009626 0.362306 -0.353879 -0.000000 0.935291 232 186 0
-0.180336 0.009626 0.362306 -0.641991 0.334007 0.690135 212 169 0
-0.187412 0.016702 0.352299 -0.641991 0.334007 0.690135 212 169 0
-0.189147 0.000000 0.358768 -0.641991 0.334007 0.690135 212 169 0
-0.189987 0.019277 0.338686 -0.838290 0.484411 0.250230 181 145 0
-0.197038 0.007076 0.338686 -0.838290 0.484411 0.250230 181 145 0
-0.187412 0.016702 0.352299 -0.838290 0.484411 0.250230 181 145 0
-0.197038 0.007076 0.338686 -0.975998 0.000000 0.217778 199 159 0
0.019277 0.189987 0.097265 0.484412 0.838290 -0.250230 181 145 0
0.016702 0.187412 0.083652 0.484412 0.838290 -0.250230 181 145 0
0.007076 0.197038 0.097265 0.484412 0.838290 -0.250230 181 145 0
0.004982 0.194129 0.084229 0.334006 0.641991 -0.690136 158 126 0
0.016702 0.187412 0.083652 0.334006 0.641991 -0.690136 158 126 0
0.000000 0.189147 0.077184 0.334006 0.641991 -0.690136 158 126 0
0.000000 0.170710 0.070004 0.000000 0.353879 -0.935291 143 114 0
-0.009626 0.180336 0.073646 0.000000 0.353879 -0.935291 143 114 0
0.009626 0.180336 0.073646 0.000000 0.353879 -0.935291 143 114 0
-0.009626 0.180336 0.073646 -0.334005 0.641992 -0.690135 158 126 0
-0.016702 0.187412 0.083652 -0.334005 0.641992 -0.690135 158 126 0
0.000000 0.189147 0.077184 -0.334005 0.641992 -0.690135 158 126 0
-0.019277 0.189987 0.097265 -0.484411 0.838290 -0.250230 181 145 0
-0.007076 0.197038 0.097265 -0.484411 0.838290 -0.250230 181 145 0
-0.016702 0.187412 0.083652 -0.484411 0.838290 -0.250230 181 145 0
-0.004982 0.194129 0.084229 0.000000 0.975998 -0.217778 199 159 0
0.000000 0.170710 0.365948 -0.000000 0.353879 0.935291 232 186 0
0.009626 0.180336 0.362306 -0.000000 0.353879 0.935291 232 186 0
-0.009626 0.180336 0.362306 -0.000000 0.353879 0.935291 232 186 0
0.000000 0.189147 0.358768 0.334007 0.641991 0.690136 212 169 0
0.009626 0.180336 0.362306 0.334007 0.641991 0.690136 212 169 0
0.004982 0.194129 0.351723 0.334007 0.641991 0.690136 212 169 0
0.019277 0.189987 0.338686 0.484412 0.838290 0.250229 181 145 0
0.007076 0.197038 0.338686 0.484412 0.838290 0.250229 181 145 0
0.016702 0.187412 0.352299 0.484412 0.838290 0.250229 181 145 0
0.004982 0.194129 0.351723 0.000000 0.975998 0.217778 199 159 0
-0.019277 0.189987 0.338686 -0.484411 0.838290 0.250230 181 145 0
-0.016702 0.187412 0.352299 -0.484411 0.838290 0.250230 181 145 0
-0.007076 0.197038 0.338686 -0.484411 0.838290 0.250230 181 145 0
-0.004982 0.194129 0.351723 -0.334006 0.641991 0.690136 212 169 0
-0.016702 0.187412 0.352299 -0.334006 0.641991 0.690136 212 169 0
0.000000 0.189147 0.358768 -0.334006 0.641991 0.690136 212 169 0
-0.019277 -0.189987 0.097265 -0.484410 -0.838291 -0.250231 181 145 0
-0.016702 -0.187412 0.083652 -0.484410 -0.838291 -0.250231 181 145 0
-0.007076 -0.197038 0.097265 -0.484410 -0.838291 -0.250231 181 145 0
-0.004982 -0.194129 0.084229 -0.334006 -0.641991 -0.690136 158 126 0
-0.016702 -0.187412 0.083652 -0.334006 -0.641991 -0.690136 158 126 0
0.000000 -0.189147 0.077184 -0.334006 -0.641991 -0.690136 158 126 0
0.000000 -0.170710 0.070004 -0.000000 -0.353880 -0.935291 143 114 0
0.009626 -0.180336 0.073646 -0.000000 -0.353880 -0.935291 143 114 0
-0.009626 -0.180336 0.073646 -0.000000 -0.353880 -0.935291 143 114 0
0.009626 -0.180336 0.073646 0.334005 -0.641993 -0.690135 158 126 0
0.016702 -0.187412 0.083652 0.334005 -0.641993 -0.690135 158 126 0
0.000000 -0.189147 0.077184 0.334005 -0.641993 -0.690135 158 126 0
0.019277 -0.189987 0.097265 0.484411 -0.838290 -0.250231 181 145 0
0.007076 -0.197038 0.097265 0.484411 -0.838290 -0.250231 181 145 0
0.016702 -0.187412 0.083652 0.484411 -0.838290 -0.250231 181 145 0
0.007076 -0.197038 0.097265 0.000000 -0.975998 -0.217778 199 159 0
0.000000 -0.170710 0.365948 -0.000000 -0.353880 0.935291 232 186 0
-0.009626 -0.180336 0.362306 -0.000000 -0.353880 0.935291 232 186 0
0.009626 -0.180336 0.362306 -0.000000 -0.353880 0.935291 232 186 0
0.000000 -0.189147 0.358768 -0.334007 -0.641991 0.690136 212 169 0
-0.009626 -0.180336 0.362306 -0.334007 -0.641991 0.690136 212 169 0
-0.004982 -0.194129 0.351723 -0.334007 -0.641991 0.690136 212 169 0
-0.019277 -0.189987 0.338686 -0.484410 -0.838291 0.250231 181 145 0
-0.007076 -0.197038 0.338686 -0.484410 -0.838291 0.250231 181 145 0
-0.016702 -0.187412 0.352299 -0.484410 -0.838291 0.250231 181 145 0
-0.004982 -0.194129 0.351723 0.000000 -0.975998 0.217778 199 159 0
0.019277 -0.189987 0.338686 0.484411 -0.838290 0.250230 181 145 0
0.016702 -0.187412 0.352299 0.484411 -0.838290 0.250230 181 145 0
0.007076 -0.197038 0.338686 0.484411 -0.838290 0.250230 181 145 0
0.004982 -0.194129 0.351723 0.334007 -0.641991 0.690136 212 169 0
0.016702 -0.187412 0.352299 0.334007 -0.641991 0.690136 212 169 0
0.000000 -0.189147 0.358768 0.334007 -0.641991 0.690136 212 169 0
0.189987 -0.019277 0.097265 0.838290 -0.484411 -0.250230 181 145 0
0.187412 -0.016702 0.083652 0.838290 -0.484411 -0.250230 181 145 0
0.197038 -0.007076 0.097265 0.838290 -0.484411 -0.250230 181 145 0
0.194129 -0.004982 0.084229 0.641991 -0.334006 -0.690136 158 126 0
0.187412 -0.016702 0.083652 0.641991 -0.334006 -0.690136 158 126 0
0.189147 0.000000 0.077184 0.641991 -0.334006 -0.690136 158 126 0
0.170710 0.000000 0.070004 0.353879 -0.000000 -0.935291 143 114 0
0.180336 0.009626 0.073646 0.353879 -0.000000 -0.935291 143 114 0
0.180336 -0.009626 0.073646 0.353879 -0.000000 -0.935291 143 114 0
0.180336 0.009626 0.073646 0.641993 0.334005 -0.690135 158 126 0
0.187412 0.016702 0.083652 0.641993 0.334005 -0.690135 158 126 0
0.189147 0.000000 0.077184 0.641993 0.334005 -0.690135 158 126 0
0.189987 0.019277 0.097265 0.838290 0.484412 -0.250230 181 145 0
0.197038 0.007076 0.097265 0.838290 0.484412 -0.250230 181 145 0
0.187412 0.016702 0.083652 0.838290 0.484412 -0.250230 181 145 0
0.194129 0.004982 0.084229 0.975998 0.000000 -0.217778 199 159 0
0.170710 0.000000 0.365948 0.353879 -0.000000 0.935291 232 186 0
0.180336 -0.009626 0.362306 0.353879 -0.000000 0.935291 232 186 0
0.180336 0.009626 0.362306 0.353879 -0.000000 0.935291 232 186 0
0.180336 -0.009626 0.362306 0.641991 -0.334007 0.690136 212 169 0
0.187412 -0.016702 0.352299 0.641991 -0.334007 0.690136 212 169 0
0.189147 0.000000 0.358768 0.641991 -0.334007 0.690136 212 169 0
0.189987 -0.019277 0.338686 0.838290 -0.484411 0.250230 181 145 0
0.197038 -0.007076 0.338686 0.838290 -0.484411 0.250230 181 145 0
0.187412 -0.016702 0.352299 0.838290 -0.484411 0.250230 181 145 0
0.197038 -0.007076 0.338686 0.975998 0.000000 0.217778 199 159 0
0.189987 0.019277 0.338686 0.838290 0.484412 0.250229 181 145 0
0.187412 0.016702 0.352299 0.838290 0.484412 0.250229 181 145 0
0.197038 0.007076 0.338686 0.838290 0.484412 0.250229 181 145 0
0.187412 0.016702 0.352299 0.641991 0.334007 0.690135 212 169 0
0.180336 0.009626 0.362306 0.641991 0.334007 0.690135 212 169 0
0.194129 0.004982 0.351723 0.641991 0.334007 0.690135 212 169 0
-0.189987 -0.019277 0.097265 -0.865836 -0.500328 -0.000000 181 145 0
-0.197038 0.007076 0.097265 -1.000000 0.000000 -0.000000 199 159 0
-0.197038 0.007076 0.097265 -0.865836 0.500328 0.000000 181 145 0
-0.170710 0.000000 0.365948 -0.182754 0.182754 0.966024 232 186 0
-0.180336 0.009626 0.362306 -0.500000 0.500000 0.707107 212 169 0
-0.009626 0.180336 0.362306 -0.500000 0.500000 0.707107 212 169 0
-0.187412 0.016702 0.352299 -0.500000 0.500000 0.707107 212 169 0
-0.189987 0.019277 0.338686 -0.683082 0.683082 0.258453 181 145 0
-0.187412 0.016702 0.352299 -0.683082 0.683082 0.258453 181 145 0
-0.019277 0.189987 0.338686 -0.683082 0.683082 0.258453 181 145 0
0.019277 0.189987 0.338686 0.500329 0.865835 -0.000000 181 145 0
-0.007076 0.197038 0.338686 0.000000 1.000000 -0.000000 199 159 0
-0.007076 0.197038 0.338686 -0.500329 0.865836 0.000000 181 145 0
0.000000 0.170710 0.070004 -0.182754 0.182754 -0.966024 143 114 0
-0.009626 0.180336 0.073646 -0.500000 0.500000 -0.707107 158 126 0
-0.016702 0.187412 0.083652 -0.683082 0.683082 -0.258452 181 145 0
-0.187412 0.016702 0.083652 -0.683082 0.683082 -0.258452 181 145 0
-0.019277 0.189987 0.097265 -0.683082 0.683082 -0.258452 181 145 0
0.000000 0.170710 0.365948 0.182754 0.182754 0.966024 232 186 0
0.016702 0.187412 0.352299 0.499999 0.499999 0.707108 212 169 0
0.009626 0.180336 0.362306 0.499999 0.499999 0.707108 212 169 0
0.187412 0.016702 0.352299 0.499999 0.499999 0.707108 212 169 0
0.019277 0.189987 0.338686 0.683082 0.683082 0.258452 181 145 0
0.189987 -0.019277 0.338686 0.865836 -0.500329 0.000000 181 145 0
0.197038 0.007076 0.338686 1.000000 0.000000 -0.000000 199 159 0
0.189987 0.019277 0.338686 0.865835 0.500329 0.000000 181 145 0
0.170710 0.000000 0.070004 0.182754 0.182754 -0.966024 143 114 0
0.187412 0.016702 0.083652 0.500000 0.500000 -0.707107 158 126 0
0.187412 0.016702 0.083652 0.683082 0.683082 -0.258452 181 145 0
0.180336 -0.009626 0.362306 0.182754 -0.182754 0.966024 232 186 0
0.180336 -0.009626 0.362306 0.499999 -0.499999 0.707108 212 169 0
0.009626 -0.180336 0.362306 0.499999 -0.499999 0.707108 212 169 0
0.187412 -0.016702 0.352299 0.499999 -0.499999 0.707108 212 169 0
0.189987 -0.019277 0.338686 0.683082 -0.683082 0.258452 181 145 0
0.187412 -0.016702 0.352299 0.683082 -0.683082 0.258452 181 145 0
0.019277 -0.189987 0.338686 0.683082 -0.683082 0.258452 181 145 0
-0.007076 -0.197038 0.338686 -0.500328 -0.865836 0.000000 181 145 0
0.007076 -0.197038 0.338686 0.000000 -1.000000 0.000000 199 159 0
0.007076 -0.197038 0.338686 0.500328 -0.865836 0.000000 181 145 0
0.009626 -0.180336 0.073646 0.182754 -0.182754 -0.966024 143 114 0
0.009626 -0.180336 0.073646 0.500000 -0.500000 -0.707107 158 126 0
0.016702 -0.187412 0.083652 0.683082 -0.683082 -0.258453 181 145 0
0.187412 -0.016702 0.083652 0.683082 -0.683082 -0.258453 181 145 0
0.019277 -0.189987 0.097265 0.683082 -0.683082 -0.258453 181 145 0
-0.009626 -0.180336 0.362306 -0.182754 -0.182754 0.966024 232 186 0
-0.016702 -0.187412 0.352299 -0.499999 -0.499999 0.707108 212 169 0
-0.009626 -0.180336 0.362306 -0.499999 -0.499999 0.707108 212 169 0
-0.187412 -0.016702 0.352299 -0.499999 -0.499999 0.707108 212 169 0
-0.019277 -0.189987 0.338686 -0.683082 -0.683082 0.258453 181 145 0
-0.016702 -0.187412 0.352299 -0.683082 -0.683082 0.258453 181 145 0
-0.189987 -0.019277 0.338686 -0.683082 -0.683082 0.258453 181 145 0
-0.180336 -0.009626 0.073646 -0.182754 -0.182754 -0.966024 143 114 0
-0.187412 -0.016702 0.083652 -0.500000 -0.500000 -0.707107 158 126 0
-0.187412 -0.016702 0.083652 -0.683082 -0.683082 -0.258454 181 145 0
-0.016702 -0.187412 0.083652 -0.683082 -0.683082 -0.258454 181 145 0
-0.189987 -0.019277 0.097265 -0.683082 -0.683082 -0.258454 181 145 0
-0.189987 0.019277 0.338686 -0.707107 0.707107 0.000000 171 137 0
3 0 1 2
3 3 4 5
3 6 7 8
3 9 10 11
3 12 13 14
3 15 16 17
3 18 19 20
3 21 22 23
3 24 25 26
3 27 28 29
3 30 31 32
3 33 34 35
3 36 37 38
3 39 40 41
3 42 43 44
3 45 46 47
3 48 49 50
3 51 52 53
3 54 55 56
3 57 58 59
3 60 61 62
3 63 64 65
3 66 67 68
3 69 70 71
3 72 73 74
3 75 76 77
3 78 79 80
3 81 82 83
3 84 85 86
3 87 88 89
3 90 91 92
3 93 94 95
3 96 97 98
3 99 100 101
3 102 103 104
3 105 106 107
3 108 109 110
3 111 112 113
3 114 115 116
3 117 118 119
3 120 121 122
3 123 124 125
3 126 127 128
3 129 130 131
3 132 133 134
3 135 136 137
3 138 139 140
3 141 142 143
3 144 145 146
3 147 148 149
3 150 151 152
3 153 154 155
3 156 157 158
3 159 160 161
3 162 163 164
3 165 166 167
3 168 169 170
3 171 172 173
3 174 175 176
3 177 178 179
3 180 181 182
3 183 184 185
3 186 187 188
3 189 190 191
3 192 193 194
3 195 196 197
3 198 199 200
3 201 202 203
3 204 205 206
3 207 208 209
3 210 211 212
3 213 214 215
3 216 217 218
3 219 220 221
3 222 223 224
3 225 226 227
3 228 229 230
3 231 232 233
3 234 235 236
3 237 238 239
3 240 241 242
3 243 244 245
3 246 247 248
3 249 250 251
3 252 253 254
3 255 256 257
3 258 259 260
3 261 262 263
3 264 265 266
3 267 268 269
3 270 271 272
3 273 274 275
3 276 277 278
3 279 280 281
3 282 283 284
3 285 286 287
3 288 289 290
3 291 292 293
3 294 0 2
3 295 3 5
3 296 6 8
3 297 9 11
3 298 12 14
3 299 300 301
3 302 18 20
3 303 304 305
3 306 307 308
3 309 310 311
3 312 313 314
3 315 316 317
3 318 39 41
3 319 320 321
3 322 323 324
3 325 326 327
3 328 51 53
3 329 330 331
3 332 333 334
3 335 336 337
3 338 339 340
3 341 342 343
3 344 72 74
3 345 346 347
3 348 349 350
3 351 352 353
3 354 87 89
3 355 356 357
3 358 359 360
3 361 362 363
3 364 365 366
3 367 368 369
3 370 371 372
3 373 374 375
3 376 114 116
3 377 378 379
3 380 381 382
3 383 384 385
3 386 129 131
3 387 388 389
3 390 391 392
3 393 394 395
3 396 397 398
3 399 400 401
3 402 403 404
3 405 406 407
3 408 156 158
3 409 410 411
3 412 413 414
3 415 416 417
3 418 171 173
3 419 420 421
3 422 423 424
3 425 183 185
3 426 186 188
3 427 189 191
3 428 192 194
3 429 430 431
3 432 433 434
3 435 201 203
3 436 204 206
3 437 207 209
3 438 210 212
3 439 213 215
3 440 441 442
3 443 219 221
3 444 445 446
3 447 225 227
3 448 228 230
3 449 231 233
3 450 234 236
3 451 237 239
3 452 240 242
3 453 243 245
3 454 246 248
3 455 456 457
3 458 459 460
3 461 255 257
3 462 258 260
3 463 261 263
3 464 264 266
3 465 267 269
3 466 467 468
3 469 273 275
3 470 471 472
3 473 474 475
3 476 282 284
3 477 285 287
3 478 479 480
3 481 291 293
