ply
format ascii 1.0
comment Created by Blender 2.76 (sub 0) - www.blender.org, source file: 'Indoor_A.blend'
element vertex 24
property float x
property float y
property float z
property float nx
property float ny
property float nz
property uchar red
property uchar green
property uchar blue
element face 10
property list uchar uint vertex_indices
end_header
1.000000 1.000000 -0.600000 -0.000000 0.000000 1.000000 40 40 40
-1.000000 1.000000 -0.600000 -0.000000 0.000000 1.000000 40 40 40
-1.000000 -1.000000 -0.600000 -0.000000 0.000000 1.000000 40 40 40
1.000000 -1.000000 -0.600000 -1.000000 0.000001 -0.000001 40 40 40
0.999999 -1.000001 0.000000 -1.000000 0.000001 -0.000001 40 40 40
1.000000 0.999999 0.000000 -1.000000 0.000001 -0.000001 40 40 40
-1.000000 -1.000000 -0.600000 0.000000 1.000000 -0.000000 40 40 40
-1.000000 -1.000000 0.000000 0.000000 1.000000 -0.000000 40 40 40
0.999999 -1.000001 0.000000 0.000000 1.000000 -0.000000 40 40 40
-1.000000 -1.000000 -0.600000 1.000000 -0.000000 0.000000 40 40 40
-1.000000 1.000000 -0.600000 1.000000 -0.000000 0.000000 40 40 40
-1.000000 1.000000 0.000000 1.000000 -0.000000 0.000000 40 40 40
-1.000000 1.000000 0.000000 -0.000000 -1.000000 -0.000001 40 40 40
-1.000000 1.000000 -0.600000 -0.000000 -1.000000 -0.000001 40 40 40
1.000000 1.000000 -0.600000 -0.000000 -1.000000 -0.000001 40 40 40
1.000000 -1.000000 -0.600000 -0.000000 0.000000 1.000000 40 40 40
1.000000 1.000000 -0.600000 -1.000000 0.000000 0.000001 40 40 40
1.000000 -1.000000 -0.600000 -1.000000 0.000000 0.000001 40 40 40
1.000000 0.999999 0.000000 -1.000000 0.000000 0.000001 40 40 40
1.000000 -1.000000 -0.600000 0.000000 1.000000 0.000001 40 40 40
-1.000000 -1.000000 -0.600000 0.000000 1.000000 0.000001 40 40 40
0.999999 -1.000001 0.000000 0.000000 1.000000 0.000001 40 40 40
-1.000000 -1.000000 0.000000 1.000000 -0.000000 0.000000 40 40 40
1.000000 0.999999 0.000000 -0.000000 -1.000000 -0.000001 40 40 40
3 0 1 2
3 3 4 5
3 6 7 8
3 9 10 11
3 12 13 14
3 15 0 2
3 16 17 18
3 19 20 21
3 22 9 11
3 23 12 14
