ply
format ascii 1.0
comment Created by Blender 2.76 (sub 0) - www.blender.org, source file: 'LightBeam_A.blend'
element vertex 638
property float x
property float y
property float z
property float nx
property float ny
property float nz
property uchar red
property uchar green
property uchar blue
element face 214
property list uchar uint vertex_indices
end_header
-0.029177 0.094973 0.133636 -0.188743 0.713859 0.674375 255 153 0
0.129951 0.000049 0.278654 -0.188743 0.713859 0.674375 255 153 0
0.101667 0.028333 0.240798 -0.188743 0.713859 0.674375 255 153 0
0.035027 0.159177 0.133636 -0.097435 0.600436 0.793715 255 153 0
0.017409 0.167747 0.124989 -0.097435 0.600436 0.793715 255 153 0
0.101667 0.028333 0.240798 -0.097435 0.600436 0.793715 255 153 0
0.028564 0.249712 0.119665 -0.310703 -0.028580 0.950077 255 153 0
0.042575 0.275630 0.125027 -0.310703 -0.028580 0.950077 255 153 0
0.024509 0.268049 0.118891 -0.310703 -0.028580 0.950077 255 153 0
-0.060288 0.338564 0.119665 -0.031913 -0.324854 0.945226 255 153 0
-0.065050 0.319559 0.112973 -0.031913 -0.324854 0.945226 255 153 0
-0.041951 0.334509 0.118891 -0.031913 -0.324854 0.945226 255 153 0
-0.215027 0.280823 0.133636 0.097434 -0.600437 0.793714 255 153 0
-0.197409 0.272253 0.124989 0.097434 -0.600437 0.793714 255 153 0
-0.281667 0.411667 0.240798 0.097434 -0.600437 0.793714 255 153 0
-0.222575 0.164370 0.125027 0.541059 -0.008490 0.840942 255 153 0
-0.508431 -0.198431 0.305283 0.541059 -0.008490 0.840942 255 153 0
-0.430649 -0.120649 0.256023 0.541059 -0.008490 0.840942 255 153 0
0.042575 0.275630 0.125027 -0.541060 0.008491 0.840941 255 153 0
0.328431 0.638431 0.305283 -0.541060 0.008491 0.840941 255 153 0
0.250650 0.560650 0.256023 -0.541060 0.008491 0.840941 255 153 0
-0.056687 0.105522 0.123285 -0.211324 0.345854 0.914181 255 153 0
-0.029177 0.094973 0.133636 -0.211324 0.345854 0.914181 255 153 0
-0.037747 0.112591 0.124989 -0.211324 0.345854 0.914181 255 153 0
-0.088479 0.107791 0.118360 -0.118244 0.355712 0.927086 255 153 0
-0.056687 0.105522 0.123285 -0.118244 0.355712 0.927086 255 153 0
-0.062161 0.124333 0.115370 -0.118244 0.355712 0.927086 255 153 0
-0.091521 0.332209 0.118360 0.022301 -0.351858 0.935787 255 153 0
-0.091255 0.312619 0.110988 0.022301 -0.351858 0.935787 255 153 0
-0.065050 0.319559 0.112973 0.022301 -0.351858 0.935787 255 153 0
-0.204479 0.253313 0.123286 0.328198 -0.205437 0.921999 255 153 0
-0.185667 0.247839 0.115370 0.328198 -0.205437 0.921999 255 153 0
-0.197409 0.272253 0.124989 0.328198 -0.205437 0.921999 255 153 0
-0.034370 0.352575 0.125027 -0.286030 -0.198389 0.937459 255 153 0
-0.041951 0.334509 0.118891 -0.286030 -0.198389 0.937459 255 153 0
0.250650 0.560650 0.256023 -0.286030 -0.198389 0.937459 255 153 0
-0.150824 0.345027 0.133636 0.188744 -0.713858 0.674375 255 153 0
-0.309951 0.439951 0.278654 0.188744 -0.713858 0.674375 255 153 0
-0.281667 0.411667 0.240798 0.188744 -0.713858 0.674375 255 153 0
-0.088479 0.107791 0.118360 -0.022301 0.351859 0.935787 255 153 0
-0.088744 0.127381 0.110988 -0.022301 0.351859 0.935787 255 153 0
-0.114950 0.120441 0.112973 -0.022301 0.351859 0.935787 255 153 0
0.024478 0.186687 0.123285 -0.328198 0.205437 0.921999 255 153 0
0.005667 0.192161 0.115370 -0.328198 0.205437 0.921999 255 153 0
0.017409 0.167747 0.124989 -0.328198 0.205437 0.921999 255 153 0
0.022209 0.218479 0.118360 -0.348593 0.113394 0.930390 255 153 0
0.002619 0.218744 0.110988 -0.348593 0.113394 0.930390 255 153 0
0.005667 0.192161 0.115370 -0.348593 0.113394 0.930390 255 153 0
-0.202209 0.221521 0.118360 0.348593 -0.113393 0.930390 255 153 0
-0.182619 0.221255 0.110988 0.348593 -0.113393 0.930390 255 153 0
-0.185667 0.247839 0.115370 0.348593 -0.113393 0.930390 255 153 0
-0.145630 0.087425 0.125027 0.286032 0.198388 0.937458 255 153 0
-0.138049 0.105491 0.118891 0.286032 0.198388 0.937458 255 153 0
-0.430649 -0.120649 0.256023 0.286032 0.198388 0.937458 255 153 0
-0.091521 0.332209 0.118360 0.118244 -0.355712 0.927085 255 153 0
-0.123313 0.334478 0.123286 0.118244 -0.355712 0.927085 255 153 0
-0.117839 0.315667 0.115370 0.118244 -0.355712 0.927085 255 153 0
-0.119712 0.101436 0.119665 0.031914 0.324853 0.945226 255 153 0
-0.114950 0.120441 0.112973 0.031914 0.324853 0.945226 255 153 0
-0.138049 0.105491 0.118891 0.031914 0.324853 0.945226 255 153 0
-0.123313 0.334478 0.123286 0.211324 -0.345855 0.914181 255 153 0
-0.150824 0.345027 0.133636 0.211324 -0.345855 0.914181 255 153 0
-0.142253 0.327409 0.124989 0.211324 -0.345855 0.914181 255 153 0
0.022209 0.218479 0.118360 -0.338592 0.029594 0.940468 255 153 0
0.028564 0.249712 0.119665 -0.338592 0.029594 0.940468 255 153 0
0.009559 0.244950 0.112973 -0.338592 0.029594 0.940468 255 153 0
-0.202209 0.221521 0.118360 0.338591 -0.029594 0.940468 255 153 0
-0.208564 0.190288 0.119665 0.338591 -0.029594 0.940468 255 153 0
-0.189560 0.195050 0.112973 0.338591 -0.029594 0.940468 255 153 0
-0.208564 0.190288 0.119665 0.310703 0.028580 0.950077 255 153 0
-0.222575 0.164370 0.125027 0.310703 0.028580 0.950077 255 153 0
-0.204510 0.171951 0.118891 0.310703 0.028580 0.950077 255 153 0
-0.065050 0.319559 0.112973 -0.038417 -0.324093 0.945245 255 204 51
-0.078088 0.294428 0.103826 -0.038417 -0.324093 0.945245 255 204 51
-0.061315 0.304697 0.108029 -0.038417 -0.324093 0.945245 255 204 51
-0.197409 0.272253 0.124989 0.222610 -0.514088 0.828347 255 204 51
-0.176785 0.268195 0.116928 0.222610 -0.514088 0.828347 255 204 51
-0.256750 0.386750 0.211996 0.222610 -0.514088 0.828347 255 204 51
-0.204510 0.171951 0.118891 0.348758 0.163006 0.922928 255 204 51
-0.430649 -0.120649 0.256023 0.348758 0.163006 0.922928 255 204 51
-0.335268 -0.025268 0.203134 0.348758 0.163006 0.922928 255 204 51
0.024509 0.268049 0.118891 -0.348758 -0.163006 0.922928 255 204 51
0.250650 0.560650 0.256023 -0.348758 -0.163006 0.922928 255 204 51
0.155268 0.465268 0.203134 -0.348758 -0.163006 0.922928 255 204 51
-0.062161 0.124333 0.115370 -0.210253 0.319731 0.923886 255 204 51
-0.037747 0.112591 0.124989 -0.210253 0.319731 0.923886 255 204 51
-0.041805 0.133215 0.116928 -0.210253 0.319731 0.923886 255 204 51
-0.088744 0.127381 0.110988 -0.116014 0.333307 0.935653 255 204 51
-0.062161 0.124333 0.115370 -0.116014 0.333307 0.935653 255 204 51
-0.061707 0.144560 0.108220 -0.116014 0.333307 0.935653 255 204 51
-0.091255 0.312619 0.110988 0.038708 -0.341661 0.939026 255 204 51
-0.097635 0.290856 0.103332 0.038708 -0.341661 0.939026 255 204 51
-0.078088 0.294428 0.103826 0.038708 -0.341661 0.939026 255 204 51
-0.185667 0.247839 0.115370 0.329776 -0.214294 0.919416 255 204 51
-0.165440 0.248293 0.108221 0.329776 -0.214294 0.919416 255 204 51
-0.176785 0.268195 0.116928 0.329776 -0.214294 0.919416 255 204 51
-0.041951 0.334509 0.118891 -0.306716 -0.143588 0.940908 255 204 51
-0.061315 0.304697 0.108029 -0.306716 -0.143588 0.940908 255 204 51
0.155268 0.465268 0.203134 -0.306716 -0.143588 0.940908 255 204 51
-0.142253 0.327409 0.124989 0.249702 -0.614933 0.748001 255 204 51
-0.281667 0.411667 0.240798 0.249702 -0.614933 0.748001 255 204 51
-0.256750 0.386750 0.211996 0.249702 -0.614933 0.748001 255 204 51
-0.088744 0.127381 0.110988 -0.038708 0.341661 0.939026 255 204 51
-0.082365 0.149144 0.103332 -0.038708 0.341661 0.939026 255 204 51
-0.101912 0.145572 0.103826 -0.038708 0.341661 0.939026 255 204 51
0.005667 0.192161 0.115370 -0.329776 0.214294 0.919416 255 204 51
-0.014560 0.191707 0.108220 -0.329776 0.214294 0.919416 255 204 51
-0.003215 0.171805 0.116928 -0.329776 0.214294 0.919416 255 204 51
0.002619 0.218744 0.110988 -0.364232 0.137147 0.921155 255 204 51
-0.019144 0.212365 0.103332 -0.364232 0.137147 0.921155 255 204 51
-0.014560 0.191707 0.108220 -0.364232 0.137147 0.921155 255 204 51
-0.182619 0.221255 0.110988 0.364232 -0.137146 0.921155 255 204 51
-0.160856 0.227635 0.103332 0.364232 -0.137146 0.921155 255 204 51
-0.165440 0.248293 0.108221 0.364232 -0.137146 0.921155 255 204 51
-0.138049 0.105491 0.118891 0.306717 0.143588 0.940908 255 204 51
-0.118685 0.135303 0.108029 0.306717 0.143588 0.940908 255 204 51
-0.335268 -0.025268 0.203134 0.306717 0.143588 0.940908 255 204 51
-0.091255 0.312619 0.110988 0.116014 -0.333307 0.935653 255 204 51
-0.117839 0.315667 0.115370 0.116014 -0.333307 0.935653 255 204 51
-0.118293 0.295440 0.108220 0.116014 -0.333307 0.935653 255 204 51
-0.114950 0.120441 0.112973 0.038417 0.324093 0.945245 255 204 51
-0.101912 0.145572 0.103826 0.038417 0.324093 0.945245 255 204 51
-0.118685 0.135303 0.108029 0.038417 0.324093 0.945245 255 204 51
-0.117839 0.315667 0.115370 0.210254 -0.319730 0.923886 255 204 51
-0.142253 0.327409 0.124989 0.210254 -0.319730 0.923886 255 204 51
-0.138195 0.306785 0.116928 0.210254 -0.319730 0.923886 255 204 51
0.002619 0.218744 0.110988 -0.352155 0.022389 0.935674 255 204 51
0.009559 0.244950 0.112973 -0.352155 0.022389 0.935674 255 204 51
-0.015572 0.231912 0.103826 -0.352155 0.022389 0.935674 255 204 51
-0.182619 0.221255 0.110988 0.352155 -0.022388 0.935674 255 204 51
-0.189560 0.195050 0.112973 0.352155 -0.022388 0.935674 255 204 51
-0.164428 0.208088 0.103826 0.352155 -0.022388 0.935674 255 204 51
-0.189560 0.195050 0.112973 0.322991 0.033270 0.945817 255 204 51
-0.204510 0.171951 0.118891 0.322991 0.033270 0.945817 255 204 51
-0.174697 0.191315 0.108029 0.322991 0.033270 0.945817 255 204 51
-0.037747 0.112591 0.124989 -0.249699 0.614936 0.748000 255 204 51
0.101667 0.028333 0.240798 -0.249699 0.614936 0.748000 255 204 51
0.076750 0.053250 0.211996 -0.249699 0.614936 0.748000 255 204 51
0.017409 0.167747 0.124989 -0.222609 0.514088 0.828347 255 204 51
-0.003215 0.171805 0.116928 -0.222609 0.514088 0.828347 255 204 51
0.076750 0.053250 0.211996 -0.222609 0.514088 0.828347 255 204 51
0.009559 0.244950 0.112973 -0.322990 -0.033271 0.945817 255 204 51
0.024509 0.268049 0.118891 -0.322990 -0.033271 0.945817 255 204 51
-0.005303 0.248685 0.108029 -0.322990 -0.033271 0.945817 255 204 51
-0.014560 0.191707 0.108220 -0.312733 0.248457 0.916770 255 255 0
-0.034370 0.187548 0.102590 -0.312733 0.248457 0.916770 255 255 0
-0.024528 0.173124 0.109857 -0.312733 0.248457 0.916770 255 255 0
-0.019144 0.212365 0.103332 -0.360325 0.193780 0.912478 255 255 0
-0.040466 0.201972 0.097120 -0.360325 0.193780 0.912478 255 255 0
-0.034370 0.187548 0.102590 -0.360325 0.193780 0.912478 255 255 0
-0.160856 0.227635 0.103332 0.360326 -0.193779 0.912477 255 255 0
-0.139533 0.238028 0.097119 0.360326 -0.193779 0.912477 255 255 0
-0.145630 0.252452 0.102590 0.360326 -0.193779 0.912477 255 255 0
-0.118685 0.135303 0.108029 0.277495 0.157287 0.947764 255 255 0
-0.094046 0.168887 0.095241 0.277495 0.157287 0.947764 255 255 0
-0.257244 0.052756 0.162297 0.277495 0.157287 0.947764 255 255 0
-0.097635 0.290856 0.103332 0.156051 -0.300223 0.941018 255 255 0
-0.118293 0.295440 0.108220 0.156051 -0.300223 0.941018 255 255 0
-0.122452 0.275630 0.102590 0.156051 -0.300223 0.941018 255 255 0
-0.101912 0.145572 0.103826 -0.060577 0.362830 0.929884 255 255 0
-0.084642 0.171890 0.094682 -0.060577 0.362830 0.929884 255 255 0
-0.094046 0.168887 0.095241 -0.060577 0.362830 0.929884 255 255 0
-0.118293 0.295440 0.108220 0.238435 -0.292523 0.926055 255 255 0
-0.138195 0.306785 0.116928 0.238435 -0.292523 0.926055 255 255 0
-0.136877 0.285472 0.109857 0.238435 -0.292523 0.926055 255 255 0
-0.019144 0.212365 0.103332 -0.351605 0.040621 0.935267 255 255 0
-0.015572 0.231912 0.103826 -0.351605 0.040621 0.935267 255 255 0
-0.041890 0.214642 0.094682 -0.351605 0.040621 0.935267 255 255 0
-0.160856 0.227635 0.103332 0.351604 -0.040620 0.935267 255 255 0
-0.164428 0.208088 0.103826 0.351604 -0.040620 0.935267 255 255 0
-0.138110 0.225358 0.094682 0.351604 -0.040620 0.935267 255 255 0
-0.164428 0.208088 0.103826 0.336508 0.029805 0.941209 255 255 0
-0.174697 0.191315 0.108029 0.336508 0.029805 0.941209 255 255 0
-0.141113 0.215954 0.095241 0.336508 0.029805 0.941209 255 255 0
-0.041805 0.133215 0.116928 -0.450395 0.322182 0.832672 255 255 0
0.076750 0.053250 0.211996 -0.450395 0.322182 0.832672 255 255 0
0.036730 0.093270 0.174864 -0.450395 0.322182 0.832672 255 255 0
-0.003215 0.171805 0.116928 -0.246879 0.490820 0.835552 255 255 0
-0.024528 0.173124 0.109857 -0.246879 0.490820 0.835552 255 255 0
0.036730 0.093270 0.174864 -0.246879 0.490820 0.835552 255 255 0
-0.015572 0.231912 0.103826 -0.336508 -0.029805 0.941209 255 255 0
-0.005303 0.248685 0.108029 -0.336508 -0.029805 0.941209 255 255 0
-0.038887 0.224046 0.095241 -0.336508 -0.029805 0.941209 255 255 0
-0.078088 0.294428 0.103826 0.060576 -0.362830 0.929885 255 255 0
-0.095358 0.268110 0.094682 0.060576 -0.362830 0.929885 255 255 0
-0.085954 0.271113 0.095241 0.060576 -0.362830 0.929885 255 255 0
-0.176785 0.268195 0.116928 0.246880 -0.490820 0.835551 255 255 0
-0.155472 0.266877 0.109857 0.246880 -0.490820 0.835551 255 255 0
-0.216730 0.346730 0.174864 0.246880 -0.490820 0.835551 255 255 0
-0.174697 0.191315 0.108029 0.304541 0.184553 0.934449 255 255 0
-0.335268 -0.025268 0.203134 0.304541 0.184553 0.934449 255 255 0
-0.257244 0.052756 0.162297 0.304541 0.184553 0.934449 255 255 0
-0.005303 0.248685 0.108029 -0.304539 -0.184554 0.934449 255 255 0
0.155268 0.465268 0.203134 -0.304539 -0.184554 0.934449 255 255 0
0.077244 0.387245 0.162297 -0.304539 -0.184554 0.934449 255 255 0
-0.061707 0.144560 0.108220 -0.238434 0.292524 0.926056 255 255 0
-0.041805 0.133215 0.116928 -0.238434 0.292524 0.926056 255 255 0
-0.043124 0.154528 0.109857 -0.238434 0.292524 0.926056 255 255 0
-0.082365 0.149144 0.103332 -0.156051 0.300224 0.941018 255 255 0
-0.061707 0.144560 0.108220 -0.156051 0.300224 0.941018 255 255 0
-0.057548 0.164370 0.102590 -0.156051 0.300224 0.941018 255 255 0
-0.097635 0.290856 0.103332 0.140741 -0.339576 0.929989 255 255 0
-0.108028 0.269533 0.097119 0.140741 -0.339576 0.929989 255 255 0
-0.095358 0.268110 0.094682 0.140741 -0.339576 0.929989 255 255 0
-0.165440 0.248293 0.108221 0.312734 -0.248457 0.916770 255 255 0
-0.145630 0.252452 0.102590 0.312734 -0.248457 0.916770 255 255 0
-0.155472 0.266877 0.109857 0.312734 -0.248457 0.916770 255 255 0
-0.061315 0.304697 0.108029 -0.277495 -0.157287 0.947764 255 255 0
-0.085954 0.271113 0.095241 -0.277495 -0.157287 0.947764 255 255 0
0.077244 0.387245 0.162297 -0.277495 -0.157287 0.947764 255 255 0
-0.138195 0.306785 0.116928 0.450396 -0.322181 0.832672 255 255 0
-0.256750 0.386750 0.211996 0.450396 -0.322181 0.832672 255 255 0
-0.216730 0.346730 0.174864 0.450396 -0.322181 0.832672 255 255 0
-0.082365 0.149144 0.103332 -0.140740 0.339575 0.929990 255 255 0
-0.071971 0.170466 0.097120 -0.140740 0.339575 0.929990 255 255 0
-0.084642 0.171890 0.094682 -0.140740 0.339575 0.929990 255 255 0
-0.024528 0.173124 0.109857 -0.250943 0.292944 0.922611 255 255 204
-0.060100 0.207208 0.089359 -0.250943 0.292944 0.922611 255 255 204
-0.041842 0.171842 0.105554 -0.250943 0.292944 0.922611 255 255 204
-0.038887 0.224046 0.095241 -0.351771 -0.073479 0.933198 255 255 204
-0.055684 0.236431 0.089885 -0.351771 -0.073479 0.933198 255 255 204
-0.060175 0.229507 0.087647 -0.351771 -0.073479 0.933198 255 255 204
-0.085954 0.271113 0.095241 0.047553 -0.324790 0.944590 255 255 204
-0.095358 0.268110 0.094682 0.047553 -0.324790 0.944590 255 255 204
-0.080493 0.249825 0.087647 0.047553 -0.324790 0.944590 255 255 204
-0.155472 0.266877 0.109857 0.250943 -0.292944 0.922611 255 255 204
-0.119900 0.232792 0.089359 0.250943 -0.292944 0.922611 255 255 204
-0.138157 0.268158 0.105554 0.250943 -0.292944 0.922611 255 255 204
-0.141113 0.215954 0.095241 0.391768 0.097144 0.914921 255 255 204
-0.257244 0.052756 0.162297 0.391768 0.097144 0.914921 255 255 204
-0.154623 0.155377 0.107458 0.391768 0.097144 0.914921 255 255 204
-0.038887 0.224046 0.095241 -0.391768 -0.097144 0.914921 255 255 204
0.077244 0.387245 0.162297 -0.391768 -0.097144 0.914921 255 255 204
-0.025377 0.284623 0.107458 -0.391768 -0.097144 0.914921 255 255 204
-0.057548 0.164370 0.102590 -0.294705 0.249204 0.922522 255 255 204
-0.043124 0.154528 0.109857 -0.294705 0.249204 0.922522 255 255 204
-0.077208 0.190100 0.089359 -0.294705 0.249204 0.922522 255 255 204
-0.071971 0.170466 0.097120 -0.229767 0.290029 0.929027 255 255 204
-0.057548 0.164370 0.102590 -0.229767 0.290029 0.929027 255 255 204
-0.083926 0.192603 0.087252 -0.229767 0.290029 0.929027 255 255 204
-0.095358 0.268110 0.094682 0.144535 -0.317888 0.937047 255 255 204
-0.108028 0.269533 0.097119 0.144535 -0.317888 0.937047 255 255 204
-0.088344 0.247329 0.086551 0.144535 -0.317888 0.937047 255 255 204
-0.145630 0.252452 0.102590 0.353952 -0.157237 0.921952 255 255 204
-0.117397 0.226074 0.087252 0.353952 -0.157237 0.921952 255 255 204
-0.119900 0.232792 0.089359 0.353952 -0.157237 0.921952 255 255 204
-0.085954 0.271113 0.095241 -0.103484 -0.370640 0.922994 255 255 204
-0.073570 0.254316 0.089885 -0.103484 -0.370640 0.922994 255 255 204
-0.025377 0.284623 0.107458 -0.103484 -0.370640 0.922994 255 255 204
-0.136877 0.285472 0.109857 0.492769 -0.244016 0.835246 255 255 204
-0.216730 0.346730 0.174864 0.492769 -0.244016 0.835246 255 255 204
-0.138157 0.268158 0.105554 0.492769 -0.244016 0.835246 255 255 204
-0.084642 0.171890 0.094682 -0.144535 0.317888 0.937047 255 255 204
-0.071971 0.170466 0.097120 -0.144535 0.317888 0.937047 255 255 204
-0.091656 0.192671 0.086551 -0.144535 0.317888 0.937047 255 255 204
-0.034370 0.187548 0.102590 -0.353951 0.157237 0.921952 255 255 204
-0.062603 0.213926 0.087252 -0.353951 0.157237 0.921952 255 255 204
-0.060100 0.207208 0.089359 -0.353951 0.157237 0.921952 255 255 204
-0.040466 0.201972 0.097120 -0.369074 0.080801 0.925881 255 255 204
-0.062671 0.221656 0.086551 -0.369074 0.080801 0.925881 255 255 204
-0.062603 0.213926 0.087252 -0.369074 0.080801 0.925881 255 255 204
-0.139533 0.238028 0.097119 0.369075 -0.080799 0.925881 255 255 204
-0.117329 0.218344 0.086551 0.369075 -0.080799 0.925881 255 255 204
-0.117397 0.226074 0.087252 0.369075 -0.080799 0.925881 255 255 204
-0.094046 0.168887 0.095241 0.103485 0.370639 0.922994 255 255 204
-0.106431 0.185684 0.089885 0.103485 0.370639 0.922994 255 255 204
-0.154623 0.155377 0.107458 0.103485 0.370639 0.922994 255 255 204
-0.108028 0.269533 0.097119 0.229767 -0.290029 0.929027 255 255 204
-0.122452 0.275630 0.102590 0.229767 -0.290029 0.929027 255 255 204
-0.096074 0.247397 0.087252 0.229767 -0.290029 0.929027 255 255 204
-0.094046 0.168887 0.095241 -0.047554 0.324789 0.944590 255 255 204
-0.084642 0.171890 0.094682 -0.047554 0.324789 0.944590 255 255 204
-0.099507 0.190175 0.087647 -0.047554 0.324789 0.944590 255 255 204
-0.122452 0.275630 0.102590 0.294705 -0.249205 0.922522 255 255 204
-0.136877 0.285472 0.109857 0.294705 -0.249205 0.922522 255 255 204
-0.102792 0.249900 0.089359 0.294705 -0.249205 0.922522 255 255 204
-0.041890 0.214642 0.094682 -0.368109 -0.012782 0.929695 255 255 204
-0.060175 0.229507 0.087647 -0.368109 -0.012782 0.929695 255 255 204
-0.062671 0.221656 0.086551 -0.368109 -0.012782 0.929695 255 255 204
-0.138110 0.225358 0.094682 0.368109 0.012783 0.929695 255 255 204
-0.119825 0.210493 0.087647 0.368109 0.012783 0.929695 255 255 204
-0.117329 0.218344 0.086551 0.368109 0.012783 0.929695 255 255 204
-0.141113 0.215954 0.095241 0.351770 0.073478 0.933198 255 255 204
-0.124316 0.203570 0.089885 0.351770 0.073478 0.933198 255 255 204
-0.119825 0.210493 0.087647 0.351770 0.073478 0.933198 255 255 204
-0.043124 0.154528 0.109857 -0.492766 0.244018 0.835246 255 255 204
0.036730 0.093270 0.174864 -0.492766 0.244018 0.835246 255 255 204
-0.041842 0.171842 0.105554 -0.492766 0.244018 0.835246 255 255 204
-0.091656 0.192671 0.086551 -0.000001 0.000001 1.000000 255 255 255
-0.088344 0.247329 0.086551 -0.000001 0.000001 1.000000 255 255 255
-0.117329 0.218344 0.086551 -0.000001 0.000001 1.000000 255 255 255
-0.037747 0.112591 0.124989 -0.600435 0.097435 0.793715 255 153 0
-0.029177 0.094973 0.133636 -0.600435 0.097435 0.793715 255 153 0
0.101667 0.028333 0.240798 -0.600435 0.097435 0.793715 255 153 0
0.129951 0.000049 0.278654 -0.713860 0.188741 0.674375 255 153 0
0.035027 0.159177 0.133636 -0.713860 0.188741 0.674375 255 153 0
0.101667 0.028333 0.240798 -0.713860 0.188741 0.674375 255 153 0
0.009559 0.244950 0.112973 -0.324854 -0.031913 0.945226 255 153 0
0.028564 0.249712 0.119665 -0.324854 -0.031913 0.945226 255 153 0
0.024509 0.268049 0.118891 -0.324854 -0.031913 0.945226 255 153 0
-0.034370 0.352575 0.125027 -0.028580 -0.310704 0.950077 255 153 0
-0.060288 0.338564 0.119665 -0.028580 -0.310704 0.950077 255 153 0
-0.041951 0.334509 0.118891 -0.028580 -0.310704 0.950077 255 153 0
-0.309951 0.439951 0.278654 0.713857 -0.188746 0.674376 255 153 0
-0.215027 0.280823 0.133636 0.713857 -0.188746 0.674376 255 153 0
-0.281667 0.411667 0.240798 0.713857 -0.188746 0.674376 255 153 0
-0.204510 0.171951 0.118891 0.198387 0.286032 0.937458 255 153 0
-0.222575 0.164370 0.125027 0.198387 0.286032 0.937458 255 153 0
-0.430649 -0.120649 0.256023 0.198387 0.286032 0.937458 255 153 0
0.024509 0.268049 0.118891 -0.198388 -0.286031 0.937459 255 153 0
0.042575 0.275630 0.125027 -0.198388 -0.286031 0.937459 255 153 0
0.250650 0.560650 0.256023 -0.198388 -0.286031 0.937459 255 153 0
-0.062161 0.124333 0.115370 -0.205437 0.328198 0.921999 255 153 0
-0.056687 0.105522 0.123285 -0.205437 0.328198 0.921999 255 153 0
-0.037747 0.112591 0.124989 -0.205437 0.328198 0.921999 255 153 0
-0.088744 0.127381 0.110988 -0.113394 0.348593 0.930390 255 153 0
-0.088479 0.107791 0.118360 -0.113394 0.348593 0.930390 255 153 0
-0.062161 0.124333 0.115370 -0.113394 0.348593 0.930390 255 153 0
-0.060288 0.338564 0.119665 0.029593 -0.338592 0.940468 255 153 0
-0.091521 0.332209 0.118360 0.029593 -0.338592 0.940468 255 153 0
-0.065050 0.319559 0.112973 0.029593 -0.338592 0.940468 255 153 0
-0.215027 0.280823 0.133636 0.345853 -0.211324 0.914181 255 153 0
-0.204479 0.253313 0.123286 0.345853 -0.211324 0.914181 255 153 0
-0.197409 0.272253 0.124989 0.345853 -0.211324 0.914181 255 153 0
0.328431 0.638431 0.305283 0.008492 -0.541060 0.840941 255 153 0
-0.034370 0.352575 0.125027 0.008492 -0.541060 0.840941 255 153 0
0.250650 0.560650 0.256023 0.008492 -0.541060 0.840941 255 153 0
-0.142253 0.327409 0.124989 0.600437 -0.097434 0.793714 255 153 0
-0.150824 0.345027 0.133636 0.600437 -0.097434 0.793714 255 153 0
-0.281667 0.411667 0.240798 0.600437 -0.097434 0.793714 255 153 0
-0.119712 0.101436 0.119665 -0.029594 0.338591 0.940468 255 153 0
-0.088479 0.107791 0.118360 -0.029594 0.338591 0.940468 255 153 0
-0.114950 0.120441 0.112973 -0.029594 0.338591 0.940468 255 153 0
0.035027 0.159177 0.133636 -0.345855 0.211324 0.914181 255 153 0
0.024478 0.186687 0.123285 -0.345855 0.211324 0.914181 255 153 0
0.017409 0.167747 0.124989 -0.345855 0.211324 0.914181 255 153 0
0.024478 0.186687 0.123285 -0.355712 0.118244 0.927085 255 153 0
0.022209 0.218479 0.118360 -0.355712 0.118244 0.927085 255 153 0
0.005667 0.192161 0.115370 -0.355712 0.118244 0.927085 255 153 0
-0.204479 0.253313 0.123286 0.355711 -0.118243 0.927086 255 153 0
-0.202209 0.221521 0.118360 0.355711 -0.118243 0.927086 255 153 0
-0.185667 0.247839 0.115370 0.355711 -0.118243 0.927086 255 153 0
-0.508431 -0.198431 0.305283 -0.008490 0.541059 0.840942 255 153 0
-0.145630 0.087425 0.125027 -0.008490 0.541059 0.840942 255 153 0
-0.430649 -0.120649 0.256023 -0.008490 0.541059 0.840942 255 153 0
-0.091255 0.312619 0.110988 0.113394 -0.348592 0.930390 255 153 0
-0.091521 0.332209 0.118360 0.113394 -0.348592 0.930390 255 153 0
-0.117839 0.315667 0.115370 0.113394 -0.348592 0.930390 255 153 0
-0.145630 0.087425 0.125027 0.028580 0.310703 0.950077 255 153 0
-0.119712 0.101436 0.119665 0.028580 0.310703 0.950077 255 153 0
-0.138049 0.105491 0.118891 0.028580 0.310703 0.950077 255 153 0
-0.117839 0.315667 0.115370 0.205437 -0.328199 0.921999 255 153 0
-0.123313 0.334478 0.123286 0.205437 -0.328199 0.921999 255 153 0
-0.142253 0.327409 0.124989 0.205437 -0.328199 0.921999 255 153 0
0.002619 0.218744 0.110988 -0.351859 0.022302 0.935787 255 153 0
0.022209 0.218479 0.118360 -0.351859 0.022302 0.935787 255 153 0
0.009559 0.244950 0.112973 -0.351859 0.022302 0.935787 255 153 0
-0.182619 0.221255 0.110988 0.351859 -0.022301 0.935787 255 153 0
-0.202209 0.221521 0.118360 0.351859 -0.022301 0.935787 255 153 0
-0.189560 0.195050 0.112973 0.351859 -0.022301 0.935787 255 153 0
-0.189560 0.195050 0.112973 0.324853 0.031913 0.945226 255 153 0
-0.208564 0.190288 0.119665 0.324853 0.031913 0.945226 255 153 0
-0.204510 0.171951 0.118891 0.324853 0.031913 0.945226 255 153 0
-0.041951 0.334509 0.118891 -0.033270 -0.322990 0.945817 255 204 51
-0.065050 0.319559 0.112973 -0.033270 -0.322990 0.945817 255 204 51
-0.061315 0.304697 0.108029 -0.033270 -0.322990 0.945817 255 204 51
-0.281667 0.411667 0.240798 0.614933 -0.249703 0.748001 255 204 51
-0.197409 0.272253 0.124989 0.614933 -0.249703 0.748001 255 204 51
-0.256750 0.386750 0.211996 0.614933 -0.249703 0.748001 255 204 51
-0.174697 0.191315 0.108029 0.143588 0.306716 0.940908 255 204 51
-0.204510 0.171951 0.118891 0.143588 0.306716 0.940908 255 204 51
-0.335268 -0.025268 0.203134 0.143588 0.306716 0.940908 255 204 51
-0.005303 0.248685 0.108029 -0.143588 -0.306716 0.940908 255 204 51
0.024509 0.268049 0.118891 -0.143588 -0.306716 0.940908 255 204 51
0.155268 0.465268 0.203134 -0.143588 -0.306716 0.940908 255 204 51
-0.061707 0.144560 0.108220 -0.214294 0.329775 0.919416 255 204 51
-0.062161 0.124333 0.115370 -0.214294 0.329775 0.919416 255 204 51
-0.041805 0.133215 0.116928 -0.214294 0.329775 0.919416 255 204 51
-0.082365 0.149144 0.103332 -0.137147 0.364232 0.921155 255 204 51
-0.088744 0.127381 0.110988 -0.137147 0.364232 0.921155 255 204 51
-0.061707 0.144560 0.108220 -0.137147 0.364232 0.921155 255 204 51
-0.065050 0.319559 0.112973 0.022388 -0.352155 0.935674 255 204 51
-0.091255 0.312619 0.110988 0.022388 -0.352155 0.935674 255 204 51
-0.078088 0.294428 0.103826 0.022388 -0.352155 0.935674 255 204 51
-0.197409 0.272253 0.124989 0.319731 -0.210253 0.923886 255 204 51
-0.185667 0.247839 0.115370 0.319731 -0.210253 0.923886 255 204 51
-0.176785 0.268195 0.116928 0.319731 -0.210253 0.923886 255 204 51
0.250650 0.560650 0.256023 -0.163005 -0.348758 0.922928 255 204 51
-0.041951 0.334509 0.118891 -0.163005 -0.348758 0.922928 255 204 51
0.155268 0.465268 0.203134 -0.163005 -0.348758 0.922928 255 204 51
-0.138195 0.306785 0.116928 0.514089 -0.222608 0.828346 255 204 51
-0.142253 0.327409 0.124989 0.514089 -0.222608 0.828346 255 204 51
-0.256750 0.386750 0.211996 0.514089 -0.222608 0.828346 255 204 51
-0.114950 0.120441 0.112973 -0.022388 0.352155 0.935674 255 204 51
-0.088744 0.127381 0.110988 -0.022388 0.352155 0.935674 255 204 51
-0.101912 0.145572 0.103826 -0.022388 0.352155 0.935674 255 204 51
0.017409 0.167747 0.124989 -0.319730 0.210253 0.923886 255 204 51
0.005667 0.192161 0.115370 -0.319730 0.210253 0.923886 255 204 51
-0.003215 0.171805 0.116928 -0.319730 0.210253 0.923886 255 204 51
0.005667 0.192161 0.115370 -0.333307 0.116014 0.935653 255 204 51
0.002619 0.218744 0.110988 -0.333307 0.116014 0.935653 255 204 51
-0.014560 0.191707 0.108220 -0.333307 0.116014 0.935653 255 204 51
-0.185667 0.247839 0.115370 0.333307 -0.116014 0.935653 255 204 51
-0.182619 0.221255 0.110988 0.333307 -0.116014 0.935653 255 204 51
-0.165440 0.248293 0.108221 0.333307 -0.116014 0.935653 255 204 51
-0.430649 -0.120649 0.256023 0.163006 0.348758 0.922928 255 204 51
-0.138049 0.105491 0.118891 0.163006 0.348758 0.922928 255 204 51
-0.335268 -0.025268 0.203134 0.163006 0.348758 0.922928 255 204 51
-0.097635 0.290856 0.103332 0.137146 -0.364232 0.921155 255 204 51
-0.091255 0.312619 0.110988 0.137146 -0.364232 0.921155 255 204 51
-0.118293 0.295440 0.108220 0.137146 -0.364232 0.921155 255 204 51
-0.138049 0.105491 0.118891 0.033271 0.322990 0.945817 255 204 51
-0.114950 0.120441 0.112973 0.033271 0.322990 0.945817 255 204 51
-0.118685 0.135303 0.108029 0.033271 0.322990 0.945817 255 204 51
-0.118293 0.295440 0.108220 0.214294 -0.329776 0.919416 255 204 51
-0.117839 0.315667 0.115370 0.214294 -0.329776 0.919416 255 204 51
-0.138195 0.306785 0.116928 0.214294 -0.329776 0.919416 255 204 51
-0.019144 0.212365 0.103332 -0.341661 0.038709 0.939026 255 204 51
0.002619 0.218744 0.110988 -0.341661 0.038709 0.939026 255 204 51
-0.015572 0.231912 0.103826 -0.341661 0.038709 0.939026 255 204 51
-0.160856 0.227635 0.103332 0.341662 -0.038708 0.939026 255 204 51
-0.182619 0.221255 0.110988 0.341662 -0.038708 0.939026 255 204 51
-0.164428 0.208088 0.103826 0.341662 -0.038708 0.939026 255 204 51
-0.164428 0.208088 0.103826 0.324093 0.038417 0.945245 255 204 51
-0.189560 0.195050 0.112973 0.324093 0.038417 0.945245 255 204 51
-0.174697 0.191315 0.108029 0.324093 0.038417 0.945245 255 204 51
-0.041805 0.133215 0.116928 -0.514087 0.222610 0.828347 255 204 51
-0.037747 0.112591 0.124989 -0.514087 0.222610 0.828347 255 204 51
0.076750 0.053250 0.211996 -0.514087 0.222610 0.828347 255 204 51
0.101667 0.028333 0.240798 -0.614935 0.249699 0.748001 255 204 51
0.017409 0.167747 0.124989 -0.614935 0.249699 0.748001 255 204 51
0.076750 0.053250 0.211996 -0.614935 0.249699 0.748001 255 204 51
-0.015572 0.231912 0.103826 -0.324093 -0.038417 0.945245 255 204 51
0.009559 0.244950 0.112973 -0.324093 -0.038417 0.945245 255 204 51
-0.005303 0.248685 0.108029 -0.324093 -0.038417 0.945245 255 204 51
-0.003215 0.171805 0.116928 -0.292523 0.238435 0.926056 255 255 0
-0.014560 0.191707 0.108220 -0.292523 0.238435 0.926056 255 255 0
-0.024528 0.173124 0.109857 -0.292523 0.238435 0.926056 255 255 0
-0.014560 0.191707 0.108220 -0.300224 0.156050 0.941018 255 255 0
-0.019144 0.212365 0.103332 -0.300224 0.156050 0.941018 255 255 0
-0.034370 0.187548 0.102590 -0.300224 0.156050 0.941018 255 255 0
-0.165440 0.248293 0.108221 0.300224 -0.156050 0.941018 255 255 0
-0.160856 0.227635 0.103332 0.300224 -0.156050 0.941018 255 255 0
-0.145630 0.252452 0.102590 0.300224 -0.156050 0.941018 255 255 0
-0.335268 -0.025268 0.203134 0.184553 0.304541 0.934449 255 255 0
-0.118685 0.135303 0.108029 0.184553 0.304541 0.934449 255 255 0
-0.257244 0.052756 0.162297 0.184553 0.304541 0.934449 255 255 0
-0.108028 0.269533 0.097119 0.193779 -0.360326 0.912477 255 255 0
-0.097635 0.290856 0.103332 0.193779 -0.360326 0.912477 255 255 0
-0.122452 0.275630 0.102590 0.193779 -0.360326 0.912477 255 255 0
-0.118685 0.135303 0.108029 0.029805 0.336508 0.941209 255 255 0
-0.101912 0.145572 0.103826 0.029805 0.336508 0.941209 255 255 0
-0.094046 0.168887 0.095241 0.029805 0.336508 0.941209 255 255 0
-0.122452 0.275630 0.102590 0.248457 -0.312733 0.916770 255 255 0
-0.118293 0.295440 0.108220 0.248457 -0.312733 0.916770 255 255 0
-0.136877 0.285472 0.109857 0.248457 -0.312733 0.916770 255 255 0
-0.040466 0.201972 0.097120 -0.339575 0.140742 0.929989 255 255 0
-0.019144 0.212365 0.103332 -0.339575 0.140742 0.929989 255 255 0
-0.041890 0.214642 0.094682 -0.339575 0.140742 0.929989 255 255 0
-0.139533 0.238028 0.097119 0.339576 -0.140739 0.929990 255 255 0
-0.160856 0.227635 0.103332 0.339576 -0.140739 0.929990 255 255 0
-0.138110 0.225358 0.094682 0.339576 -0.140739 0.929990 255 255 0
-0.138110 0.225358 0.094682 0.362831 -0.060579 0.929884 255 255 0
-0.164428 0.208088 0.103826 0.362831 -0.060579 0.929884 255 255 0
-0.141113 0.215954 0.095241 0.362831 -0.060579 0.929884 255 255 0
-0.043124 0.154528 0.109857 -0.490819 0.246880 0.835552 255 255 0
-0.041805 0.133215 0.116928 -0.490819 0.246880 0.835552 255 255 0
0.036730 0.093270 0.174864 -0.490819 0.246880 0.835552 255 255 0
0.076750 0.053250 0.211996 -0.322183 0.450395 0.832672 255 255 0
-0.003215 0.171805 0.116928 -0.322183 0.450395 0.832672 255 255 0
0.036730 0.093270 0.174864 -0.322183 0.450395 0.832672 255 255 0
-0.041890 0.214642 0.094682 -0.362830 0.060577 0.929884 255 255 0
-0.015572 0.231912 0.103826 -0.362830 0.060577 0.929884 255 255 0
-0.038887 0.224046 0.095241 -0.362830 0.060577 0.929884 255 255 0
-0.061315 0.304697 0.108029 -0.029805 -0.336508 0.941209 255 255 0
-0.078088 0.294428 0.103826 -0.029805 -0.336508 0.941209 255 255 0
-0.085954 0.271113 0.095241 -0.029805 -0.336508 0.941209 255 255 0
-0.256750 0.386750 0.211996 0.322181 -0.450397 0.832672 255 255 0
-0.176785 0.268195 0.116928 0.322181 -0.450397 0.832672 255 255 0
-0.216730 0.346730 0.174864 0.322181 -0.450397 0.832672 255 255 0
-0.141113 0.215954 0.095241 0.157287 0.277495 0.947764 255 255 0
-0.174697 0.191315 0.108029 0.157287 0.277495 0.947764 255 255 0
-0.257244 0.052756 0.162297 0.157287 0.277495 0.947764 255 255 0
-0.038887 0.224046 0.095241 -0.157287 -0.277495 0.947764 255 255 0
-0.005303 0.248685 0.108029 -0.157287 -0.277495 0.947764 255 255 0
0.077244 0.387245 0.162297 -0.157287 -0.277495 0.947764 255 255 0
-0.057548 0.164370 0.102590 -0.248457 0.312733 0.916770 255 255 0
-0.061707 0.144560 0.108220 -0.248457 0.312733 0.916770 255 255 0
-0.043124 0.154528 0.109857 -0.248457 0.312733 0.916770 255 255 0
-0.071971 0.170466 0.097120 -0.193780 0.360326 0.912477 255 255 0
-0.082365 0.149144 0.103332 -0.193780 0.360326 0.912477 255 255 0
-0.057548 0.164370 0.102590 -0.193780 0.360326 0.912477 255 255 0
-0.078088 0.294428 0.103826 0.040620 -0.351605 0.935267 255 255 0
-0.097635 0.290856 0.103332 0.040620 -0.351605 0.935267 255 255 0
-0.095358 0.268110 0.094682 0.040620 -0.351605 0.935267 255 255 0
-0.176785 0.268195 0.116928 0.292524 -0.238434 0.926056 255 255 0
-0.165440 0.248293 0.108221 0.292524 -0.238434 0.926056 255 255 0
-0.155472 0.266877 0.109857 0.292524 -0.238434 0.926056 255 255 0
0.155268 0.465268 0.203134 -0.184553 -0.304539 0.934449 255 255 0
-0.061315 0.304697 0.108029 -0.184553 -0.304539 0.934449 255 255 0
0.077244 0.387245 0.162297 -0.184553 -0.304539 0.934449 255 255 0
-0.136877 0.285472 0.109857 0.490821 -0.246879 0.835551 255 255 0
-0.138195 0.306785 0.116928 0.490821 -0.246879 0.835551 255 255 0
-0.216730 0.346730 0.174864 0.490821 -0.246879 0.835551 255 255 0
-0.101912 0.145572 0.103826 -0.040620 0.351605 0.935267 255 255 0
-0.082365 0.149144 0.103332 -0.040620 0.351605 0.935267 255 255 0
-0.084642 0.171890 0.094682 -0.040620 0.351605 0.935267 255 255 0
0.036730 0.093270 0.174864 -0.244017 0.492767 0.835246 255 255 204
-0.024528 0.173124 0.109857 -0.244017 0.492767 0.835246 255 255 204
-0.041842 0.171842 0.105554 -0.244017 0.492767 0.835246 255 255 204
-0.041890 0.214642 0.094682 -0.324789 0.047554 0.944590 255 255 204
-0.038887 0.224046 0.095241 -0.324789 0.047554 0.944590 255 255 204
-0.060175 0.229507 0.087647 -0.324789 0.047554 0.944590 255 255 204
-0.073570 0.254316 0.089885 -0.073478 -0.351771 0.933198 255 255 204
-0.085954 0.271113 0.095241 -0.073478 -0.351771 0.933198 255 255 204
-0.080493 0.249825 0.087647 -0.073478 -0.351771 0.933198 255 255 204
-0.216730 0.346730 0.174864 0.244016 -0.492768 0.835246 255 255 204
-0.155472 0.266877 0.109857 0.244016 -0.492768 0.835246 255 255 204
-0.138157 0.268158 0.105554 0.244016 -0.492768 0.835246 255 255 204
-0.124316 0.203570 0.089885 0.370639 0.103485 0.922994 255 255 204
-0.141113 0.215954 0.095241 0.370639 0.103485 0.922994 255 255 204
-0.154623 0.155377 0.107458 0.370639 0.103485 0.922994 255 255 204
-0.055684 0.236431 0.089885 -0.370639 -0.103485 0.922994 255 255 204
-0.038887 0.224046 0.095241 -0.370639 -0.103485 0.922994 255 255 204
-0.025377 0.284623 0.107458 -0.370639 -0.103485 0.922994 255 255 204
-0.083926 0.192603 0.087252 -0.157237 0.353951 0.921952 255 255 204
-0.057548 0.164370 0.102590 -0.157237 0.353951 0.921952 255 255 204
-0.077208 0.190100 0.089359 -0.157237 0.353951 0.921952 255 255 204
-0.091656 0.192671 0.086551 -0.080800 0.369074 0.925881 255 255 204
-0.071971 0.170466 0.097120 -0.080800 0.369074 0.925881 255 255 204
-0.083926 0.192603 0.087252 -0.080800 0.369074 0.925881 255 255 204
-0.080493 0.249825 0.087647 -0.012782 -0.368109 0.929695 255 255 204
-0.095358 0.268110 0.094682 -0.012782 -0.368109 0.929695 255 255 204
-0.088344 0.247329 0.086551 -0.012782 -0.368109 0.929695 255 255 204
-0.155472 0.266877 0.109857 0.249203 -0.294706 0.922522 255 255 204
-0.145630 0.252452 0.102590 0.249203 -0.294706 0.922522 255 255 204
-0.119900 0.232792 0.089359 0.249203 -0.294706 0.922522 255 255 204
0.077244 0.387245 0.162297 -0.097144 -0.391768 0.914921 255 255 204
-0.085954 0.271113 0.095241 -0.097144 -0.391768 0.914921 255 255 204
-0.025377 0.284623 0.107458 -0.097144 -0.391768 0.914921 255 255 204
-0.102792 0.249900 0.089359 0.292944 -0.250943 0.922611 255 255 204
-0.136877 0.285472 0.109857 0.292944 -0.250943 0.922611 255 255 204
-0.138157 0.268158 0.105554 0.292944 -0.250943 0.922611 255 255 204
-0.099507 0.190175 0.087647 0.012782 0.368109 0.929695 255 255 204
-0.084642 0.171890 0.094682 0.012782 0.368109 0.929695 255 255 204
-0.091656 0.192671 0.086551 0.012782 0.368109 0.929695 255 255 204
-0.024528 0.173124 0.109857 -0.249203 0.294706 0.922522 255 255 204
-0.034370 0.187548 0.102590 -0.249203 0.294706 0.922522 255 255 204
-0.060100 0.207208 0.089359 -0.249203 0.294706 0.922522 255 255 204
-0.034370 0.187548 0.102590 -0.290030 0.229766 0.929027 255 255 204
-0.040466 0.201972 0.097120 -0.290030 0.229766 0.929027 255 255 204
-0.062603 0.213926 0.087252 -0.290030 0.229766 0.929027 255 255 204
-0.145630 0.252452 0.102590 0.290029 -0.229766 0.929027 255 255 204
-0.139533 0.238028 0.097119 0.290029 -0.229766 0.929027 255 255 204
-0.117397 0.226074 0.087252 0.290029 -0.229766 0.929027 255 255 204
-0.257244 0.052756 0.162297 0.097144 0.391768 0.914921 255 255 204
-0.094046 0.168887 0.095241 0.097144 0.391768 0.914921 255 255 204
-0.154623 0.155377 0.107458 0.097144 0.391768 0.914921 255 255 204
-0.088344 0.247329 0.086551 0.080799 -0.369075 0.925881 255 255 204
-0.108028 0.269533 0.097119 0.080799 -0.369075 0.925881 255 255 204
-0.096074 0.247397 0.087252 0.080799 -0.369075 0.925881 255 255 204
-0.106431 0.185684 0.089885 0.073479 0.351771 0.933198 255 255 204
-0.094046 0.168887 0.095241 0.073479 0.351771 0.933198 255 255 204
-0.099507 0.190175 0.087647 0.073479 0.351771 0.933198 255 255 204
-0.096074 0.247397 0.087252 0.157235 -0.353953 0.921951 255 255 204
-0.122452 0.275630 0.102590 0.157235 -0.353953 0.921951 255 255 204
-0.102792 0.249900 0.089359 0.157235 -0.353953 0.921951 255 255 204
-0.040466 0.201972 0.097120 -0.317888 0.144537 0.937047 255 255 204
-0.041890 0.214642 0.094682 -0.317888 0.144537 0.937047 255 255 204
-0.062671 0.221656 0.086551 -0.317888 0.144537 0.937047 255 255 204
-0.139533 0.238028 0.097119 0.317889 -0.144534 0.937047 255 255 204
-0.138110 0.225358 0.094682 0.317889 -0.144534 0.937047 255 255 204
-0.117329 0.218344 0.086551 0.317889 -0.144534 0.937047 255 255 204
-0.138110 0.225358 0.094682 0.324788 -0.047555 0.944590 255 255 204
-0.141113 0.215954 0.095241 0.324788 -0.047555 0.944590 255 255 204
-0.119825 0.210493 0.087647 0.324788 -0.047555 0.944590 255 255 204
-0.077208 0.190100 0.089359 -0.292944 0.250943 0.922611 255 255 204
-0.043124 0.154528 0.109857 -0.292944 0.250943 0.922611 255 255 204
-0.041842 0.171842 0.105554 -0.292944 0.250943 0.922611 255 255 204
-0.154623 0.155377 0.107458 0.213426 0.213426 0.953362 255 255 255
-0.106431 0.185684 0.089885 0.213426 0.213426 0.953362 255 255 255
-0.124316 0.203570 0.089885 0.213426 0.213426 0.953362 255 255 255
-0.077208 0.190100 0.089359 -0.277743 0.277743 0.919629 255 255 255
-0.041842 0.171842 0.105554 -0.277743 0.277743 0.919629 255 255 255
-0.060100 0.207208 0.089359 -0.277743 0.277743 0.919629 255 255 255
-0.124316 0.203570 0.089885 0.188944 0.188944 0.963639 255 255 255
-0.106431 0.185684 0.089885 0.188944 0.188944 0.963639 255 255 255
-0.099507 0.190175 0.087647 0.188944 0.188944 0.963639 255 255 255
-0.083926 0.192603 0.087252 -0.217401 0.217401 0.951564 255 255 255
-0.077208 0.190100 0.089359 -0.217401 0.217401 0.951564 255 255 255
-0.060100 0.207208 0.089359 -0.217401 0.217401 0.951564 255 255 255
-0.124316 0.203570 0.089885 0.188943 0.188942 0.963640 255 255 255
-0.099507 0.190175 0.087647 0.188943 0.188942 0.963640 255 255 255
-0.119825 0.210493 0.087647 0.188943 0.188942 0.963640 255 255 255
-0.091656 0.192671 0.086551 -0.089264 0.089264 0.992000 255 255 255
-0.083926 0.192603 0.087252 -0.089264 0.089264 0.992000 255 255 255
-0.062603 0.213926 0.087252 -0.089264 0.089264 0.992000 255 255 255
-0.060175 0.229507 0.087647 -0.188944 -0.188944 0.963639 255 255 255
-0.055684 0.236431 0.089885 -0.188944 -0.188944 0.963639 255 255 255
-0.073570 0.254316 0.089885 -0.188944 -0.188944 0.963639 255 255 255
-0.062603 0.213926 0.087252 -0.217401 0.217401 0.951564 255 255 255
-0.055684 0.236431 0.089885 -0.213426 -0.213426 0.953362 255 255 255
-0.025377 0.284623 0.107458 -0.213426 -0.213426 0.953362 255 255 255
-0.073570 0.254316 0.089885 -0.213426 -0.213426 0.953362 255 255 255
-0.091656 0.192671 0.086551 -0.089265 0.089266 0.992000 255 255 255
-0.062603 0.213926 0.087252 -0.089265 0.089266 0.992000 255 255 255
-0.062671 0.221656 0.086551 -0.089265 0.089266 0.992000 255 255 255
-0.062671 0.221656 0.086551 -0.104758 -0.104759 0.988965 255 255 255
-0.060175 0.229507 0.087647 -0.104758 -0.104759 0.988965 255 255 255
-0.080493 0.249825 0.087647 -0.104758 -0.104759 0.988965 255 255 255
-0.102792 0.249900 0.089359 0.277743 -0.277743 0.919629 255 255 255
-0.138157 0.268158 0.105554 0.277743 -0.277743 0.919629 255 255 255
-0.119900 0.232792 0.089359 0.277743 -0.277743 0.919629 255 255 255
-0.060175 0.229507 0.087647 -0.188942 -0.188943 0.963640 255 255 255
-0.073570 0.254316 0.089885 -0.188942 -0.188943 0.963640 255 255 255
-0.080493 0.249825 0.087647 -0.188942 -0.188943 0.963640 255 255 255
-0.096074 0.247397 0.087252 0.217401 -0.217400 0.951564 255 255 255
-0.102792 0.249900 0.089359 0.217401 -0.217400 0.951564 255 255 255
-0.119900 0.232792 0.089359 0.217401 -0.217400 0.951564 255 255 255
-0.062671 0.221656 0.086551 -0.104762 -0.104761 0.988964 255 255 255
-0.080493 0.249825 0.087647 -0.104762 -0.104761 0.988964 255 255 255
-0.088344 0.247329 0.086551 -0.104762 -0.104761 0.988964 255 255 255
-0.088344 0.247329 0.086551 0.089266 -0.089266 0.992000 255 255 255
-0.096074 0.247397 0.087252 0.089266 -0.089266 0.992000 255 255 255
-0.117397 0.226074 0.087252 0.089266 -0.089266 0.992000 255 255 255
-0.119825 0.210493 0.087647 0.104759 0.104758 0.988965 255 255 255
-0.099507 0.190175 0.087647 0.104759 0.104758 0.988965 255 255 255
-0.091656 0.192671 0.086551 0.104759 0.104758 0.988965 255 255 255
-0.096074 0.247397 0.087252 0.217401 -0.217401 0.951564 255 255 255
-0.119900 0.232792 0.089359 0.217401 -0.217401 0.951564 255 255 255
-0.117397 0.226074 0.087252 0.217401 -0.217401 0.951564 255 255 255
-0.117329 0.218344 0.086551 0.104762 0.104763 0.988964 255 255 255
-0.119825 0.210493 0.087647 0.104762 0.104763 0.988964 255 255 255
-0.091656 0.192671 0.086551 0.104762 0.104763 0.988964 255 255 255
-0.117329 0.218344 0.086551 0.089266 -0.089266 0.992000 255 255 255
-0.091656 0.192671 0.086551 -0.000000 0.000001 1.000000 255 255 255
-0.062671 0.221656 0.086551 -0.000000 0.000001 1.000000 255 255 255
-0.088344 0.247329 0.086551 -0.000000 0.000001 1.000000 255 255 255
3 0 1 2
3 3 4 5
3 6 7 8
3 9 10 11
3 12 13 14
3 15 16 17
3 18 19 20
3 21 22 23
3 24 25 26
3 27 28 29
3 30 31 32
3 33 34 35
3 36 37 38
3 39 40 41
3 42 43 44
3 45 46 47
3 48 49 50
3 51 52 53
3 54 55 56
3 57 58 59
3 60 61 62
3 63 64 65
3 66 67 68
3 69 70 71
3 72 73 74
3 75 76 77
3 78 79 80
3 81 82 83
3 84 85 86
3 87 88 89
3 90 91 92
3 93 94 95
3 96 97 98
3 99 100 101
3 102 103 104
3 105 106 107
3 108 109 110
3 111 112 113
3 114 115 116
3 117 118 119
3 120 121 122
3 123 124 125
3 126 127 128
3 129 130 131
3 132 133 134
3 135 136 137
3 138 139 140
3 141 142 143
3 144 145 146
3 147 148 149
3 150 151 152
3 153 154 155
3 156 157 158
3 159 160 161
3 162 163 164
3 165 166 167
3 168 169 170
3 171 172 173
3 174 175 176
3 177 178 179
3 180 181 182
3 183 184 185
3 186 187 188
3 189 190 191
3 192 193 194
3 195 196 197
3 198 199 200
3 201 202 203
3 204 205 206
3 207 208 209
3 210 211 212
3 213 214 215
3 216 217 218
3 219 220 221
3 222 223 224
3 225 226 227
3 228 229 230
3 231 232 233
3 234 235 236
3 237 238 239
3 240 241 242
3 243 244 245
3 246 247 248
3 249 250 251
3 252 253 254
3 255 256 257
3 258 259 260
3 261 262 263
3 264 265 266
3 267 268 269
3 270 271 272
3 273 274 275
3 276 277 278
3 279 280 281
3 282 283 284
3 285 286 287
3 288 289 290
3 291 292 293
3 294 295 296
3 297 298 299
3 300 301 302
3 303 304 305
3 306 307 308
3 309 310 311
3 312 313 314
3 315 316 317
3 318 319 320
3 321 322 323
3 324 325 326
3 327 328 329
3 330 331 332
3 333 334 335
3 336 337 338
3 339 340 341
3 342 343 344
3 345 346 347
3 348 349 350
3 351 352 353
3 354 355 356
3 357 358 359
3 360 361 362
3 363 364 365
3 366 367 368
3 369 370 371
3 372 373 374
3 375 376 377
3 378 379 380
3 381 382 383
3 384 385 386
3 387 388 389
3 390 391 392
3 393 394 395
3 396 397 398
3 399 400 401
3 402 403 404
3 405 406 407
3 408 409 410
3 411 412 413
3 414 415 416
3 417 418 419
3 420 421 422
3 423 424 425
3 426 427 428
3 429 430 431
3 432 433 434
3 435 436 437
3 438 439 440
3 441 442 443
3 444 445 446
3 447 448 449
3 450 451 452
3 453 454 455
3 456 457 458
3 459 460 461
3 462 463 464
3 465 466 467
3 468 469 470
3 471 472 473
3 474 475 476
3 477 478 479
3 480 481 482
3 483 484 485
3 486 487 488
3 489 490 491
3 492 493 494
3 495 496 497
3 498 499 500
3 501 502 503
3 504 505 506
3 507 508 509
3 510 511 512
3 513 514 515
3 516 517 518
3 519 520 521
3 522 523 524
3 525 526 527
3 528 529 530
3 531 532 533
3 534 535 536
3 537 538 539
3 540 541 542
3 543 544 545
3 546 547 548
3 549 550 551
3 552 553 554
3 555 556 557
3 558 559 560
3 561 562 563
3 564 565 566
3 567 568 569
3 570 571 572
3 573 574 575
3 576 577 578
3 579 580 581
3 582 583 584
3 585 586 587
3 588 589 590
3 591 592 593
3 594 595 596
3 597 598 599
3 588 590 600
3 601 602 603
3 604 605 606
3 607 608 609
3 610 611 612
3 613 614 615
3 616 617 618
3 619 620 621
3 622 623 624
3 625 626 627
3 628 629 630
3 631 632 633
3 622 624 634
3 635 636 637
