ply
format ascii 1.0
comment Created by Blender 2.76 (sub 0) - www.blender.org, source file: 'PadButton_A.blend'
element vertex 304
property float x
property float y
property float z
property float nx
property float ny
property float nz
property uchar red
property uchar green
property uchar blue
element face 136
property list uchar uint vertex_indices
end_header
0.427103 -0.246588 0.085359 1.000000 0.000000 -0.000000 136 145 168
0.427103 -0.246588 0.040000 1.000000 0.000000 -0.000000 136 145 168
0.427103 0.246588 0.040000 1.000000 0.000000 -0.000000 136 145 168
0.411277 -0.237451 0.112656 0.539766 0.000000 0.841815 206 220 255
0.411277 0.237451 0.112656 0.539766 0.000000 0.841815 206 220 255
0.368631 0.212829 0.140000 0.539766 0.000000 0.841815 206 220 255
-0.353338 0.204000 0.121259 0.500000 -0.866025 0.000000 105 112 130
-0.353338 0.204000 0.090000 0.500000 -0.866025 0.000000 105 112 130
0.000000 0.408000 0.090000 0.500000 -0.866025 0.000000 105 112 130
0.427103 -0.246588 0.085359 0.500000 -0.866025 0.000000 136 145 168
0.000000 -0.493176 0.085359 0.500000 -0.866025 0.000000 136 145 168
0.000000 -0.493176 0.040000 0.500000 -0.866025 0.000000 136 145 168
0.000000 -0.493176 0.085359 -0.500000 -0.866025 0.000000 136 145 168
-0.427103 -0.246588 0.085359 -0.500000 -0.866025 0.000000 136 145 168
-0.427103 -0.246588 0.040000 -0.500000 -0.866025 0.000000 136 145 168
0.353338 -0.204000 0.121259 -0.500000 0.866025 0.000000 105 112 130
0.353338 -0.204000 0.090000 -0.500000 0.866025 0.000000 105 112 130
0.000000 -0.408000 0.090000 -0.500000 0.866025 0.000000 105 112 130
0.353338 0.204000 0.090000 -1.000000 0.000000 0.000000 105 112 130
0.353338 -0.204000 0.090000 -1.000000 0.000000 0.000000 105 112 130
0.353338 -0.204000 0.121259 -1.000000 0.000000 0.000000 105 112 130
0.000000 0.408000 0.121259 -0.500000 -0.866025 0.000000 105 112 130
0.000000 0.408000 0.090000 -0.500000 -0.866025 0.000000 105 112 130
0.353338 0.204000 0.090000 -0.500000 -0.866025 0.000000 105 112 130
-0.427103 0.246588 0.085359 -0.500000 0.866025 0.000000 136 145 168
0.000000 0.493176 0.085359 -0.500000 0.866025 0.000000 136 145 168
0.000000 0.493176 0.040000 -0.500000 0.866025 0.000000 136 145 168
-0.353338 -0.204000 0.090000 1.000000 0.000000 0.000000 105 112 130
-0.353338 0.204000 0.090000 1.000000 0.000000 0.000000 105 112 130
-0.353338 0.204000 0.121259 1.000000 0.000000 0.000000 105 112 130
0.000000 -0.408000 0.090000 0.500000 0.866025 0.000000 105 112 130
-0.353338 -0.204000 0.090000 0.500000 0.866025 0.000000 105 112 130
-0.353338 -0.204000 0.121259 0.500000 0.866025 0.000000 105 112 130
-0.368631 0.212829 0.140000 0.226319 -0.391996 0.891694 146 156 181
-0.357818 0.206586 0.134511 0.226319 -0.391996 0.891694 146 156 181
0.000000 0.413172 0.134511 0.226319 -0.391996 0.891694 146 156 181
-0.353338 0.204000 0.121259 0.473675 -0.820429 0.320202 124 132 153
0.000000 0.408000 0.121259 0.473675 -0.820429 0.320202 124 132 153
0.000000 0.413172 0.134511 0.473675 -0.820429 0.320202 124 132 153
-0.357818 -0.206586 0.134511 0.452639 0.000000 0.891694 146 156 181
-0.357818 0.206586 0.134511 0.452639 0.000000 0.891694 146 156 181
-0.368631 0.212829 0.140000 0.452639 0.000000 0.891694 146 156 181
-0.357818 -0.206586 0.134511 0.947348 0.000000 0.320206 124 132 153
-0.353338 -0.204000 0.121259 0.947348 0.000000 0.320206 124 132 153
-0.353338 0.204000 0.121259 0.947348 0.000000 0.320206 124 132 153
0.000000 -0.413172 0.134511 0.226319 0.391996 0.891694 146 156 181
-0.357818 -0.206586 0.134511 0.226319 0.391996 0.891694 146 156 181
-0.368631 -0.212829 0.140000 0.226319 0.391996 0.891694 146 156 181
0.000000 -0.413172 0.134511 0.473675 0.820430 0.320197 124 132 153
0.000000 -0.408000 0.121259 0.473675 0.820430 0.320197 124 132 153
-0.353338 -0.204000 0.121259 0.473675 0.820430 0.320197 124 132 153
0.368631 -0.212829 0.140000 -0.226319 0.391996 0.891694 146 156 181
0.357818 -0.206586 0.134511 -0.226319 0.391996 0.891694 146 156 181
0.000000 -0.413172 0.134511 -0.226319 0.391996 0.891694 146 156 181
0.353338 -0.204000 0.121259 -0.473676 0.820430 0.320197 124 132 153
0.000000 -0.408000 0.121259 -0.473676 0.820430 0.320197 124 132 153
0.000000 -0.413172 0.134511 -0.473676 0.820430 0.320197 124 132 153
0.368631 0.212829 0.140000 -0.452637 -0.000000 0.891695 146 156 181
0.357818 0.206586 0.134511 -0.452637 -0.000000 0.891695 146 156 181
0.357818 -0.206586 0.134511 -0.452637 -0.000000 0.891695 146 156 181
0.357818 0.206586 0.134511 -0.947349 0.000000 0.320202 124 132 153
0.353338 0.204000 0.121259 -0.947349 0.000000 0.320202 124 132 153
0.353338 -0.204000 0.121259 -0.947349 0.000000 0.320202 124 132 153
0.000000 0.413172 0.134511 -0.226319 -0.391995 0.891695 146 156 181
0.357818 0.206586 0.134511 -0.226319 -0.391995 0.891695 146 156 181
0.368631 0.212829 0.140000 -0.226319 -0.391995 0.891695 146 156 181
0.000000 0.408000 0.121259 -0.473675 -0.820429 0.320202 124 132 153
0.353338 0.204000 0.121259 -0.473675 -0.820429 0.320202 124 132 153
0.357818 0.206586 0.134511 -0.473675 -0.820429 0.320202 124 132 153
0.427103 0.246588 0.085359 0.500000 0.866025 -0.000000 136 145 168
0.427103 0.246588 0.040000 0.500000 0.866025 -0.000000 136 145 168
0.000000 0.493176 0.040000 0.500000 0.866025 -0.000000 136 145 168
0.353338 -0.204000 0.090000 -0.000000 0.000000 1.000000 89 95 110
0.332138 -0.191760 0.090000 -0.000000 0.000000 1.000000 89 95 110
0.000000 -0.383520 0.090000 -0.000000 0.000000 1.000000 89 95 110
0.368631 0.212829 0.140000 0.269883 0.467452 0.841815 206 220 255
0.411277 0.237451 0.112656 0.269883 0.467452 0.841815 206 220 255
0.000000 0.474902 0.112656 0.269883 0.467452 0.841815 206 220 255
-0.368631 0.212829 0.140000 -0.539766 0.000000 0.841815 206 220 255
-0.411277 0.237451 0.112656 -0.539766 0.000000 0.841815 206 220 255
-0.411277 -0.237451 0.112656 -0.539766 0.000000 0.841815 206 220 255
0.000000 0.474902 0.112656 -0.269883 0.467451 0.841815 206 220 255
-0.411277 0.237451 0.112656 -0.269883 0.467451 0.841815 206 220 255
-0.368631 0.212829 0.140000 -0.269883 0.467451 0.841815 206 220 255
-0.368631 -0.212829 0.140000 -0.269883 -0.467452 0.841815 206 220 255
-0.411277 -0.237451 0.112656 -0.269883 -0.467452 0.841815 206 220 255
0.000000 -0.474902 0.112656 -0.269883 -0.467452 0.841815 206 220 255
0.353338 0.204000 0.090000 -0.000000 0.000000 1.000000 89 95 110
0.332138 0.191760 0.090000 -0.000000 0.000000 1.000000 89 95 110
-0.427103 0.246588 0.085359 -1.000000 0.000000 0.000000 136 145 168
-0.427103 0.246588 0.040000 -1.000000 0.000000 0.000000 136 145 168
-0.427103 -0.246588 0.040000 -1.000000 0.000000 0.000000 136 145 168
0.000000 -0.486459 0.099007 0.459968 -0.796688 0.392068 163 174 201
0.000000 -0.493176 0.085359 0.459968 -0.796688 0.392068 163 174 201
0.427103 -0.246588 0.085359 0.459968 -0.796688 0.392068 163 174 201
-0.421286 -0.243229 0.099007 -0.919936 0.000000 0.392068 163 174 201
-0.421286 0.243229 0.099007 -0.919936 0.000000 0.392068 163 174 201
-0.427103 0.246588 0.085359 -0.919936 0.000000 0.392068 163 174 201
0.000000 0.486459 0.099007 -0.459968 0.796687 0.392070 163 174 201
0.000000 0.493176 0.085359 -0.459968 0.796687 0.392070 163 174 201
-0.427103 0.246588 0.085359 -0.459968 0.796687 0.392070 163 174 201
0.000000 -0.486459 0.099007 -0.459968 -0.796687 0.392071 163 174 201
-0.421286 -0.243229 0.099007 -0.459968 -0.796687 0.392071 163 174 201
-0.427103 -0.246588 0.085359 -0.459968 -0.796687 0.392071 163 174 201
0.421286 -0.243229 0.099007 0.919936 0.000000 0.392070 163 174 201
0.427103 -0.246588 0.085359 0.919936 0.000000 0.392070 163 174 201
0.427103 0.246588 0.085359 0.919936 0.000000 0.392070 163 174 201
0.421286 0.243229 0.099007 0.459968 0.796688 0.392069 163 174 201
0.427103 0.246588 0.085359 0.459968 0.796688 0.392069 163 174 201
0.000000 0.493176 0.085359 0.459968 0.796688 0.392069 163 174 201
0.000000 -0.474902 0.112656 0.269884 -0.467452 0.841814 206 220 255
0.411277 -0.237451 0.112656 0.269884 -0.467452 0.841814 206 220 255
0.368631 -0.212829 0.140000 0.269884 -0.467452 0.841814 206 220 255
-0.353338 0.204000 0.090000 0.000000 0.000000 1.000000 89 95 110
-0.332138 0.191760 0.090000 0.000000 0.000000 1.000000 89 95 110
0.000000 0.383520 0.090000 0.000000 0.000000 1.000000 89 95 110
0.000000 0.408000 0.090000 -0.000000 0.000000 1.000000 89 95 110
-0.353338 -0.204000 0.090000 0.000000 0.000000 1.000000 89 95 110
-0.332138 -0.191760 0.090000 0.000000 0.000000 1.000000 89 95 110
0.000000 -0.408000 0.090000 0.000000 0.000000 1.000000 89 95 110
0.000000 0.474902 0.112656 0.403203 0.698369 0.591361 184 196 227
0.411277 0.237451 0.112656 0.403203 0.698369 0.591361 184 196 227
0.421286 0.243229 0.099007 0.403203 0.698369 0.591361 184 196 227
0.411277 -0.237451 0.112656 0.806407 0.000000 0.591361 184 196 227
0.421286 -0.243229 0.099007 0.806407 0.000000 0.591361 184 196 227
0.421286 0.243229 0.099007 0.806407 0.000000 0.591361 184 196 227
0.000000 -0.474902 0.112656 -0.403204 -0.698369 0.591360 184 196 227
-0.411277 -0.237451 0.112656 -0.403204 -0.698369 0.591360 184 196 227
-0.421286 -0.243229 0.099007 -0.403204 -0.698369 0.591360 184 196 227
-0.411277 0.237451 0.112656 -0.403203 0.698369 0.591361 184 196 227
0.000000 0.474902 0.112656 -0.403203 0.698369 0.591361 184 196 227
0.000000 0.486459 0.099007 -0.403203 0.698369 0.591361 184 196 227
-0.411277 -0.237451 0.112656 -0.806408 0.000000 0.591360 184 196 227
-0.411277 0.237451 0.112656 -0.806408 0.000000 0.591360 184 196 227
-0.421286 0.243229 0.099007 -0.806408 0.000000 0.591360 184 196 227
0.000000 -0.474902 0.112656 0.403203 -0.698368 0.591362 184 196 227
0.000000 -0.486459 0.099007 0.403203 -0.698368 0.591362 184 196 227
0.421286 -0.243229 0.099007 0.403203 -0.698368 0.591362 184 196 227
-0.342809 -0.197921 0.205006 -1.000000 0.000000 0.000000 37 132 148
-0.342809 0.197921 0.205006 -1.000000 0.000000 0.000000 37 132 148
-0.342809 0.197921 0.080000 -1.000000 0.000000 0.000000 37 132 148
0.342809 0.197921 0.205006 1.000000 0.000000 0.000000 37 132 148
0.342809 -0.197921 0.205006 1.000000 0.000000 0.000000 37 132 148
0.342809 -0.197921 0.080000 1.000000 0.000000 0.000000 37 132 148
0.000000 0.395842 0.205006 -0.500000 0.866025 0.000000 37 132 148
0.000000 0.395842 0.080000 -0.500000 0.866025 0.000000 37 132 148
-0.342809 0.197921 0.080000 -0.500000 0.866025 0.000000 37 132 148
0.000000 -0.395842 0.205006 -0.500000 -0.866025 0.000000 37 132 148
-0.342809 -0.197921 0.205006 -0.500000 -0.866025 0.000000 37 132 148
-0.342809 -0.197921 0.080000 -0.500000 -0.866025 0.000000 37 132 148
0.000000 -0.395842 0.205006 0.500000 -0.866025 0.000000 37 132 148
0.000000 -0.395842 0.080000 0.500000 -0.866025 0.000000 37 132 148
0.342809 -0.197921 0.080000 0.500000 -0.866025 0.000000 37 132 148
0.000000 0.395842 0.205006 0.500000 0.866025 -0.000000 37 132 148
0.342809 0.197921 0.205006 0.500000 0.866025 -0.000000 37 132 148
0.342809 0.197921 0.080000 0.500000 0.866025 -0.000000 37 132 148
-0.342809 0.197921 0.205006 -0.474158 0.821266 0.317325 42 148 166
-0.338963 0.195701 0.216499 -0.474158 0.821266 0.317325 42 148 166
0.000000 0.391401 0.216499 -0.474158 0.821266 0.317325 42 148 166
-0.338963 0.195701 0.216499 -0.228130 0.395133 0.889846 47 167 186
-0.329680 0.190341 0.221259 -0.228130 0.395133 0.889846 47 167 186
0.000000 0.380681 0.221259 -0.228130 0.395133 0.889846 47 167 186
-0.342809 0.197921 0.205006 -0.948318 0.000000 0.317323 42 148 166
-0.342809 -0.197921 0.205006 -0.948318 0.000000 0.317323 42 148 166
-0.338963 -0.195701 0.216499 -0.948318 0.000000 0.317323 42 148 166
-0.338963 -0.195701 0.216499 -0.456261 0.000000 0.889846 47 167 186
-0.329680 -0.190341 0.221259 -0.456261 0.000000 0.889846 47 167 186
-0.329680 0.190341 0.221259 -0.456261 0.000000 0.889846 47 167 186
-0.342809 -0.197921 0.205006 -0.474158 -0.821266 0.317328 42 148 166
0.000000 -0.395842 0.205006 -0.474158 -0.821266 0.317328 42 148 166
0.000000 -0.391401 0.216499 -0.474158 -0.821266 0.317328 42 148 166
0.000000 -0.391401 0.216499 -0.228131 -0.395135 0.889845 47 167 186
0.000000 -0.380681 0.221259 -0.228131 -0.395135 0.889845 47 167 186
-0.329680 -0.190341 0.221259 -0.228131 -0.395135 0.889845 47 167 186
0.342809 -0.197921 0.205006 0.474158 -0.821265 0.317331 42 148 166
0.338963 -0.195701 0.216499 0.474158 -0.821265 0.317331 42 148 166
0.000000 -0.391401 0.216499 0.474158 -0.821265 0.317331 42 148 166
0.000000 -0.391401 0.216499 0.228132 -0.395135 0.889845 47 167 186
0.338963 -0.195701 0.216499 0.228132 -0.395135 0.889845 47 167 186
0.329680 -0.190341 0.221259 0.228132 -0.395135 0.889845 47 167 186
0.342809 0.197921 0.205006 0.948318 -0.000000 0.317323 42 148 166
0.338963 0.195701 0.216499 0.948318 -0.000000 0.317323 42 148 166
0.338963 -0.195701 0.216499 0.948318 -0.000000 0.317323 42 148 166
0.338963 -0.195701 0.216499 0.456261 0.000000 0.889846 47 167 186
0.338963 0.195701 0.216499 0.456261 0.000000 0.889846 47 167 186
0.329680 0.190341 0.221259 0.456261 0.000000 0.889846 47 167 186
0.342809 0.197921 0.205006 0.474159 0.821267 0.317324 42 148 166
0.000000 0.395842 0.205006 0.474159 0.821267 0.317324 42 148 166
0.000000 0.391401 0.216499 0.474159 0.821267 0.317324 42 148 166
0.338963 0.195701 0.216499 0.228130 0.395132 0.889847 47 167 186
0.000000 0.391401 0.216499 0.228130 0.395132 0.889847 47 167 186
0.000000 0.380681 0.221259 0.228130 0.395132 0.889847 47 167 186
-0.329680 -0.190341 0.221259 0.000000 0.000000 1.000000 53 187 209
0.000000 -0.380681 0.221259 0.000000 0.000000 1.000000 53 187 209
0.329680 0.190341 0.221259 0.000000 0.000000 1.000000 53 187 209
0.427103 0.246588 0.085359 1.000000 0.000000 -0.000000 136 145 168
0.368631 -0.212829 0.140000 0.539766 0.000000 0.841815 206 220 255
0.000000 0.408000 0.121259 0.500000 -0.866025 0.000000 105 112 130
0.427103 -0.246588 0.040000 0.500000 -0.866025 0.000000 136 145 168
0.000000 -0.493176 0.040000 -0.500000 -0.866025 -0.000000 136 145 168
0.000000 -0.408000 0.121259 -0.500000 0.866025 0.000000 105 112 130
0.353338 0.204000 0.121259 -1.000000 0.000000 0.000000 105 112 130
0.353338 0.204000 0.121259 -0.500000 -0.866025 0.000000 105 112 130
-0.427103 0.246588 0.040000 -0.500000 0.866025 0.000000 136 145 168
-0.353338 -0.204000 0.121259 1.000000 0.000000 -0.000000 105 112 130
0.000000 -0.408000 0.121259 0.500000 0.866025 -0.000000 105 112 130
0.000000 0.425659 0.140000 0.226319 -0.391995 0.891695 146 156 181
-0.368631 0.212829 0.140000 0.226319 -0.391995 0.891695 146 156 181
0.000000 0.413172 0.134511 0.226319 -0.391995 0.891695 146 156 181
-0.357818 0.206586 0.134511 0.473674 -0.820428 0.320204 124 132 153
-0.353338 0.204000 0.121259 0.473674 -0.820428 0.320204 124 132 153
0.000000 0.413172 0.134511 0.473674 -0.820428 0.320204 124 132 153
-0.368631 -0.212829 0.140000 0.452639 0.000000 0.891694 146 156 181
-0.357818 0.206586 0.134511 0.947348 -0.000000 0.320206 124 132 153
0.000000 -0.425659 0.140000 0.226317 0.391993 0.891696 146 156 181
0.000000 -0.413172 0.134511 0.226317 0.391993 0.891696 146 156 181
-0.368631 -0.212829 0.140000 0.226317 0.391993 0.891696 146 156 181
-0.357818 -0.206586 0.134511 0.473674 0.820428 0.320204 124 132 153
0.000000 -0.413172 0.134511 0.473674 0.820428 0.320204 124 132 153
-0.353338 -0.204000 0.121259 0.473674 0.820428 0.320204 124 132 153
0.000000 -0.425659 0.140000 -0.226317 0.391993 0.891696 146 156 181
0.368631 -0.212829 0.140000 -0.226317 0.391993 0.891696 146 156 181
0.000000 -0.413172 0.134511 -0.226317 0.391993 0.891696 146 156 181
0.357818 -0.206586 0.134511 -0.473674 0.820428 0.320204 124 132 153
0.353338 -0.204000 0.121259 -0.473674 0.820428 0.320204 124 132 153
0.000000 -0.413172 0.134511 -0.473674 0.820428 0.320204 124 132 153
0.368631 -0.212829 0.140000 -0.452639 0.000000 0.891694 146 156 181
0.368631 0.212829 0.140000 -0.452639 0.000000 0.891694 146 156 181
0.357818 -0.206586 0.134511 -0.452639 0.000000 0.891694 146 156 181
0.357818 -0.206586 0.134511 -0.947348 -0.000000 0.320206 124 132 153
0.357818 0.206586 0.134511 -0.947348 -0.000000 0.320206 124 132 153
0.353338 -0.204000 0.121259 -0.947348 -0.000000 0.320206 124 132 153
0.000000 0.425659 0.140000 -0.226319 -0.391995 0.891695 146 156 181
0.000000 0.413172 0.134511 -0.473675 -0.820429 0.320202 124 132 153
0.000000 0.493176 0.085359 0.500000 0.866025 0.000000 136 145 168
0.000000 0.425659 0.140000 0.269883 0.467452 0.841815 206 220 255
-0.368631 -0.212829 0.140000 -0.539766 0.000000 0.841815 206 220 255
0.000000 0.425659 0.140000 -0.269883 0.467452 0.841815 206 220 255
0.000000 0.474902 0.112656 -0.269883 0.467452 0.841815 206 220 255
-0.368631 0.212829 0.140000 -0.269883 0.467452 0.841815 206 220 255
0.000000 -0.425659 0.140000 -0.269883 -0.467451 0.841815 206 220 255
-0.368631 -0.212829 0.140000 -0.269883 -0.467451 0.841815 206 220 255
0.000000 -0.474902 0.112656 -0.269883 -0.467451 0.841815 206 220 255
-0.427103 -0.246588 0.085359 -1.000000 0.000000 0.000000 136 145 168
0.421286 -0.243229 0.099007 0.459967 -0.796687 0.392072 163 174 201
0.000000 -0.486459 0.099007 0.459967 -0.796687 0.392072 163 174 201
0.427103 -0.246588 0.085359 0.459967 -0.796687 0.392072 163 174 201
-0.427103 -0.246588 0.085359 -0.919936 0.000000 0.392068 163 174 201
-0.421286 0.243229 0.099007 -0.459968 0.796688 0.392068 163 174 201
0.000000 0.486459 0.099007 -0.459968 0.796688 0.392068 163 174 201
-0.427103 0.246588 0.085359 -0.459968 0.796688 0.392068 163 174 201
0.000000 -0.493176 0.085359 -0.459968 -0.796688 0.392069 163 174 201
0.000000 -0.486459 0.099007 -0.459968 -0.796688 0.392069 163 174 201
-0.427103 -0.246588 0.085359 -0.459968 -0.796688 0.392069 163 174 201
0.421286 0.243229 0.099007 0.919936 -0.000000 0.392070 163 174 201
0.000000 0.486459 0.099007 0.459968 0.796687 0.392070 163 174 201
0.421286 0.243229 0.099007 0.459968 0.796687 0.392070 163 174 201
0.000000 0.493176 0.085359 0.459968 0.796687 0.392070 163 174 201
0.000000 -0.425659 0.140000 0.269883 -0.467451 0.841815 206 220 255
0.000000 -0.474902 0.112656 0.269883 -0.467451 0.841815 206 220 255
0.368631 -0.212829 0.140000 0.269883 -0.467451 0.841815 206 220 255
0.000000 0.486459 0.099007 0.403203 0.698369 0.591361 184 196 227
0.411277 0.237451 0.112656 0.806407 -0.000000 0.591361 184 196 227
0.000000 -0.486459 0.099007 -0.403203 -0.698368 0.591362 184 196 227
0.000000 -0.474902 0.112656 -0.403203 -0.698368 0.591362 184 196 227
-0.421286 -0.243229 0.099007 -0.403203 -0.698368 0.591362 184 196 227
-0.421286 0.243229 0.099007 -0.403204 0.698370 0.591359 184 196 227
-0.411277 0.237451 0.112656 -0.403204 0.698370 0.591359 184 196 227
0.000000 0.486459 0.099007 -0.403204 0.698370 0.591359 184 196 227
-0.421286 -0.243229 0.099007 -0.806408 0.000000 0.591360 184 196 227
0.411277 -0.237451 0.112656 0.403204 -0.698369 0.591361 184 196 227
0.000000 -0.474902 0.112656 0.403204 -0.698369 0.591361 184 196 227
0.421286 -0.243229 0.099007 0.403204 -0.698369 0.591361 184 196 227
-0.342809 -0.197921 0.080000 -1.000000 -0.000000 -0.000000 37 132 148
0.342809 0.197921 0.080000 1.000000 -0.000000 0.000000 37 132 148
-0.342809 0.197921 0.205006 -0.500000 0.866025 0.000000 37 132 148
0.000000 -0.395842 0.080000 -0.500000 -0.866025 -0.000000 37 132 148
0.342809 -0.197921 0.205006 0.500000 -0.866025 0.000000 37 132 148
0.000000 0.395842 0.080000 0.500000 0.866025 0.000000 37 132 148
0.000000 0.395842 0.205006 -0.474159 0.821267 0.317324 42 148 166
-0.342809 0.197921 0.205006 -0.474159 0.821267 0.317324 42 148 166
0.000000 0.391401 0.216499 -0.474159 0.821267 0.317324 42 148 166
0.000000 0.391401 0.216499 -0.228129 0.395132 0.889847 47 167 186
-0.338963 0.195701 0.216499 -0.228129 0.395132 0.889847 47 167 186
0.000000 0.380681 0.221259 -0.228129 0.395132 0.889847 47 167 186
-0.338963 0.195701 0.216499 -0.948318 0.000000 0.317323 42 148 166
-0.338963 0.195701 0.216499 -0.456261 0.000000 0.889846 47 167 186
-0.338963 -0.195701 0.216499 -0.474157 -0.821265 0.317331 42 148 166
-0.342809 -0.197921 0.205006 -0.474157 -0.821265 0.317331 42 148 166
0.000000 -0.391401 0.216499 -0.474157 -0.821265 0.317331 42 148 166
-0.338963 -0.195701 0.216499 -0.228132 -0.395136 0.889845 47 167 186
0.000000 -0.391401 0.216499 -0.228132 -0.395136 0.889845 47 167 186
-0.329680 -0.190341 0.221259 -0.228132 -0.395136 0.889845 47 167 186
0.000000 -0.395842 0.205006 0.474158 -0.821266 0.317328 42 148 166
0.342809 -0.197921 0.205006 0.474158 -0.821266 0.317328 42 148 166
0.000000 -0.391401 0.216499 0.474158 -0.821266 0.317328 42 148 166
0.000000 -0.380681 0.221259 0.228132 -0.395135 0.889845 47 167 186
0.342809 -0.197921 0.205006 0.948318 0.000000 0.317323 42 148 166
0.329680 -0.190341 0.221259 0.456261 0.000000 0.889846 47 167 186
0.338963 0.195701 0.216499 0.474159 0.821267 0.317324 42 148 166
0.329680 0.190341 0.221259 0.228130 0.395132 0.889847 47 167 186
0.000000 0.380681 0.221259 -0.000000 0.000000 1.000000 53 187 209
-0.329680 0.190341 0.221259 -0.000000 0.000000 1.000000 53 187 209
0.329680 -0.190341 0.221259 0.000000 0.000000 1.000000 53 187 209
3 0 1 2
3 3 4 5
3 6 7 8
3 9 10 11
3 12 13 14
3 15 16 17
3 18 19 20
3 21 22 23
3 24 25 26
3 27 28 29
3 30 31 32
3 33 34 35
3 36 37 38
3 39 40 41
3 42 43 44
3 45 46 47
3 48 49 50
3 51 52 53
3 54 55 56
3 57 58 59
3 60 61 62
3 63 64 65
3 66 67 68
3 69 70 71
3 72 73 74
3 75 76 77
3 78 79 80
3 81 82 83
3 84 85 86
3 72 87 88
3 89 90 91
3 92 93 94
3 95 96 97
3 98 99 100
3 101 102 103
3 104 105 106
3 107 108 109
3 110 111 112
3 113 114 115
3 87 116 115
3 117 118 114
3 117 119 74
3 120 121 122
3 123 124 125
3 126 127 128
3 129 130 131
3 132 133 134
3 135 136 137
3 138 139 140
3 141 142 143
3 144 145 146
3 147 148 149
3 150 151 152
3 153 154 155
3 156 157 158
3 159 160 161
3 162 163 164
3 165 166 167
3 168 169 170
3 171 172 173
3 174 175 176
3 177 178 179
3 180 181 182
3 183 184 185
3 186 187 188
3 189 190 191
3 192 193 194
3 195 0 2
3 196 3 5
3 197 6 8
3 198 9 11
3 199 12 14
3 200 15 17
3 201 18 20
3 202 21 23
3 203 24 26
3 204 27 29
3 205 30 32
3 206 207 208
3 209 210 211
3 212 39 41
3 213 42 44
3 214 215 216
3 217 218 219
3 220 221 222
3 223 224 225
3 226 227 228
3 229 230 231
3 232 63 65
3 233 66 68
3 234 69 71
3 119 72 74
3 235 75 77
3 236 78 80
3 237 238 239
3 240 241 242
3 73 72 88
3 243 89 91
3 244 245 246
3 247 95 97
3 248 249 250
3 251 252 253
3 254 104 106
3 255 256 257
3 258 259 260
3 116 113 115
3 88 87 115
3 113 117 114
3 118 117 74
3 261 120 122
3 262 123 125
3 263 264 265
3 266 267 268
3 269 132 134
3 270 271 272
3 273 138 140
3 274 141 143
3 275 144 146
3 276 147 149
3 277 150 152
3 278 153 155
3 279 280 281
3 282 283 284
3 285 162 164
3 286 165 167
3 287 288 289
3 290 291 292
3 293 294 295
3 296 177 179
3 297 180 182
3 298 183 185
3 299 186 188
3 300 189 191
3 194 301 302
3 302 192 194
3 193 303 194
