ply
format ascii 1.0
comment Created by Blender 2.76 (sub 0) - www.blender.org, source file: 'StoneButton_A.blend'
element vertex 288
property float x
property float y
property float z
property float nx
property float ny
property float nz
property uchar red
property uchar green
property uchar blue
element face 110
property list uchar uint vertex_indices
end_header
0.395002 0.110552 -0.070000 1.000000 -0.000001 -0.000009 110 107 100
0.395002 0.110552 -0.060029 1.000000 -0.000001 -0.000009 110 107 100
0.395002 -0.103345 -0.060029 1.000000 -0.000001 -0.000009 110 107 100
0.363647 0.159670 -0.060029 0.700064 0.714081 -0.000008 110 107 100
0.383880 0.139835 -0.060029 0.700064 0.714081 -0.000008 110 107 100
0.383880 0.139835 -0.070000 0.700064 0.714081 -0.000008 110 107 100
0.331812 -0.168101 -0.060029 0.000000 -1.000000 0.000000 110 107 100
-0.006547 -0.168101 -0.060029 0.000000 -1.000000 0.000000 110 107 100
-0.006547 -0.168101 -0.070000 0.000000 -1.000000 0.000000 110 107 100
0.330175 0.168774 -0.060029 0.262459 0.964943 0.000023 110 107 100
0.363647 0.159670 -0.060029 0.262459 0.964943 0.000023 110 107 100
0.363647 0.159670 -0.070000 0.262459 0.964943 0.000023 110 107 100
0.395002 -0.103345 -0.060029 0.918969 -0.394329 0.000010 110 107 100
0.380997 -0.135982 -0.060029 0.918969 -0.394329 0.000010 110 107 100
0.380998 -0.135982 -0.070000 0.918969 -0.394329 0.000010 110 107 100
-0.033157 -0.159555 -0.060029 -0.751895 -0.659283 -0.000016 110 107 100
-0.050811 -0.139421 -0.060029 -0.751895 -0.659283 -0.000016 110 107 100
-0.050811 -0.139421 -0.070000 -0.751895 -0.659283 -0.000016 110 107 100
0.395002 0.110552 -0.070000 0.934836 0.355079 -0.000011 110 107 100
0.383880 0.139835 -0.070000 0.934836 0.355079 -0.000011 110 107 100
0.383880 0.139835 -0.060029 0.934836 0.355079 -0.000011 110 107 100
-0.000672 0.168775 -0.060029 -0.281840 0.959461 0.000022 110 107 100
-0.000672 0.168775 -0.070000 -0.281840 0.959461 0.000022 110 107 100
-0.030710 0.159951 -0.070000 -0.281840 0.959461 0.000022 110 107 100
-0.056405 0.105571 -0.070000 -0.979875 0.199614 -0.000021 110 107 100
-0.056405 0.105571 -0.060029 -0.979875 0.199614 -0.000021 110 107 100
-0.048892 0.142454 -0.060029 -0.979875 0.199614 -0.000021 110 107 100
-0.033157 -0.159555 -0.070000 -0.305774 -0.952104 -0.000000 110 107 100
-0.006547 -0.168101 -0.070000 -0.305774 -0.952104 -0.000000 110 107 100
-0.006547 -0.168101 -0.060029 -0.305774 -0.952104 -0.000000 110 107 100
-0.056405 -0.109720 -0.070000 -0.982720 -0.185097 -0.000021 110 107 100
-0.050811 -0.139421 -0.070000 -0.982720 -0.185097 -0.000021 110 107 100
-0.050811 -0.139421 -0.060029 -0.982720 -0.185097 -0.000021 110 107 100
-0.056405 -0.109720 -0.070000 -1.000000 0.000001 0.000000 110 107 100
-0.056405 -0.109720 -0.060029 -1.000000 0.000001 0.000000 110 107 100
-0.056405 0.105571 -0.060029 -1.000000 0.000001 0.000000 110 107 100
0.330175 0.168775 -0.070000 0.000001 1.000000 0.000022 110 107 100
-0.000672 0.168775 -0.070000 0.000001 1.000000 0.000022 110 107 100
-0.000672 0.168775 -0.060029 0.000001 1.000000 0.000022 110 107 100
-0.048892 0.142454 -0.070000 -0.693406 0.720547 0.000016 110 107 100
-0.048892 0.142454 -0.060029 -0.693406 0.720547 0.000016 110 107 100
-0.030710 0.159951 -0.060029 -0.693406 0.720547 0.000016 110 107 100
0.380997 -0.135982 -0.060029 0.697306 -0.716774 -0.000001 110 107 100
0.361676 -0.154779 -0.060029 0.697306 -0.716774 -0.000001 110 107 100
0.361676 -0.154778 -0.070000 0.697306 -0.716774 -0.000001 110 107 100
0.331812 -0.168101 -0.070000 0.407398 -0.913251 -0.000012 110 107 100
0.361676 -0.154778 -0.070000 0.407398 -0.913251 -0.000012 110 107 100
0.361676 -0.154779 -0.060029 0.407398 -0.913251 -0.000012 110 107 100
0.330744 -0.161644 -0.054049 0.000000 -0.679492 0.733683 143 139 130
-0.005765 -0.161644 -0.054049 0.000000 -0.679492 0.733683 143 139 130
-0.006547 -0.168101 -0.060029 0.000000 -0.679492 0.733683 143 139 130
0.389341 -0.101850 -0.054049 0.726188 -0.000001 0.687497 143 139 130
0.395002 -0.103345 -0.060029 0.726188 -0.000001 0.687497 143 139 130
0.395002 0.110552 -0.060029 0.726188 -0.000001 0.687497 143 139 130
0.376429 -0.131940 -0.054049 0.660095 -0.283246 0.695735 143 139 130
0.380997 -0.135982 -0.060029 0.660095 -0.283246 0.695735 143 139 130
0.395002 -0.103345 -0.060029 0.660095 -0.283246 0.695735 143 139 130
-0.050744 0.104831 -0.054049 -0.726188 0.000000 0.687496 143 139 130
-0.056405 0.105571 -0.060029 -0.726188 0.000000 0.687496 143 139 130
-0.056405 -0.109720 -0.060029 -0.726188 0.000000 0.687496 143 139 130
-0.028047 0.154066 -0.054049 -0.192464 0.655193 0.730534 143 139 130
0.000045 0.162318 -0.054049 -0.192464 0.655193 0.730534 143 139 130
-0.000672 0.168775 -0.060029 -0.192464 0.655193 0.730534 143 139 130
-0.030200 -0.153797 -0.054049 -0.208992 -0.650750 0.729963 143 139 130
-0.033157 -0.159555 -0.060029 -0.208992 -0.650750 0.729963 143 139 130
-0.006547 -0.168101 -0.060029 -0.208992 -0.650750 0.729963 143 139 130
0.358727 -0.149162 -0.054049 0.488843 -0.502491 0.713117 143 139 130
0.361676 -0.154779 -0.060029 0.488843 -0.502491 0.713117 143 139 130
0.380997 -0.135982 -0.060029 0.488843 -0.502491 0.713117 143 139 130
0.000045 0.162318 -0.054049 0.000001 0.679480 0.733694 143 139 130
0.329509 0.162317 -0.054049 0.000001 0.679480 0.733694 143 139 130
0.330175 0.168774 -0.060029 0.000001 0.679480 0.733694 143 139 130
0.360999 0.153753 -0.054049 0.179108 0.658498 0.730958 143 139 130
0.363647 0.159670 -0.060029 0.179108 0.658498 0.730958 143 139 130
0.330175 0.168774 -0.060029 0.179108 0.658498 0.730958 143 139 130
-0.043803 0.138903 -0.054049 -0.709567 0.144548 0.689653 143 139 130
-0.048892 0.142454 -0.060029 -0.709567 0.144548 0.689653 143 139 130
-0.056405 0.105571 -0.060029 -0.709567 0.144548 0.689653 143 139 130
-0.030200 -0.153797 -0.054049 -0.529898 -0.464636 0.709452 143 139 130
-0.045627 -0.136202 -0.054049 -0.529898 -0.464636 0.709452 143 139 130
-0.050811 -0.139421 -0.060029 -0.529898 -0.464636 0.709452 143 139 130
0.360999 0.153753 -0.054049 0.490894 0.500720 0.712953 143 139 130
0.379202 0.135906 -0.054049 0.490894 0.500720 0.712953 143 139 130
0.383880 0.139835 -0.060029 0.490894 0.500720 0.712953 143 139 130
-0.028047 0.154066 -0.054049 -0.485924 0.504944 0.713379 143 139 130
-0.030710 0.159951 -0.060029 -0.485924 0.504944 0.713379 143 139 130
-0.048892 0.142454 -0.060029 -0.485924 0.504944 0.713379 143 139 130
-0.045627 -0.136202 -0.054049 -0.711911 -0.134080 0.689351 143 139 130
-0.050744 -0.109034 -0.054049 -0.711911 -0.134080 0.689351 143 139 130
-0.056405 -0.109720 -0.060029 -0.711911 -0.134080 0.689351 143 139 130
0.379202 0.135906 -0.054049 0.672860 0.255573 0.694220 143 139 130
0.389341 0.109213 -0.054049 0.672860 0.255573 0.694220 143 139 130
0.395002 0.110552 -0.060029 0.672860 0.255573 0.694220 143 139 130
0.330744 -0.161644 -0.054049 0.279725 -0.627056 0.727018 143 139 130
0.331812 -0.168101 -0.060029 0.279725 -0.627056 0.727018 143 139 130
0.361676 -0.154779 -0.060029 0.279725 -0.627056 0.727018 143 139 130
0.328973 -0.150935 -0.049940 0.148421 -0.332722 0.931272 163 159 149
0.330744 -0.161644 -0.054049 0.148421 -0.332722 0.931272 163 159 149
0.358727 -0.149162 -0.054049 0.148421 -0.332722 0.931272 163 159 149
0.368852 -0.125235 -0.049940 0.361330 -0.155046 0.919457 163 159 149
0.376429 -0.131940 -0.054049 0.361330 -0.155046 0.919457 163 159 149
0.389341 -0.101850 -0.054049 0.361330 -0.155046 0.919457 163 159 149
0.353835 -0.139844 -0.049940 0.262974 -0.270319 0.926160 163 159 149
0.358727 -0.149162 -0.054049 0.262974 -0.270319 0.926160 163 159 149
0.376429 -0.131940 -0.054049 0.262974 -0.270319 0.926160 163 159 149
-0.037028 -0.130864 -0.049940 -0.392220 -0.073872 0.916900 163 159 149
-0.041354 -0.107897 -0.049940 -0.392220 -0.073872 0.916900 163 159 149
-0.050744 -0.109034 -0.054049 -0.392220 -0.073872 0.916900 163 159 149
-0.025294 -0.144246 -0.049940 -0.110566 -0.344280 0.932334 163 159 149
-0.030200 -0.153797 -0.054049 -0.110566 -0.344280 0.932334 163 159 149
-0.005765 -0.161644 -0.054049 -0.110566 -0.344280 0.932334 163 159 149
-0.025294 -0.144246 -0.049940 -0.286099 -0.250860 0.924779 163 159 149
-0.037028 -0.130864 -0.049940 -0.286099 -0.250860 0.924779 163 159 149
-0.045627 -0.136202 -0.054049 -0.286099 -0.250860 0.924779 163 159 149
0.328973 -0.150935 -0.049940 -0.000000 -0.358168 0.933657 163 159 149
-0.004468 -0.150934 -0.049940 -0.000000 -0.358168 0.933657 163 159 149
-0.005765 -0.161644 -0.054049 -0.000000 -0.358168 0.933657 163 159 149
-0.023629 0.144304 -0.049940 -0.101765 0.346438 0.932537 163 159 149
0.001235 0.151608 -0.049940 -0.101765 0.346438 0.932537 163 159 149
0.000045 0.162318 -0.054049 -0.101765 0.346438 0.932537 163 159 149
-0.035363 0.133013 -0.049940 -0.390805 0.079611 0.917024 163 159 149
-0.043803 0.138903 -0.054049 -0.390805 0.079611 0.917024 163 159 149
-0.050744 0.104831 -0.054049 -0.390805 0.079611 0.917024 163 159 149
-0.023629 0.144304 -0.049940 -0.261344 0.271580 0.926252 163 159 149
-0.028047 0.154066 -0.054049 -0.261344 0.271580 0.926252 163 159 149
-0.043803 0.138903 -0.054049 -0.261344 0.271580 0.926252 163 159 149
-0.041354 0.103603 -0.049940 -0.400841 0.000000 0.916148 163 159 149
-0.050744 0.104831 -0.054049 -0.400841 0.000000 0.916148 163 159 149
-0.050744 -0.109034 -0.054049 -0.400841 0.000000 0.916148 163 159 149
0.356605 0.143938 -0.049940 0.094663 0.348042 0.932687 163 159 149
0.360999 0.153753 -0.054049 0.094663 0.348042 0.932687 163 159 149
0.329509 0.162317 -0.054049 0.094663 0.348042 0.932687 163 159 149
0.001235 0.151608 -0.049940 0.000001 0.358174 0.933655 163 159 149
0.328405 0.151608 -0.049940 0.000001 0.358174 0.933655 163 159 149
0.329509 0.162317 -0.054049 0.000001 0.358174 0.933655 163 159 149
0.371444 0.129390 -0.049940 0.368895 0.140120 0.918848 163 159 149
0.379951 0.106993 -0.049940 0.368895 0.140120 0.918848 163 159 149
0.389341 0.109213 -0.054049 0.368895 0.140120 0.918848 163 159 149
0.379951 -0.099370 -0.049940 0.400835 -0.000000 0.916150 163 159 149
0.389341 -0.101850 -0.054049 0.400835 -0.000000 0.916150 163 159 149
0.389341 0.109213 -0.054049 0.400835 -0.000000 0.916150 163 159 149
0.356605 0.143938 -0.049940 0.264128 0.269413 0.926096 163 159 149
0.371444 0.129390 -0.049940 0.264128 0.269413 0.926096 163 159 149
0.379202 0.135906 -0.054049 0.264128 0.269413 0.926096 163 159 149
0.001235 0.151608 -0.049940 0.000000 -0.000000 1.000000 189 184 172
-0.004468 -0.150934 -0.049940 0.000000 -0.000000 1.000000 189 184 172
0.328973 -0.150935 -0.049940 0.000000 -0.000000 1.000000 189 184 172
0.395002 -0.103345 -0.070000 1.000000 0.000000 0.000021 110 107 100
0.395002 0.110552 -0.070000 1.000000 0.000000 0.000021 110 107 100
0.395002 -0.103345 -0.060029 1.000000 0.000000 0.000021 110 107 100
0.363647 0.159670 -0.070000 0.700070 0.714074 0.000017 110 107 100
0.363647 0.159670 -0.060029 0.700070 0.714074 0.000017 110 107 100
0.383880 0.139835 -0.070000 0.700070 0.714074 0.000017 110 107 100
0.331812 -0.168101 -0.070000 0.000000 -1.000000 0.000000 110 107 100
0.330175 0.168775 -0.070000 0.262458 0.964944 0.000016 110 107 100
0.330175 0.168774 -0.060029 0.262458 0.964944 0.000016 110 107 100
0.363647 0.159670 -0.070000 0.262458 0.964944 0.000016 110 107 100
0.395002 -0.103345 -0.070000 0.918968 -0.394331 0.000019 110 107 100
0.395002 -0.103345 -0.060029 0.918968 -0.394331 0.000019 110 107 100
0.380998 -0.135982 -0.070000 0.918968 -0.394331 0.000019 110 107 100
-0.033157 -0.159555 -0.070000 -0.751899 -0.659279 -0.000000 110 107 100
-0.033157 -0.159555 -0.060029 -0.751899 -0.659279 -0.000000 110 107 100
-0.050811 -0.139421 -0.070000 -0.751899 -0.659279 -0.000000 110 107 100
0.395002 0.110552 -0.060029 0.934836 0.355079 -0.000008 110 107 100
0.395002 0.110552 -0.070000 0.934836 0.355079 -0.000008 110 107 100
0.383880 0.139835 -0.060029 0.934836 0.355079 -0.000008 110 107 100
-0.030710 0.159951 -0.060029 -0.281840 0.959461 0.000022 110 107 100
-0.048892 0.142454 -0.070000 -0.979876 0.199607 0.000004 110 107 100
-0.056405 0.105571 -0.070000 -0.979876 0.199607 0.000004 110 107 100
-0.048892 0.142454 -0.060029 -0.979876 0.199607 0.000004 110 107 100
-0.033157 -0.159555 -0.060029 -0.305774 -0.952104 0.000000 110 107 100
-0.056405 -0.109720 -0.060029 -0.982722 -0.185090 0.000000 110 107 100
-0.056405 -0.109720 -0.070000 -0.982722 -0.185090 0.000000 110 107 100
-0.050811 -0.139421 -0.060029 -0.982722 -0.185090 0.000000 110 107 100
-0.056405 0.105571 -0.070000 -1.000000 0.000001 -0.000021 110 107 100
-0.056405 -0.109720 -0.070000 -1.000000 0.000001 -0.000021 110 107 100
-0.056405 0.105571 -0.060029 -1.000000 0.000001 -0.000021 110 107 100
0.330175 0.168774 -0.060029 0.000001 1.000000 0.000022 110 107 100
-0.030710 0.159951 -0.070000 -0.693406 0.720547 0.000016 110 107 100
0.380998 -0.135982 -0.070000 0.697306 -0.716774 -0.000001 110 107 100
0.331812 -0.168101 -0.060029 0.407394 -0.913252 0.000000 110 107 100
0.331812 -0.168101 -0.070000 0.407394 -0.913252 0.000000 110 107 100
0.361676 -0.154779 -0.060029 0.407394 -0.913252 0.000000 110 107 100
0.331812 -0.168101 -0.060029 0.000000 -0.679492 0.733683 143 139 130
0.389341 0.109213 -0.054049 0.726182 -0.000001 0.687503 143 139 130
0.389341 -0.101850 -0.054049 0.726182 -0.000001 0.687503 143 139 130
0.395002 0.110552 -0.060029 0.726182 -0.000001 0.687503 143 139 130
0.389341 -0.101850 -0.054049 0.660091 -0.283243 0.695739 143 139 130
0.376429 -0.131940 -0.054049 0.660091 -0.283243 0.695739 143 139 130
0.395002 -0.103345 -0.060029 0.660091 -0.283243 0.695739 143 139 130
-0.050744 -0.109034 -0.054049 -0.726188 0.000000 0.687496 143 139 130
-0.030710 0.159951 -0.060029 -0.192461 0.655188 0.730539 143 139 130
-0.028047 0.154066 -0.054049 -0.192461 0.655188 0.730539 143 139 130
-0.000672 0.168775 -0.060029 -0.192461 0.655188 0.730539 143 139 130
-0.005765 -0.161644 -0.054049 -0.208987 -0.650744 0.729970 143 139 130
-0.030200 -0.153797 -0.054049 -0.208987 -0.650744 0.729970 143 139 130
-0.006547 -0.168101 -0.060029 -0.208987 -0.650744 0.729970 143 139 130
0.376429 -0.131940 -0.054049 0.488846 -0.502500 0.713108 143 139 130
0.358727 -0.149162 -0.054049 0.488846 -0.502500 0.713108 143 139 130
0.380997 -0.135982 -0.060029 0.488846 -0.502500 0.713108 143 139 130
-0.000672 0.168775 -0.060029 0.000000 0.679493 0.733682 143 139 130
0.000045 0.162318 -0.054049 0.000000 0.679493 0.733682 143 139 130
0.330175 0.168774 -0.060029 0.000000 0.679493 0.733682 143 139 130
0.329509 0.162317 -0.054049 0.179102 0.658489 0.730968 143 139 130
0.360999 0.153753 -0.054049 0.179102 0.658489 0.730968 143 139 130
0.330175 0.168774 -0.060029 0.179102 0.658489 0.730968 143 139 130
-0.050744 0.104831 -0.054049 -0.709564 0.144546 0.689656 143 139 130
-0.043803 0.138903 -0.054049 -0.709564 0.144546 0.689656 143 139 130
-0.056405 0.105571 -0.060029 -0.709564 0.144546 0.689656 143 139 130
-0.033157 -0.159555 -0.060029 -0.529894 -0.464626 0.709461 143 139 130
-0.030200 -0.153797 -0.054049 -0.529894 -0.464626 0.709461 143 139 130
-0.050811 -0.139421 -0.060029 -0.529894 -0.464626 0.709461 143 139 130
0.363647 0.159670 -0.060029 0.490896 0.500725 0.712949 143 139 130
0.360999 0.153753 -0.054049 0.490896 0.500725 0.712949 143 139 130
0.383880 0.139835 -0.060029 0.490896 0.500725 0.712949 143 139 130
-0.043803 0.138903 -0.054049 -0.485929 0.504961 0.713363 143 139 130
-0.028047 0.154066 -0.054049 -0.485929 0.504961 0.713363 143 139 130
-0.048892 0.142454 -0.060029 -0.485929 0.504961 0.713363 143 139 130
-0.050811 -0.139421 -0.060029 -0.711920 -0.134086 0.689341 143 139 130
-0.045627 -0.136202 -0.054049 -0.711920 -0.134086 0.689341 143 139 130
-0.056405 -0.109720 -0.060029 -0.711920 -0.134086 0.689341 143 139 130
0.383880 0.139835 -0.060029 0.672859 0.255572 0.694222 143 139 130
0.379202 0.135906 -0.054049 0.672859 0.255572 0.694222 143 139 130
0.395002 0.110552 -0.060029 0.672859 0.255572 0.694222 143 139 130
0.358727 -0.149162 -0.054049 0.279726 -0.627074 0.727001 143 139 130
0.330744 -0.161644 -0.054049 0.279726 -0.627074 0.727001 143 139 130
0.361676 -0.154779 -0.060029 0.279726 -0.627074 0.727001 143 139 130
0.353835 -0.139844 -0.049940 0.148421 -0.332719 0.931273 163 159 149
0.328973 -0.150935 -0.049940 0.148421 -0.332719 0.931273 163 159 149
0.358727 -0.149162 -0.054049 0.148421 -0.332719 0.931273 163 159 149
0.379951 -0.099370 -0.049940 0.361333 -0.155048 0.919456 163 159 149
0.368852 -0.125235 -0.049940 0.361333 -0.155048 0.919456 163 159 149
0.389341 -0.101850 -0.054049 0.361333 -0.155048 0.919456 163 159 149
0.368852 -0.125235 -0.049940 0.262972 -0.270312 0.926163 163 159 149
0.353835 -0.139844 -0.049940 0.262972 -0.270312 0.926163 163 159 149
0.376429 -0.131940 -0.054049 0.262972 -0.270312 0.926163 163 159 149
-0.045627 -0.136202 -0.054049 -0.392216 -0.073870 0.916902 163 159 149
-0.037028 -0.130864 -0.049940 -0.392216 -0.073870 0.916902 163 159 149
-0.050744 -0.109034 -0.054049 -0.392216 -0.073870 0.916902 163 159 149
-0.004468 -0.150934 -0.049940 -0.110560 -0.344274 0.932337 163 159 149
-0.025294 -0.144246 -0.049940 -0.110560 -0.344274 0.932337 163 159 149
-0.005765 -0.161644 -0.054049 -0.110560 -0.344274 0.932337 163 159 149
-0.030200 -0.153797 -0.054049 -0.286100 -0.250864 0.924778 163 159 149
-0.025294 -0.144246 -0.049940 -0.286100 -0.250864 0.924778 163 159 149
-0.045627 -0.136202 -0.054049 -0.286100 -0.250864 0.924778 163 159 149
0.330744 -0.161644 -0.054049 0.000000 -0.358181 0.933652 163 159 149
0.328973 -0.150935 -0.049940 0.000000 -0.358181 0.933652 163 159 149
-0.005765 -0.161644 -0.054049 0.000000 -0.358181 0.933652 163 159 149
-0.028047 0.154066 -0.054049 -0.101768 0.346442 0.932535 163 159 149
-0.023629 0.144304 -0.049940 -0.101768 0.346442 0.932535 163 159 149
0.000045 0.162318 -0.054049 -0.101768 0.346442 0.932535 163 159 149
-0.041354 0.103603 -0.049940 -0.390813 0.079616 0.917020 163 159 149
-0.035363 0.133013 -0.049940 -0.390813 0.079616 0.917020 163 159 149
-0.050744 0.104831 -0.054049 -0.390813 0.079616 0.917020 163 159 149
-0.035363 0.133013 -0.049940 -0.261342 0.271567 0.926257 163 159 149
-0.023629 0.144304 -0.049940 -0.261342 0.271567 0.926257 163 159 149
-0.043803 0.138903 -0.054049 -0.261342 0.271567 0.926257 163 159 149
-0.041354 -0.107897 -0.049940 -0.400836 0.000000 0.916150 163 159 149
-0.041354 0.103603 -0.049940 -0.400836 0.000000 0.916150 163 159 149
-0.050744 -0.109034 -0.054049 -0.400836 0.000000 0.916150 163 159 149
0.328405 0.151608 -0.049940 0.094664 0.348042 0.932687 163 159 149
0.356605 0.143938 -0.049940 0.094664 0.348042 0.932687 163 159 149
0.329509 0.162317 -0.054049 0.094664 0.348042 0.932687 163 159 149
0.000045 0.162318 -0.054049 0.000000 0.358175 0.933655 163 159 149
0.001235 0.151608 -0.049940 0.000000 0.358175 0.933655 163 159 149
0.329509 0.162317 -0.054049 0.000000 0.358175 0.933655 163 159 149
0.379202 0.135906 -0.054049 0.368891 0.140116 0.918851 163 159 149
0.371444 0.129390 -0.049940 0.368891 0.140116 0.918851 163 159 149
0.389341 0.109213 -0.054049 0.368891 0.140116 0.918851 163 159 149
0.379951 0.106993 -0.049940 0.400841 -0.000001 0.916148 163 159 149
0.379951 -0.099370 -0.049940 0.400841 -0.000001 0.916148 163 159 149
0.389341 0.109213 -0.054049 0.400841 -0.000001 0.916148 163 159 149
0.360999 0.153753 -0.054049 0.264129 0.269415 0.926095 163 159 149
0.356605 0.143938 -0.049940 0.264129 0.269415 0.926095 163 159 149
0.379202 0.135906 -0.054049 0.264129 0.269415 0.926095 163 159 149
0.353835 -0.139844 -0.049940 0.000000 0.000000 1.000000 189 184 172
0.379951 -0.099370 -0.049940 0.000000 0.000000 1.000000 189 184 172
0.368852 -0.125235 -0.049940 -0.000000 0.000000 1.000000 189 184 172
0.379951 0.106993 -0.049940 0.000000 0.000000 1.000000 189 184 172
0.371444 0.129390 -0.049940 0.000000 0.000000 1.000000 189 184 172
0.356605 0.143938 -0.049940 0.000000 0.000000 1.000000 189 184 172
0.328405 0.151608 -0.049940 -0.000000 -0.000000 1.000000 189 184 172
-0.023629 0.144304 -0.049940 0.000000 0.000000 1.000000 189 184 172
-0.041354 0.103603 -0.049940 0.000000 0.000000 1.000000 189 184 172
-0.035363 0.133013 -0.049940 0.000000 -0.000000 1.000000 189 184 172
-0.041354 -0.107897 -0.049940 0.000000 0.000000 1.000000 189 184 172
-0.037028 -0.130864 -0.049940 0.000000 0.000000 1.000000 189 184 172
-0.025294 -0.144246 -0.049940 0.000000 0.000000 1.000000 189 184 172
3 0 1 2
3 3 4 5
3 6 7 8
3 9 10 11
3 12 13 14
3 15 16 17
3 18 19 20
3 21 22 23
3 24 25 26
3 27 28 29
3 30 31 32
3 33 34 35
3 36 37 38
3 39 40 41
3 42 43 44
3 45 46 47
3 48 49 50
3 51 52 53
3 54 55 56
3 57 58 59
3 60 61 62
3 63 64 65
3 66 67 68
3 69 70 71
3 72 73 74
3 75 76 77
3 78 79 80
3 81 82 83
3 84 85 86
3 87 88 89
3 90 91 92
3 93 94 95
3 96 97 98
3 99 100 101
3 102 103 104
3 105 106 107
3 108 109 110
3 111 112 113
3 114 115 116
3 117 118 119
3 120 121 122
3 123 124 125
3 126 127 128
3 129 130 131
3 132 133 134
3 135 136 137
3 138 139 140
3 141 142 143
3 144 145 146
3 147 148 149
3 150 151 152
3 153 6 8
3 154 155 156
3 157 158 159
3 160 161 162
3 163 164 165
3 166 21 23
3 167 168 169
3 170 27 29
3 171 172 173
3 174 175 176
3 177 36 38
3 178 39 41
3 179 42 44
3 180 181 182
3 183 48 50
3 184 185 186
3 187 188 189
3 190 57 59
3 191 192 193
3 194 195 196
3 197 198 199
3 200 201 202
3 203 204 205
3 206 207 208
3 209 210 211
3 212 213 214
3 215 216 217
3 218 219 220
3 221 222 223
3 224 225 226
3 227 228 229
3 230 231 232
3 233 234 235
3 236 237 238
3 239 240 241
3 242 243 244
3 245 246 247
3 248 249 250
3 251 252 253
3 254 255 256
3 257 258 259
3 260 261 262
3 263 264 265
3 266 267 268
3 269 270 271
3 272 273 274
3 146 275 276
3 277 276 275
3 278 279 280
3 280 281 278
3 144 282 283
3 284 283 282
3 285 286 287
3 287 145 285
3 146 276 281
3 278 281 276
3 144 283 145
3 285 145 283
3 146 281 144
