ply
format ascii 1.0
comment Created by Blender 2.76 (sub 0) - www.blender.org, source file: 'StoneButton_N.blend'
element vertex 284
property float x
property float y
property float z
property float nx
property float ny
property float nz
property uchar red
property uchar green
property uchar blue
element face 110
property list uchar uint vertex_indices
end_header
0.401956 0.113919 -0.070000 1.000000 -0.000002 -0.000001 110 107 100
0.401956 0.113919 0.134971 1.000000 -0.000002 -0.000001 110 107 100
0.401956 -0.106525 0.134971 1.000000 -0.000002 -0.000001 110 107 100
0.369641 0.164541 0.134971 0.700064 0.714080 -0.000000 110 107 100
0.390493 0.144099 0.134971 0.700064 0.714080 -0.000000 110 107 100
0.390493 0.144099 -0.070000 0.700064 0.714080 -0.000000 110 107 100
0.336831 -0.173264 0.134971 0.000000 -1.000000 0.000000 110 107 100
-0.011885 -0.173264 0.134971 0.000000 -1.000000 0.000000 110 107 100
-0.011885 -0.173264 -0.070000 0.000000 -1.000000 0.000000 110 107 100
0.335144 0.173924 0.134971 0.262459 0.964943 0.000001 110 107 100
0.369641 0.164541 0.134971 0.262459 0.964943 0.000001 110 107 100
0.369641 0.164541 -0.070000 0.262459 0.964943 0.000001 110 107 100
0.401956 -0.106525 0.134971 0.918970 -0.394328 0.000000 110 107 100
0.387522 -0.140162 0.134971 0.918970 -0.394328 0.000000 110 107 100
0.387523 -0.140161 -0.070000 0.918970 -0.394328 0.000000 110 107 100
-0.039311 -0.164456 0.134971 -0.751895 -0.659283 -0.000001 110 107 100
-0.057505 -0.143706 0.134971 -0.751895 -0.659283 -0.000001 110 107 100
-0.057505 -0.143706 -0.070000 -0.751895 -0.659283 -0.000001 110 107 100
0.401956 0.113919 -0.070000 0.934836 0.355080 -0.000001 110 107 100
0.390493 0.144099 -0.070000 0.934836 0.355080 -0.000001 110 107 100
0.390493 0.144099 0.134971 0.934836 0.355080 -0.000001 110 107 100
-0.005831 0.173924 0.134971 -0.281840 0.959461 0.000001 110 107 100
-0.005831 0.173924 -0.070000 -0.281840 0.959461 0.000001 110 107 100
-0.036788 0.164831 -0.070000 -0.281840 0.959461 0.000001 110 107 100
-0.063270 0.108786 -0.070000 -0.979875 0.199614 -0.000001 110 107 100
-0.063270 0.108786 0.134971 -0.979875 0.199614 -0.000001 110 107 100
-0.055527 0.146798 0.134971 -0.979875 0.199614 -0.000001 110 107 100
-0.039311 -0.164456 -0.070000 -0.305774 -0.952104 -0.000000 110 107 100
-0.011885 -0.173264 -0.070000 -0.305774 -0.952104 -0.000000 110 107 100
-0.011885 -0.173264 0.134971 -0.305774 -0.952104 -0.000000 110 107 100
-0.063270 -0.113095 0.134971 -0.982720 -0.185097 0.000000 110 107 100
-0.063270 -0.113095 -0.070000 -0.982720 -0.185097 0.000000 110 107 100
-0.057505 -0.143706 -0.070000 -0.982720 -0.185097 0.000000 110 107 100
-0.063270 -0.113095 0.134971 -1.000000 0.000001 -0.000001 110 107 100
-0.063270 0.108786 0.134971 -1.000000 0.000001 -0.000001 110 107 100
-0.063270 0.108786 -0.070000 -1.000000 0.000001 -0.000001 110 107 100
0.335144 0.173924 -0.070000 0.000001 1.000000 0.000001 110 107 100
-0.005831 0.173924 -0.070000 0.000001 1.000000 0.000001 110 107 100
-0.005831 0.173924 0.134971 0.000001 1.000000 0.000001 110 107 100
-0.055527 0.146798 -0.070000 -0.693406 0.720547 0.000001 110 107 100
-0.055527 0.146798 0.134971 -0.693406 0.720547 0.000001 110 107 100
-0.036788 0.164830 0.134971 -0.693406 0.720547 0.000001 110 107 100
0.387522 -0.140162 0.134971 0.697306 -0.716774 -0.000000 110 107 100
0.367609 -0.159534 0.134971 0.697306 -0.716774 -0.000000 110 107 100
0.367610 -0.159534 -0.070000 0.697306 -0.716774 -0.000000 110 107 100
0.336831 -0.173264 -0.070000 0.407398 -0.913251 -0.000001 110 107 100
0.367610 -0.159534 -0.070000 0.407398 -0.913251 -0.000001 110 107 100
0.367609 -0.159534 0.134971 0.407398 -0.913251 -0.000001 110 107 100
0.335731 -0.166609 0.140951 0.000000 -0.668402 0.743800 143 139 130
-0.011079 -0.166609 0.140951 0.000000 -0.668402 0.743800 143 139 130
-0.011885 -0.173264 0.134971 0.000000 -0.668402 0.743800 143 139 130
0.396121 -0.104984 0.140951 0.715751 -0.000001 0.698356 143 139 130
0.401956 -0.106525 0.134971 0.715751 -0.000001 0.698356 143 139 130
0.401956 0.113919 0.134971 0.715751 -0.000001 0.698356 143 139 130
0.382814 -0.135996 0.140951 0.650382 -0.279078 0.706484 143 139 130
0.387522 -0.140162 0.134971 0.650382 -0.279078 0.706484 143 139 130
0.401956 -0.106525 0.134971 0.650382 -0.279078 0.706484 143 139 130
-0.057436 0.108023 0.140951 -0.715749 0.000000 0.698357 143 139 130
-0.063270 0.108786 0.134971 -0.715749 0.000000 0.698357 143 139 130
-0.063270 -0.113095 0.134971 -0.715749 0.000000 0.698357 143 139 130
-0.034044 0.158765 0.140951 -0.189349 0.644589 0.740710 143 139 130
-0.005092 0.167270 0.140951 -0.189349 0.644589 0.740710 143 139 130
-0.005831 0.173924 0.134971 -0.189349 0.644589 0.740710 143 139 130
-0.036263 -0.158522 0.140951 -0.205615 -0.640234 0.740151 143 139 130
-0.039311 -0.164456 0.134971 -0.205615 -0.640234 0.740151 143 139 130
-0.011885 -0.173264 0.134971 -0.205615 -0.640234 0.740151 143 139 130
0.364570 -0.153745 0.140951 0.481295 -0.494733 0.723598 143 139 130
0.367609 -0.159534 0.134971 0.481295 -0.494733 0.723598 143 139 130
0.387522 -0.140162 0.134971 0.481295 -0.494733 0.723598 143 139 130
-0.005092 0.167270 0.140951 0.000001 0.668389 0.743811 143 139 130
0.334458 0.167269 0.140951 0.000001 0.668389 0.743811 143 139 130
0.335144 0.173924 0.134971 0.000001 0.668389 0.743811 143 139 130
0.366911 0.158442 0.140951 0.176205 0.647828 0.741128 143 139 130
0.369641 0.164541 0.134971 0.176205 0.647828 0.741128 143 139 130
0.335144 0.173924 0.134971 0.176205 0.647828 0.741128 143 139 130
-0.050282 0.143138 0.140951 -0.699304 0.142458 0.700485 143 139 130
-0.055527 0.146798 0.134971 -0.699304 0.142458 0.700485 143 139 130
-0.063270 0.108786 0.134971 -0.699304 0.142458 0.700485 143 139 130
-0.036263 -0.158522 0.140951 -0.521798 -0.457533 0.719993 143 139 130
-0.052163 -0.140389 0.140951 -0.521798 -0.457533 0.719993 143 139 130
-0.057505 -0.143706 0.134971 -0.521798 -0.457533 0.719993 143 139 130
0.366911 0.158442 0.140951 0.483319 0.492993 0.723437 143 139 130
0.385672 0.140049 0.140951 0.483319 0.492993 0.723437 143 139 130
0.390493 0.144099 0.134971 0.483319 0.492993 0.723437 143 139 130
-0.034044 0.158765 0.140951 -0.478417 0.497143 0.723856 143 139 130
-0.036788 0.164830 0.134971 -0.478417 0.497143 0.723856 143 139 130
-0.055527 0.146798 0.134971 -0.478417 0.497143 0.723856 143 139 130
-0.052163 -0.140389 0.140951 -0.701624 -0.132143 0.700187 143 139 130
-0.057436 -0.112389 0.140951 -0.701624 -0.132143 0.700187 143 139 130
-0.063270 -0.113095 0.134971 -0.701624 -0.132143 0.700187 143 139 130
0.385672 0.140049 0.140951 0.663002 0.251828 0.704990 143 139 130
0.396121 0.112540 0.140951 0.663002 0.251828 0.704990 143 139 130
0.401956 0.113919 0.134971 0.663002 0.251828 0.704990 143 139 130
0.335731 -0.166609 0.140951 0.275240 -0.617002 0.737259 143 139 130
0.336831 -0.173264 0.134971 0.275240 -0.617002 0.737259 143 139 130
0.367609 -0.159534 0.134971 0.275240 -0.617002 0.737259 143 139 130
0.333905 -0.155572 0.145060 0.144575 -0.324100 0.934910 163 159 149
0.335731 -0.166609 0.140951 0.144575 -0.324100 0.934910 163 159 149
0.364570 -0.153745 0.140951 0.144575 -0.324100 0.934910 163 159 149
0.375005 -0.129086 0.145060 0.352195 -0.151126 0.923645 163 159 149
0.382814 -0.135996 0.140951 0.352195 -0.151126 0.923645 163 159 149
0.396121 -0.104984 0.140951 0.352195 -0.151126 0.923645 163 159 149
0.359528 -0.144142 0.145060 0.256231 -0.263388 0.930039 163 159 149
0.364570 -0.153745 0.140951 0.256231 -0.263388 0.930039 163 159 149
0.382814 -0.135996 0.140951 0.256231 -0.263388 0.930039 163 159 149
-0.043300 -0.134887 0.145060 -0.382356 -0.072014 0.921205 163 159 149
-0.047758 -0.111217 0.145060 -0.382356 -0.072014 0.921205 163 159 149
-0.057436 -0.112389 0.140951 -0.382356 -0.072014 0.921205 163 159 149
-0.031207 -0.148679 0.145060 -0.107695 -0.335340 0.935922 163 159 149
-0.036263 -0.158522 0.140951 -0.107695 -0.335340 0.935922 163 159 149
-0.011079 -0.166609 0.140951 -0.107695 -0.335340 0.935922 163 159 149
-0.031207 -0.148679 0.145060 -0.278785 -0.244447 0.928722 163 159 149
-0.043300 -0.134887 0.145060 -0.278785 -0.244447 0.928722 163 159 149
-0.052163 -0.140389 0.140951 -0.278785 -0.244447 0.928722 163 159 149
0.333905 -0.155572 0.145060 -0.000000 -0.348841 0.937182 163 159 149
-0.009743 -0.155572 0.145060 -0.000000 -0.348841 0.937182 163 159 149
-0.011079 -0.166609 0.140951 -0.000000 -0.348841 0.937182 163 159 149
-0.029491 0.148705 0.145060 -0.099121 0.337437 0.936115 163 159 149
-0.003865 0.156232 0.145060 -0.099121 0.337437 0.936115 163 159 149
-0.005092 0.167270 0.140951 -0.099121 0.337437 0.936115 163 159 149
-0.041583 0.137068 0.145060 -0.380975 0.077609 0.921323 163 159 149
-0.050282 0.143138 0.140951 -0.380975 0.077609 0.921323 163 159 149
-0.057436 0.108023 0.140951 -0.380975 0.077609 0.921323 163 159 149
-0.029491 0.148705 0.145060 -0.254642 0.264615 0.930127 163 159 149
-0.034044 0.158765 0.140951 -0.254642 0.264615 0.930127 163 159 149
-0.050282 0.143138 0.140951 -0.254642 0.264615 0.930127 163 159 149
-0.047758 0.106758 0.145060 -0.390776 0.000000 0.920486 163 159 149
-0.057436 0.108023 0.140951 -0.390776 0.000000 0.920486 163 159 149
-0.057436 -0.112389 0.140951 -0.390776 0.000000 0.920486 163 159 149
0.362383 0.148327 0.145060 0.092203 0.338997 0.936258 163 159 149
0.366911 0.158442 0.140951 0.092203 0.338997 0.936258 163 159 149
0.334458 0.167269 0.140951 0.092203 0.338997 0.936258 163 159 149
-0.003865 0.156232 0.145060 0.000000 0.348847 0.937180 163 159 149
0.333320 0.156232 0.145060 0.000000 0.348847 0.937180 163 159 149
0.334458 0.167269 0.140951 0.000000 0.348847 0.937180 163 159 149
0.377676 0.133333 0.145060 0.359580 0.136582 0.923064 163 159 149
0.386444 0.110252 0.145060 0.359580 0.136582 0.923064 163 159 149
0.396121 0.112540 0.140951 0.359580 0.136582 0.923064 163 159 149
0.386443 -0.102429 0.145060 0.390771 -0.000000 0.920488 163 159 149
0.396121 -0.104984 0.140951 0.390771 -0.000000 0.920488 163 159 149
0.396121 0.112540 0.140951 0.390771 -0.000000 0.920488 163 159 149
0.362383 0.148327 0.145060 0.257357 0.262505 0.929978 163 159 149
0.377676 0.133333 0.145060 0.257357 0.262505 0.929978 163 159 149
0.385672 0.140049 0.140951 0.257357 0.262505 0.929978 163 159 149
-0.003865 0.156232 0.145060 0.000000 -0.000000 1.000000 189 184 172
-0.009743 -0.155572 0.145060 0.000000 -0.000000 1.000000 189 184 172
0.333905 -0.155572 0.145060 0.000000 -0.000000 1.000000 189 184 172
0.401956 -0.106525 -0.070000 1.000000 0.000000 0.000001 110 107 100
0.401956 0.113919 -0.070000 1.000000 0.000000 0.000001 110 107 100
0.401956 -0.106525 0.134971 1.000000 0.000000 0.000001 110 107 100
0.369641 0.164541 -0.070000 0.700070 0.714074 0.000001 110 107 100
0.369641 0.164541 0.134971 0.700070 0.714074 0.000001 110 107 100
0.390493 0.144099 -0.070000 0.700070 0.714074 0.000001 110 107 100
0.336831 -0.173264 -0.070000 0.000000 -1.000000 0.000000 110 107 100
0.335144 0.173924 -0.070000 0.262458 0.964944 0.000001 110 107 100
0.335144 0.173924 0.134971 0.262458 0.964944 0.000001 110 107 100
0.369641 0.164541 -0.070000 0.262458 0.964944 0.000001 110 107 100
0.401956 -0.106525 -0.070000 0.918968 -0.394331 0.000001 110 107 100
0.401956 -0.106525 0.134971 0.918968 -0.394331 0.000001 110 107 100
0.387523 -0.140161 -0.070000 0.918968 -0.394331 0.000001 110 107 100
-0.039311 -0.164456 -0.070000 -0.751899 -0.659279 -0.000000 110 107 100
-0.039311 -0.164456 0.134971 -0.751899 -0.659279 -0.000000 110 107 100
-0.057505 -0.143706 -0.070000 -0.751899 -0.659279 -0.000000 110 107 100
0.401956 0.113919 0.134971 0.934836 0.355080 -0.000001 110 107 100
-0.036788 0.164830 0.134971 -0.281840 0.959461 0.000001 110 107 100
-0.055527 0.146798 -0.070000 -0.979876 0.199607 0.000000 110 107 100
-0.063270 0.108786 -0.070000 -0.979876 0.199607 0.000000 110 107 100
-0.055527 0.146798 0.134971 -0.979876 0.199607 0.000000 110 107 100
-0.039311 -0.164456 0.134971 -0.305774 -0.952104 0.000000 110 107 100
-0.057505 -0.143706 0.134971 -0.982722 -0.185090 -0.000001 110 107 100
-0.063270 -0.113095 0.134971 -0.982722 -0.185090 -0.000001 110 107 100
-0.057505 -0.143706 -0.070000 -0.982722 -0.185090 -0.000001 110 107 100
-0.063270 -0.113095 -0.070000 -1.000000 0.000002 0.000000 110 107 100
-0.063270 -0.113095 0.134971 -1.000000 0.000002 0.000000 110 107 100
-0.063270 0.108786 -0.070000 -1.000000 0.000002 0.000000 110 107 100
0.335144 0.173924 0.134971 0.000001 1.000000 0.000001 110 107 100
-0.036788 0.164831 -0.070000 -0.693406 0.720547 0.000001 110 107 100
0.387523 -0.140161 -0.070000 0.697306 -0.716774 -0.000000 110 107 100
0.336831 -0.173264 0.134971 0.407395 -0.913252 0.000000 110 107 100
0.336831 -0.173264 -0.070000 0.407395 -0.913252 0.000000 110 107 100
0.367609 -0.159534 0.134971 0.407395 -0.913252 0.000000 110 107 100
0.336831 -0.173264 0.134971 0.000000 -0.668402 0.743800 143 139 130
0.396121 0.112540 0.140951 0.715742 -0.000001 0.698365 143 139 130
0.396121 -0.104984 0.140951 0.715742 -0.000001 0.698365 143 139 130
0.401956 0.113919 0.134971 0.715742 -0.000001 0.698365 143 139 130
0.396121 -0.104984 0.140951 0.650381 -0.279077 0.706485 143 139 130
0.382814 -0.135996 0.140951 0.650381 -0.279077 0.706485 143 139 130
0.401956 -0.106525 0.134971 0.650381 -0.279077 0.706485 143 139 130
-0.057436 -0.112389 0.140951 -0.715750 0.000000 0.698357 143 139 130
-0.057436 0.108023 0.140951 -0.715750 0.000000 0.698357 143 139 130
-0.063270 -0.113095 0.134971 -0.715750 0.000000 0.698357 143 139 130
-0.036788 0.164830 0.134971 -0.189345 0.644585 0.740715 143 139 130
-0.034044 0.158765 0.140951 -0.189345 0.644585 0.740715 143 139 130
-0.005831 0.173924 0.134971 -0.189345 0.644585 0.740715 143 139 130
-0.011079 -0.166609 0.140951 -0.205610 -0.640228 0.740158 143 139 130
-0.036263 -0.158522 0.140951 -0.205610 -0.640228 0.740158 143 139 130
-0.011885 -0.173264 0.134971 -0.205610 -0.640228 0.740158 143 139 130
0.382814 -0.135996 0.140951 0.481298 -0.494740 0.723591 143 139 130
0.364570 -0.153745 0.140951 0.481298 -0.494740 0.723591 143 139 130
0.387522 -0.140162 0.134971 0.481298 -0.494740 0.723591 143 139 130
-0.005831 0.173924 0.134971 0.000000 0.668403 0.743800 143 139 130
-0.005092 0.167270 0.140951 0.000000 0.668403 0.743800 143 139 130
0.335144 0.173924 0.134971 0.000000 0.668403 0.743800 143 139 130
0.334458 0.167269 0.140951 0.176199 0.647819 0.741137 143 139 130
0.366911 0.158442 0.140951 0.176199 0.647819 0.741137 143 139 130
0.335144 0.173924 0.134971 0.176199 0.647819 0.741137 143 139 130
-0.057436 0.108023 0.140951 -0.699301 0.142456 0.700489 143 139 130
-0.050282 0.143138 0.140951 -0.699301 0.142456 0.700489 143 139 130
-0.063270 0.108786 0.134971 -0.699301 0.142456 0.700489 143 139 130
-0.039311 -0.164456 0.134971 -0.521794 -0.457524 0.720002 143 139 130
-0.036263 -0.158522 0.140951 -0.521794 -0.457524 0.720002 143 139 130
-0.057505 -0.143706 0.134971 -0.521794 -0.457524 0.720002 143 139 130
0.369641 0.164541 0.134971 0.483320 0.492996 0.723435 143 139 130
0.366911 0.158442 0.140951 0.483320 0.492996 0.723435 143 139 130
0.390493 0.144099 0.134971 0.483320 0.492996 0.723435 143 139 130
-0.050282 0.143138 0.140951 -0.478421 0.497159 0.723841 143 139 130
-0.034044 0.158765 0.140951 -0.478421 0.497159 0.723841 143 139 130
-0.055527 0.146798 0.134971 -0.478421 0.497159 0.723841 143 139 130
-0.057505 -0.143706 0.134971 -0.701633 -0.132149 0.700177 143 139 130
-0.052163 -0.140389 0.140951 -0.701633 -0.132149 0.700177 143 139 130
-0.063270 -0.113095 0.134971 -0.701633 -0.132149 0.700177 143 139 130
0.390493 0.144099 0.134971 0.663002 0.251828 0.704990 143 139 130
0.364570 -0.153745 0.140951 0.275241 -0.617021 0.737243 143 139 130
0.335731 -0.166609 0.140951 0.275241 -0.617021 0.737243 143 139 130
0.367609 -0.159534 0.134971 0.275241 -0.617021 0.737243 143 139 130
0.359528 -0.144142 0.145060 0.144575 -0.324097 0.934911 163 159 149
0.333905 -0.155572 0.145060 0.144575 -0.324097 0.934911 163 159 149
0.364570 -0.153745 0.140951 0.144575 -0.324097 0.934911 163 159 149
0.386443 -0.102429 0.145060 0.352197 -0.151128 0.923644 163 159 149
0.375005 -0.129086 0.145060 0.352197 -0.151128 0.923644 163 159 149
0.396121 -0.104984 0.140951 0.352197 -0.151128 0.923644 163 159 149
0.375005 -0.129086 0.145060 0.256230 -0.263382 0.930041 163 159 149
0.359528 -0.144142 0.145060 0.256230 -0.263382 0.930041 163 159 149
0.382814 -0.135996 0.140951 0.256230 -0.263382 0.930041 163 159 149
-0.052163 -0.140389 0.140951 -0.382353 -0.072012 0.921206 163 159 149
-0.043300 -0.134887 0.145060 -0.382353 -0.072012 0.921206 163 159 149
-0.057436 -0.112389 0.140951 -0.382353 -0.072012 0.921206 163 159 149
-0.009743 -0.155572 0.145060 -0.107689 -0.335334 0.935924 163 159 149
-0.031207 -0.148679 0.145060 -0.107689 -0.335334 0.935924 163 159 149
-0.011079 -0.166609 0.140951 -0.107689 -0.335334 0.935924 163 159 149
-0.036263 -0.158522 0.140951 -0.278786 -0.244450 0.928721 163 159 149
-0.031207 -0.148679 0.145060 -0.278786 -0.244450 0.928721 163 159 149
-0.052163 -0.140389 0.140951 -0.278786 -0.244450 0.928721 163 159 149
0.335731 -0.166609 0.140951 0.000000 -0.348854 0.937177 163 159 149
0.333905 -0.155572 0.145060 0.000000 -0.348854 0.937177 163 159 149
-0.011079 -0.166609 0.140951 0.000000 -0.348854 0.937177 163 159 149
-0.034044 0.158765 0.140951 -0.099124 0.337441 0.936113 163 159 149
-0.029491 0.148705 0.145060 -0.099124 0.337441 0.936113 163 159 149
-0.005092 0.167270 0.140951 -0.099124 0.337441 0.936113 163 159 149
-0.047758 0.106758 0.145060 -0.380983 0.077614 0.921319 163 159 149
-0.041583 0.137068 0.145060 -0.380983 0.077614 0.921319 163 159 149
-0.057436 0.108023 0.140951 -0.380983 0.077614 0.921319 163 159 149
-0.041583 0.137068 0.145060 -0.254640 0.264603 0.930131 163 159 149
-0.029491 0.148705 0.145060 -0.254640 0.264603 0.930131 163 159 149
-0.050282 0.143138 0.140951 -0.254640 0.264603 0.930131 163 159 149
-0.047758 -0.111217 0.145060 -0.390771 0.000000 0.920488 163 159 149
-0.047758 0.106758 0.145060 -0.390771 0.000000 0.920488 163 159 149
-0.057436 -0.112389 0.140951 -0.390771 0.000000 0.920488 163 159 149
0.333320 0.156232 0.145060 0.092204 0.338997 0.936258 163 159 149
0.362383 0.148327 0.145060 0.092204 0.338997 0.936258 163 159 149
0.334458 0.167269 0.140951 0.092204 0.338997 0.936258 163 159 149
-0.005092 0.167270 0.140951 0.000000 0.348847 0.937180 163 159 149
0.385672 0.140049 0.140951 0.359576 0.136578 0.923066 163 159 149
0.377676 0.133333 0.145060 0.359576 0.136578 0.923066 163 159 149
0.396121 0.112540 0.140951 0.359576 0.136578 0.923066 163 159 149
0.386444 0.110252 0.145060 0.390776 -0.000001 0.920486 163 159 149
0.386443 -0.102429 0.145060 0.390776 -0.000001 0.920486 163 159 149
0.396121 0.112540 0.140951 0.390776 -0.000001 0.920486 163 159 149
0.366911 0.158442 0.140951 0.257358 0.262509 0.929977 163 159 149
0.362383 0.148327 0.145060 0.257358 0.262509 0.929977 163 159 149
0.385672 0.140049 0.140951 0.257358 0.262509 0.929977 163 159 149
0.359528 -0.144142 0.145060 0.000000 0.000000 1.000000 189 184 172
0.386443 -0.102429 0.145060 0.000000 0.000000 1.000000 189 184 172
0.375005 -0.129086 0.145060 -0.000000 0.000000 1.000000 189 184 172
0.386444 0.110252 0.145060 0.000000 0.000000 1.000000 189 184 172
0.377676 0.133333 0.145060 0.000000 0.000000 1.000000 189 184 172
0.362383 0.148327 0.145060 0.000000 0.000000 1.000000 189 184 172
0.333320 0.156232 0.145060 -0.000000 -0.000000 1.000000 189 184 172
-0.029491 0.148705 0.145060 0.000000 0.000000 1.000000 189 184 172
-0.047758 0.106758 0.145060 0.000000 0.000000 1.000000 189 184 172
-0.041583 0.137068 0.145060 0.000000 -0.000000 1.000000 189 184 172
-0.047758 -0.111217 0.145060 0.000000 0.000000 1.000000 189 184 172
-0.043300 -0.134887 0.145060 0.000000 0.000000 1.000000 189 184 172
-0.031207 -0.148679 0.145060 0.000000 0.000000 1.000000 189 184 172
3 0 1 2
3 3 4 5
3 6 7 8
3 9 10 11
3 12 13 14
3 15 16 17
3 18 19 20
3 21 22 23
3 24 25 26
3 27 28 29
3 30 31 32
3 33 34 35
3 36 37 38
3 39 40 41
3 42 43 44
3 45 46 47
3 48 49 50
3 51 52 53
3 54 55 56
3 57 58 59
3 60 61 62
3 63 64 65
3 66 67 68
3 69 70 71
3 72 73 74
3 75 76 77
3 78 79 80
3 81 82 83
3 84 85 86
3 87 88 89
3 90 91 92
3 93 94 95
3 96 97 98
3 99 100 101
3 102 103 104
3 105 106 107
3 108 109 110
3 111 112 113
3 114 115 116
3 117 118 119
3 120 121 122
3 123 124 125
3 126 127 128
3 129 130 131
3 132 133 134
3 135 136 137
3 138 139 140
3 141 142 143
3 144 145 146
3 147 148 149
3 150 151 152
3 153 6 8
3 154 155 156
3 157 158 159
3 160 161 162
3 163 18 20
3 164 21 23
3 165 166 167
3 168 27 29
3 169 170 171
3 172 173 174
3 175 36 38
3 176 39 41
3 177 42 44
3 178 179 180
3 181 48 50
3 182 183 184
3 185 186 187
3 188 189 190
3 191 192 193
3 194 195 196
3 197 198 199
3 200 201 202
3 203 204 205
3 206 207 208
3 209 210 211
3 212 213 214
3 215 216 217
3 218 219 220
3 221 90 92
3 222 223 224
3 225 226 227
3 228 229 230
3 231 232 233
3 234 235 236
3 237 238 239
3 240 241 242
3 243 244 245
3 246 247 248
3 249 250 251
3 252 253 254
3 255 256 257
3 258 259 260
3 261 132 134
3 262 263 264
3 265 266 267
3 268 269 270
3 146 271 272
3 273 272 271
3 274 275 276
3 276 277 274
3 144 278 279
3 280 279 278
3 281 282 283
3 283 145 281
3 146 272 277
3 274 277 272
3 144 279 145
3 281 145 279
3 146 277 144
