ply
format ascii 1.0
comment Created by Blender 2.76 (sub 0) - www.blender.org, source file: 'Surfacer.blend'
element vertex 553
property float x
property float y
property float z
property float nx
property float ny
property float nz
property uchar red
property uchar green
property uchar blue
element face 199
property list uchar uint vertex_indices
end_header
-0.002881 0.471750 0.244119 -0.303532 0.934171 -0.187599 219 104 255
-0.030416 0.451745 0.189050 -0.303532 0.934171 -0.187599 219 104 255
-0.064450 0.451746 0.244119 -0.303532 0.934171 -0.187599 219 104 255
-0.002881 0.471750 0.244119 -0.306570 0.943521 0.125632 193 92 224
-0.064450 0.451746 0.244119 -0.306570 0.943521 0.125632 193 92 224
-0.031832 0.456106 0.290963 -0.306570 0.943521 0.125632 193 92 224
-0.091984 0.367004 0.189050 -0.904989 -0.268031 -0.330385 180 85 209
-0.078677 0.311936 0.197274 -0.904989 -0.268031 -0.330385 180 85 209
-0.102501 0.334636 0.244119 -0.904989 -0.268031 -0.330385 180 85 209
-0.102501 0.399372 0.244119 -0.982246 0.000000 -0.187599 219 104 255
-0.091984 0.367004 0.189050 -0.982246 0.000000 -0.187599 219 104 255
-0.102501 0.334636 0.244119 -0.982246 0.000000 -0.187599 219 104 255
-0.102501 0.399372 0.244119 -0.992077 0.000000 0.125629 193 92 224
-0.102501 0.334636 0.244119 -0.992077 0.000000 0.125629 193 92 224
-0.096569 0.367004 0.290963 -0.992077 0.000000 0.125629 193 92 224
0.014135 0.314631 0.155016 0.038531 -0.748779 -0.661699 180 85 209
0.026069 0.277902 0.197274 0.038531 -0.748779 -0.661699 180 85 209
-0.030416 0.282263 0.189050 0.038531 -0.748779 -0.661699 180 85 209
-0.047432 0.334636 0.155016 -0.187595 -0.577345 -0.794658 219 104 255
0.014135 0.314631 0.155016 -0.187595 -0.577345 -0.794658 219 104 255
-0.030416 0.282263 0.189050 -0.187595 -0.577345 -0.794658 219 104 255
-0.047432 0.334636 0.155016 -0.471299 -0.583122 -0.661699 193 92 224
-0.030416 0.282263 0.189050 -0.471299 -0.583122 -0.661699 193 92 224
-0.078677 0.311936 0.197274 -0.471299 -0.583122 -0.661699 193 92 224
0.052187 0.367004 0.155016 0.724042 -0.194736 -0.661695 193 92 224
0.090806 0.367004 0.197274 0.724042 -0.194736 -0.661695 193 92 224
0.069204 0.314631 0.189050 0.724042 -0.194736 -0.661695 193 92 224
0.014135 0.314631 0.155016 0.491119 -0.356821 -0.794658 219 104 255
0.052187 0.367004 0.155016 0.491119 -0.356821 -0.794658 219 104 255
0.069204 0.314631 0.189050 0.491119 -0.356821 -0.794658 219 104 255
0.014135 0.314631 0.155016 0.408945 -0.628426 -0.661699 193 92 224
0.069204 0.314631 0.189050 0.408945 -0.628426 -0.661699 193 92 224
0.026069 0.277902 0.197274 0.408945 -0.628426 -0.661699 193 92 224
0.014135 0.419377 0.155016 0.408945 0.628426 -0.661698 193 92 224
0.026069 0.456106 0.197274 0.408945 0.628426 -0.661698 193 92 224
0.069204 0.419377 0.189050 0.408945 0.628426 -0.661698 193 92 224
0.052187 0.367004 0.155016 0.491119 0.356820 -0.794658 219 104 255
0.014135 0.419377 0.155016 0.491119 0.356820 -0.794658 219 104 255
0.069204 0.419377 0.189050 0.491119 0.356820 -0.794658 219 104 255
0.052187 0.367004 0.155016 0.724042 0.194736 -0.661695 180 85 209
0.069204 0.419377 0.189050 0.724042 0.194736 -0.661695 180 85 209
0.090806 0.367004 0.197274 0.724042 0.194736 -0.661695 180 85 209
-0.047432 0.399372 0.155016 -0.331305 0.000000 -0.943524 180 85 209
-0.002881 0.367004 0.139372 -0.331305 0.000000 -0.943524 180 85 209
-0.047432 0.334636 0.155016 -0.331305 0.000000 -0.943524 180 85 209
-0.091984 0.367004 0.189050 -0.607060 0.000000 -0.794656 219 104 255
-0.047432 0.399372 0.155016 -0.607060 0.000000 -0.794656 219 104 255
-0.047432 0.334636 0.155016 -0.607060 0.000000 -0.794656 219 104 255
-0.091984 0.367004 0.189050 -0.700224 -0.268032 -0.661699 193 92 224
-0.047432 0.334636 0.155016 -0.700224 -0.268032 -0.661699 193 92 224
-0.078677 0.311936 0.197274 -0.700224 -0.268032 -0.661699 193 92 224
-0.047432 0.399372 0.155016 -0.471299 0.583122 -0.661699 180 85 209
-0.078677 0.422072 0.197274 -0.471299 0.583122 -0.661699 180 85 209
-0.030416 0.451745 0.189050 -0.471299 0.583122 -0.661699 180 85 209
0.014135 0.419377 0.155016 -0.187595 0.577345 -0.794658 219 104 255
-0.047432 0.399372 0.155016 -0.187595 0.577345 -0.794658 219 104 255
-0.030416 0.451745 0.189050 -0.187595 0.577345 -0.794658 219 104 255
0.014135 0.419377 0.155016 0.038531 0.748779 -0.661699 193 92 224
-0.030416 0.451745 0.189050 0.038531 0.748779 -0.661699 193 92 224
0.026069 0.456106 0.197274 0.038531 0.748779 -0.661699 193 92 224
-0.096569 0.367004 0.290963 -0.724042 -0.194736 0.661696 164 78 191
-0.074967 0.314631 0.299187 -0.724042 -0.194736 0.661696 164 78 191
-0.057950 0.367004 0.333221 -0.724042 -0.194736 0.661696 164 78 191
-0.031832 0.277902 0.290963 -0.038532 -0.748779 0.661699 164 78 191
0.024653 0.282263 0.299188 -0.038532 -0.748779 0.661699 164 78 191
-0.019898 0.314631 0.333221 -0.038532 -0.748779 0.661699 164 78 191
0.072914 0.311936 0.290963 0.700224 -0.268032 0.661699 193 92 224
0.086221 0.367004 0.299187 0.700224 -0.268032 0.661699 193 92 224
0.041669 0.334636 0.333221 0.700224 -0.268032 0.661699 193 92 224
0.072914 0.422072 0.290963 0.471300 0.583122 0.661699 193 92 224
0.024653 0.451745 0.299188 0.471300 0.583122 0.661699 193 92 224
0.041669 0.399372 0.333221 0.471300 0.583122 0.661699 193 92 224
-0.031832 0.456106 0.290963 -0.408945 0.628426 0.661698 193 92 224
-0.074967 0.419377 0.299187 -0.408945 0.628426 0.661698 193 92 224
-0.019898 0.419377 0.333221 -0.408945 0.628426 0.661698 193 92 224
-0.078677 0.311936 0.197274 -0.802609 -0.583127 -0.125627 193 92 224
-0.064450 0.282263 0.244119 -0.802609 -0.583127 -0.125627 193 92 224
-0.102501 0.334636 0.244119 -0.802609 -0.583127 -0.125627 193 92 224
0.026069 0.277902 0.197274 0.306570 -0.943521 -0.125629 193 92 224
0.058687 0.282263 0.244119 0.306570 -0.943521 -0.125629 193 92 224
-0.002882 0.262258 0.244119 0.306570 -0.943521 -0.125629 193 92 224
0.090806 0.367004 0.197274 0.992077 -0.000000 -0.125629 164 78 191
0.096738 0.399372 0.244119 0.992077 -0.000000 -0.125629 164 78 191
0.096738 0.334636 0.244119 0.992077 -0.000000 -0.125629 164 78 191
0.026069 0.456106 0.197274 0.306570 0.943521 -0.125632 193 92 224
-0.002881 0.471750 0.244119 0.306570 0.943521 -0.125632 193 92 224
0.058687 0.451746 0.244119 0.306570 0.943521 -0.125632 193 92 224
-0.078677 0.422072 0.197274 -0.802609 0.583127 -0.125628 193 92 224
-0.102501 0.399372 0.244119 -0.802609 0.583127 -0.125628 193 92 224
-0.064450 0.451746 0.244119 -0.802609 0.583127 -0.125628 193 92 224
-0.078677 0.311936 0.197274 -0.534576 -0.777865 -0.330386 164 78 191
-0.030416 0.282263 0.189050 -0.534576 -0.777865 -0.330386 164 78 191
-0.064450 0.282263 0.244119 -0.534576 -0.777865 -0.330386 164 78 191
0.026069 0.277902 0.197274 0.574601 -0.748784 -0.330387 164 78 191
0.069204 0.314631 0.189050 0.574601 -0.748784 -0.330387 164 78 191
0.058687 0.282263 0.244119 0.574601 -0.748784 -0.330387 164 78 191
0.090806 0.367004 0.197274 0.889697 0.315094 -0.330385 193 92 224
0.069204 0.419377 0.189050 0.889697 0.315094 -0.330385 193 92 224
0.096738 0.399372 0.244119 0.889697 0.315094 -0.330385 193 92 224
0.026069 0.456106 0.197274 -0.024745 0.943520 -0.330389 164 78 191
-0.030416 0.451745 0.189050 -0.024745 0.943520 -0.330389 164 78 191
-0.002881 0.471750 0.244119 -0.024745 0.943520 -0.330389 164 78 191
-0.078677 0.422072 0.197274 -0.904989 0.268032 -0.330385 164 78 191
-0.091984 0.367004 0.189050 -0.904989 0.268032 -0.330385 164 78 191
-0.102501 0.399372 0.244119 -0.904989 0.268032 -0.330385 164 78 191
-0.002881 0.367004 0.139372 -0.102381 -0.315090 -0.943523 193 92 224
0.014135 0.314631 0.155016 -0.102381 -0.315090 -0.943523 193 92 224
-0.047432 0.334636 0.155016 -0.102381 -0.315090 -0.943523 193 92 224
-0.002881 0.367004 0.139372 0.268034 -0.194736 -0.943523 193 92 224
0.052187 0.367004 0.155016 0.268034 -0.194736 -0.943523 193 92 224
0.014135 0.314631 0.155016 0.268034 -0.194736 -0.943523 193 92 224
-0.002881 0.367004 0.139372 0.268035 0.194736 -0.943523 164 78 191
0.014135 0.419377 0.155016 0.268035 0.194736 -0.943523 164 78 191
0.052187 0.367004 0.155016 0.268035 0.194736 -0.943523 164 78 191
-0.078677 0.422072 0.197274 -0.700223 0.268032 -0.661699 193 92 224
-0.047432 0.399372 0.155016 -0.700223 0.268032 -0.661699 193 92 224
-0.091984 0.367004 0.189050 -0.700223 0.268032 -0.661699 193 92 224
-0.002881 0.367004 0.139372 -0.102381 0.315090 -0.943523 193 92 224
-0.047432 0.399372 0.155016 -0.102381 0.315090 -0.943523 193 92 224
0.014135 0.419377 0.155016 -0.102381 0.315090 -0.943523 193 92 224
-0.030416 0.451745 0.189050 -0.534576 0.777864 -0.330387 193 92 224
-0.078677 0.422072 0.197274 -0.534576 0.777864 -0.330387 193 92 224
-0.064450 0.451746 0.244119 -0.534576 0.777864 -0.330387 193 92 224
0.096738 0.399372 0.244119 0.802609 0.583126 0.125628 193 92 224
0.058687 0.451746 0.244119 0.802609 0.583126 0.125628 193 92 224
0.072914 0.422072 0.290963 0.802609 0.583126 0.125628 193 92 224
0.096738 0.399372 0.244119 0.794656 0.577347 -0.187595 219 104 255
0.069204 0.419377 0.189050 0.794656 0.577347 -0.187595 219 104 255
0.058687 0.451746 0.244119 0.794656 0.577347 -0.187595 219 104 255
0.069204 0.419377 0.189050 0.574601 0.748784 -0.330389 180 85 209
0.026069 0.456106 0.197274 0.574601 0.748784 -0.330389 180 85 209
0.058687 0.451746 0.244119 0.574601 0.748784 -0.330389 180 85 209
0.058687 0.282263 0.244119 0.802608 -0.583127 0.125627 193 92 224
0.096738 0.334636 0.244119 0.802608 -0.583127 0.125627 193 92 224
0.072914 0.311936 0.290963 0.802608 -0.583127 0.125627 193 92 224
0.058687 0.282263 0.244119 0.794655 -0.577349 -0.187595 219 104 255
0.069204 0.314631 0.189050 0.794655 -0.577349 -0.187595 219 104 255
0.096738 0.334636 0.244119 0.794655 -0.577349 -0.187595 219 104 255
0.069204 0.314631 0.189050 0.889697 -0.315094 -0.330385 193 92 224
0.090806 0.367004 0.197274 0.889697 -0.315094 -0.330385 193 92 224
0.096738 0.334636 0.244119 0.889697 -0.315094 -0.330385 193 92 224
-0.064450 0.282263 0.244119 -0.306570 -0.943521 0.125629 193 92 224
-0.002882 0.262258 0.244119 -0.306570 -0.943521 0.125629 193 92 224
-0.031832 0.277902 0.290963 -0.306570 -0.943521 0.125629 193 92 224
-0.064450 0.282263 0.244119 -0.303532 -0.934171 -0.187597 219 104 255
-0.030416 0.282263 0.189050 -0.303532 -0.934171 -0.187597 219 104 255
-0.002882 0.262258 0.244119 -0.303532 -0.934171 -0.187597 219 104 255
-0.030416 0.282263 0.189050 -0.024746 -0.943521 -0.330387 193 92 224
0.026069 0.277902 0.197274 -0.024746 -0.943521 -0.330387 193 92 224
-0.002882 0.262258 0.244119 -0.024746 -0.943521 -0.330387 193 92 224
-0.064450 0.451746 0.244119 -0.574600 0.748784 0.330389 164 78 191
-0.074967 0.419377 0.299187 -0.574600 0.748784 0.330389 164 78 191
-0.031832 0.456106 0.290963 -0.574600 0.748784 0.330389 164 78 191
-0.064450 0.451746 0.244119 -0.794655 0.577348 0.187595 219 104 255
-0.102501 0.399372 0.244119 -0.794655 0.577348 0.187595 219 104 255
-0.074967 0.419377 0.299187 -0.794655 0.577348 0.187595 219 104 255
-0.102501 0.399372 0.244119 -0.889697 0.315094 0.330385 180 85 209
-0.096569 0.367004 0.290963 -0.889697 0.315094 0.330385 180 85 209
-0.074967 0.419377 0.299187 -0.889697 0.315094 0.330385 180 85 209
0.058687 0.451746 0.244119 0.534576 0.777864 0.330387 164 78 191
0.024653 0.451745 0.299188 0.534576 0.777864 0.330387 164 78 191
0.072914 0.422072 0.290963 0.534576 0.777864 0.330387 164 78 191
0.058687 0.451746 0.244119 0.303532 0.934171 0.187599 219 104 255
-0.002881 0.471750 0.244119 0.303532 0.934171 0.187599 219 104 255
0.024653 0.451745 0.299188 0.303532 0.934171 0.187599 219 104 255
-0.002881 0.471750 0.244119 0.024745 0.943521 0.330389 180 85 209
-0.031832 0.456106 0.290963 0.024745 0.943521 0.330389 180 85 209
0.024653 0.451745 0.299188 0.024745 0.943521 0.330389 180 85 209
0.096738 0.334636 0.244119 0.904989 -0.268032 0.330385 164 78 191
0.086221 0.367004 0.299187 0.904989 -0.268032 0.330385 164 78 191
0.072914 0.311936 0.290963 0.904989 -0.268032 0.330385 164 78 191
0.096738 0.334636 0.244119 0.982246 -0.000000 0.187598 219 104 255
0.096738 0.399372 0.244119 0.982246 -0.000000 0.187598 219 104 255
0.086221 0.367004 0.299187 0.982246 -0.000000 0.187598 219 104 255
0.096738 0.399372 0.244119 0.904989 0.268031 0.330385 193 92 224
0.072914 0.422072 0.290963 0.904989 0.268031 0.330385 193 92 224
0.086221 0.367004 0.299187 0.904989 0.268031 0.330385 193 92 224
-0.002882 0.262258 0.244119 0.024745 -0.943521 0.330386 193 92 224
0.024653 0.282263 0.299188 0.024745 -0.943521 0.330386 193 92 224
-0.031832 0.277902 0.290963 0.024745 -0.943521 0.330386 193 92 224
-0.002882 0.262258 0.244119 0.303532 -0.934171 0.187596 219 104 255
0.058687 0.282263 0.244119 0.303532 -0.934171 0.187596 219 104 255
0.024653 0.282263 0.299188 0.303532 -0.934171 0.187596 219 104 255
0.058687 0.282263 0.244119 0.534576 -0.777865 0.330385 193 92 224
0.072914 0.311936 0.290963 0.534576 -0.777865 0.330385 193 92 224
0.024653 0.282263 0.299188 0.534576 -0.777865 0.330385 193 92 224
-0.102501 0.334636 0.244119 -0.889697 -0.315094 0.330385 193 92 224
-0.074967 0.314631 0.299187 -0.889697 -0.315094 0.330385 193 92 224
-0.096569 0.367004 0.290963 -0.889697 -0.315094 0.330385 193 92 224
-0.102501 0.334636 0.244119 -0.794655 -0.577349 0.187594 219 104 255
-0.064450 0.282263 0.244119 -0.794655 -0.577349 0.187594 219 104 255
-0.074967 0.314631 0.299187 -0.794655 -0.577349 0.187594 219 104 255
-0.064450 0.282263 0.244119 -0.574601 -0.748784 0.330387 180 85 209
-0.031832 0.277902 0.290963 -0.574601 -0.748784 0.330387 180 85 209
-0.074967 0.314631 0.299187 -0.574601 -0.748784 0.330387 180 85 209
-0.019898 0.419377 0.333221 -0.268034 0.194736 0.943523 193 92 224
-0.057950 0.367004 0.333221 -0.268034 0.194736 0.943523 193 92 224
-0.002881 0.367004 0.348865 -0.268034 0.194736 0.943523 193 92 224
-0.019898 0.419377 0.333221 -0.491119 0.356821 0.794658 219 104 255
-0.074967 0.419377 0.299187 -0.491119 0.356821 0.794658 219 104 255
-0.057950 0.367004 0.333221 -0.491119 0.356821 0.794658 219 104 255
-0.074967 0.419377 0.299187 -0.724042 0.194736 0.661696 193 92 224
-0.096569 0.367004 0.290963 -0.724042 0.194736 0.661696 193 92 224
-0.057950 0.367004 0.333221 -0.724042 0.194736 0.661696 193 92 224
0.041669 0.399372 0.333221 0.102380 0.315089 0.943524 193 92 224
-0.019898 0.419377 0.333221 0.102380 0.315089 0.943524 193 92 224
-0.002881 0.367004 0.348865 0.102380 0.315089 0.943524 193 92 224
0.041669 0.399372 0.333221 0.187594 0.577345 0.794658 219 104 255
0.024653 0.451745 0.299188 0.187594 0.577345 0.794658 219 104 255
-0.019898 0.419377 0.333221 0.187594 0.577345 0.794658 219 104 255
0.024653 0.451745 0.299188 -0.038532 0.748779 0.661699 193 92 224
-0.031832 0.456106 0.290963 -0.038532 0.748779 0.661699 193 92 224
-0.019898 0.419377 0.333221 -0.038532 0.748779 0.661699 193 92 224
0.041669 0.334636 0.333221 0.331304 -0.000000 0.943524 164 78 191
0.041669 0.399372 0.333221 0.331304 -0.000000 0.943524 164 78 191
-0.002881 0.367004 0.348865 0.331304 -0.000000 0.943524 164 78 191
0.041669 0.334636 0.333221 0.607061 -0.000000 0.794655 219 104 255
0.086221 0.367004 0.299187 0.607061 -0.000000 0.794655 219 104 255
0.041669 0.399372 0.333221 0.607061 -0.000000 0.794655 219 104 255
0.086221 0.367004 0.299187 0.700224 0.268031 0.661699 180 85 209
0.072914 0.422072 0.290963 0.700224 0.268031 0.661699 180 85 209
0.041669 0.399372 0.333221 0.700224 0.268031 0.661699 180 85 209
-0.019898 0.314631 0.333221 0.102380 -0.315089 0.943524 193 92 224
0.041669 0.334636 0.333221 0.102380 -0.315089 0.943524 193 92 224
-0.002881 0.367004 0.348865 0.102380 -0.315089 0.943524 193 92 224
-0.019898 0.314631 0.333221 0.187594 -0.577345 0.794658 219 104 255
0.024653 0.282263 0.299188 0.187594 -0.577345 0.794658 219 104 255
0.041669 0.334636 0.333221 0.187594 -0.577345 0.794658 219 104 255
0.024653 0.282263 0.299188 0.471300 -0.583122 0.661699 180 85 209
0.072914 0.311936 0.290963 0.471300 -0.583122 0.661699 180 85 209
0.041669 0.334636 0.333221 0.471300 -0.583122 0.661699 180 85 209
-0.057950 0.367004 0.333221 -0.268034 -0.194736 0.943523 180 85 209
-0.019898 0.314631 0.333221 -0.268034 -0.194736 0.943523 180 85 209
-0.002881 0.367004 0.348865 -0.268034 -0.194736 0.943523 180 85 209
-0.057950 0.367004 0.333221 -0.491119 -0.356820 0.794658 219 104 255
-0.074967 0.314631 0.299187 -0.491119 -0.356820 0.794658 219 104 255
-0.019898 0.314631 0.333221 -0.491119 -0.356820 0.794658 219 104 255
-0.074967 0.314631 0.299187 -0.408945 -0.628426 0.661698 193 92 224
-0.031832 0.277902 0.290963 -0.408945 -0.628426 0.661698 193 92 224
-0.019898 0.314631 0.333221 -0.408945 -0.628426 0.661698 193 92 224
0.316640 0.676733 0.220486 0.954920 -0.296864 0.000000 88 96 120
0.316640 0.676733 0.100180 0.954920 -0.296864 0.000000 88 96 120
0.325276 0.704509 0.100180 0.954920 -0.296864 0.000000 88 96 120
0.301775 0.743791 0.232518 0.189945 0.981795 -0.000000 47 51 64
0.301775 0.743791 0.100180 0.189945 0.981795 -0.000000 47 51 64
0.273216 0.749317 0.100180 0.189945 0.981795 -0.000000 47 51 64
0.316640 0.676733 0.100180 0.881148 -0.472840 0.000000 104 112 140
0.316640 0.676733 0.220486 0.881148 -0.472840 0.000000 104 112 140
0.000000 0.086666 0.124612 0.881148 -0.472840 0.000000 104 112 140
0.320055 0.728057 0.229695 0.652341 0.757926 -0.000000 60 65 82
0.320055 0.728057 0.100180 0.652341 0.757926 -0.000000 60 65 82
0.301775 0.743791 0.100180 0.652341 0.757926 -0.000000 60 65 82
-0.316640 0.676733 0.220486 -0.954920 -0.296863 0.000000 88 96 120
-0.325275 0.704509 0.225470 -0.954920 -0.296863 0.000000 88 96 120
-0.325275 0.704509 0.100180 -0.954920 -0.296863 0.000000 88 96 120
0.325276 0.704509 0.225470 0.976298 0.216432 -0.000000 75 81 102
0.325276 0.704509 0.100180 0.976298 0.216432 -0.000000 75 81 102
0.320055 0.728057 0.100180 0.976298 0.216432 -0.000000 75 81 102
0.273216 0.749317 0.100180 0.000000 1.000000 0.000000 34 37 46
-0.273216 0.749317 0.100180 0.000000 1.000000 0.000000 34 37 46
-0.273216 0.749317 0.233510 0.000000 1.000000 0.000000 34 37 46
-0.301774 0.743792 0.232518 -0.189943 0.981795 0.000000 47 51 64
-0.273216 0.749317 0.233510 -0.189943 0.981795 0.000000 47 51 64
-0.273216 0.749317 0.100180 -0.189943 0.981795 0.000000 47 51 64
-0.320055 0.728057 0.229695 -0.652341 0.757926 0.000000 60 65 82
-0.301774 0.743792 0.232518 -0.652341 0.757926 0.000000 60 65 82
-0.301774 0.743792 0.100180 -0.652341 0.757926 0.000000 60 65 82
-0.325275 0.704509 0.225470 -0.976298 0.216431 0.000000 75 81 102
-0.320055 0.728057 0.229695 -0.976298 0.216431 0.000000 75 81 102
-0.320055 0.728057 0.100180 -0.976298 0.216431 0.000000 75 81 102
0.272225 0.739297 0.242007 -0.000000 -0.151112 0.988517 181 195 245
-0.307308 0.680288 0.232987 -0.000000 -0.151112 0.988517 181 195 245
0.307308 0.680288 0.232987 -0.000000 -0.151112 0.988517 181 195 245
0.314762 0.704934 0.235842 0.487753 -0.244595 0.838016 149 161 201
0.307308 0.680288 0.232987 0.487753 -0.244595 0.838016 149 161 201
0.313907 0.677774 0.228412 0.487753 -0.244595 0.838016 149 161 201
0.313907 0.677774 0.228412 0.876455 -0.334593 0.346229 122 132 166
0.316640 0.676733 0.220486 0.876455 -0.334593 0.346229 122 132 166
0.325276 0.704509 0.225470 0.876455 -0.334593 0.346229 122 132 166
0.314752 0.704948 0.090000 0.365433 -0.113604 -0.923879 51 55 69
0.322193 0.704638 0.092982 0.365433 -0.113604 -0.923879 51 55 69
0.313878 0.677890 0.092982 0.365433 -0.113604 -0.923879 51 55 69
0.322193 0.704638 0.092982 0.882230 -0.274266 -0.382686 73 79 99
0.325276 0.704509 0.100180 0.882230 -0.274266 -0.382686 73 79 99
0.316640 0.676733 0.100180 0.882230 -0.274266 -0.382686 73 79 99
0.314762 0.704934 0.235842 0.377519 -0.081809 0.922381 149 161 201
0.322196 0.704634 0.232772 0.377519 -0.081809 0.922381 149 161 201
0.317352 0.726485 0.236693 0.377519 -0.081809 0.922381 149 161 201
0.322196 0.704634 0.232772 0.913946 0.133867 0.383121 122 132 166
0.325276 0.704509 0.225470 0.913946 0.133867 0.383121 122 132 166
0.320055 0.728057 0.229695 0.913946 0.133867 0.383121 122 132 166
0.310850 0.722550 0.090000 0.373613 0.082825 -0.923880 51 55 69
0.317359 0.726444 0.092982 0.373613 0.082825 -0.923880 51 55 69
0.322193 0.704638 0.092982 0.373613 0.082825 -0.923880 51 55 69
0.317359 0.726444 0.092982 0.901982 0.199957 -0.382681 73 79 99
0.320055 0.728057 0.100180 0.901982 0.199957 -0.382681 73 79 99
0.325276 0.704509 0.100180 0.901982 0.199957 -0.382681 73 79 99
0.310826 0.722691 0.239028 0.263416 0.134655 0.955238 149 161 201
0.317352 0.726485 0.236693 0.263416 0.134655 0.955238 149 161 201
0.300414 0.741064 0.239309 0.263416 0.134655 0.955238 149 161 201
0.317352 0.726485 0.236693 0.633714 0.665539 0.394290 122 132 166
0.320055 0.728057 0.229695 0.633714 0.665539 0.394290 122 132 166
0.301775 0.743791 0.232518 0.633714 0.665539 0.394290 122 132 166
0.310850 0.722550 0.090000 0.249642 0.290046 -0.923879 51 55 69
0.297185 0.734311 0.090000 0.249642 0.290046 -0.923879 51 55 69
0.300430 0.741015 0.092982 0.249642 0.290046 -0.923879 51 55 69
0.317359 0.726444 0.092982 0.602685 0.700232 -0.382683 73 79 99
0.300430 0.741015 0.092982 0.602685 0.700232 -0.382683 73 79 99
0.301775 0.743791 0.100180 0.602685 0.700232 -0.382683 73 79 99
0.297130 0.734479 0.241143 0.078355 0.230998 0.969794 149 161 201
0.300414 0.741064 0.239309 0.078355 0.230998 0.969794 149 161 201
0.272926 0.746382 0.240263 0.078355 0.230998 0.969794 149 161 201
0.300414 0.741064 0.239309 0.187539 0.897900 0.398252 122 132 166
0.301775 0.743791 0.232518 0.187539 0.897900 0.398252 122 132 166
0.273216 0.749317 0.233510 0.187539 0.897900 0.398252 122 132 166
0.297185 0.734311 0.090000 0.072688 0.375713 -0.923881 51 55 69
0.272241 0.739137 0.090000 0.072688 0.375713 -0.923881 51 55 69
0.272930 0.746335 0.092982 0.072688 0.375713 -0.923881 51 55 69
0.300430 0.741015 0.092982 0.175489 0.907062 -0.382678 73 79 99
0.272930 0.746335 0.092982 0.175489 0.907062 -0.382678 73 79 99
0.273216 0.749317 0.100180 0.175489 0.907062 -0.382678 73 79 99
-0.314752 0.704948 0.090000 -0.365434 -0.113604 -0.923879 51 55 69
-0.307209 0.680686 0.090000 -0.365434 -0.113604 -0.923879 51 55 69
-0.313878 0.677891 0.092982 -0.365434 -0.113604 -0.923879 51 55 69
-0.322193 0.704638 0.092982 -0.882231 -0.274264 -0.382684 73 79 99
-0.313878 0.677891 0.092982 -0.882231 -0.274264 -0.382684 73 79 99
-0.316640 0.676733 0.100180 -0.882231 -0.274264 -0.382684 73 79 99
-0.314762 0.704934 0.235842 -0.359952 -0.256696 0.896962 149 161 201
-0.322196 0.704634 0.232772 -0.359952 -0.256696 0.896962 149 161 201
-0.313907 0.677774 0.228412 -0.359952 -0.256696 0.896962 149 161 201
-0.313907 0.677774 0.228412 -0.868326 -0.328328 0.371768 122 132 166
-0.322196 0.704634 0.232772 -0.868326 -0.328328 0.371768 122 132 166
-0.325275 0.704509 0.225470 -0.868326 -0.328328 0.371768 122 132 166
-0.310849 0.722550 0.090000 -0.373615 0.082825 -0.923879 51 55 69
-0.314752 0.704948 0.090000 -0.373615 0.082825 -0.923879 51 55 69
-0.322193 0.704638 0.092982 -0.373615 0.082825 -0.923879 51 55 69
-0.317359 0.726444 0.092982 -0.901981 0.199956 -0.382685 73 79 99
-0.322193 0.704638 0.092982 -0.901981 0.199956 -0.382685 73 79 99
-0.325275 0.704509 0.100180 -0.901981 0.199956 -0.382685 73 79 99
-0.314762 0.704934 0.235842 -0.377520 -0.081809 0.922381 149 161 201
-0.310826 0.722691 0.239028 -0.377520 -0.081809 0.922381 149 161 201
-0.317352 0.726486 0.236693 -0.377520 -0.081809 0.922381 149 161 201
-0.322196 0.704634 0.232772 -0.913946 0.133866 0.383123 122 132 166
-0.317352 0.726486 0.236693 -0.913946 0.133866 0.383123 122 132 166
-0.320055 0.728057 0.229695 -0.913946 0.133866 0.383123 122 132 166
-0.310849 0.722550 0.090000 -0.249641 0.290046 -0.923879 51 55 69
-0.317359 0.726444 0.092982 -0.249641 0.290046 -0.923879 51 55 69
-0.300430 0.741015 0.092982 -0.249641 0.290046 -0.923879 51 55 69
-0.317359 0.726444 0.092982 -0.602682 0.700230 -0.382692 73 79 99
-0.320055 0.728057 0.100180 -0.602682 0.700230 -0.382692 73 79 99
-0.301774 0.743792 0.100180 -0.602682 0.700230 -0.382692 73 79 99
-0.310826 0.722691 0.239028 -0.263417 0.134656 0.955238 149 161 201
-0.297130 0.734479 0.241143 -0.263417 0.134656 0.955238 149 161 201
-0.300414 0.741064 0.239309 -0.263417 0.134656 0.955238 149 161 201
-0.317352 0.726486 0.236693 -0.633712 0.665538 0.394295 122 132 166
-0.300414 0.741064 0.239309 -0.633712 0.665538 0.394295 122 132 166
-0.301774 0.743792 0.232518 -0.633712 0.665538 0.394295 122 132 166
-0.297184 0.734311 0.090000 -0.072690 0.375718 -0.923879 51 55 69
-0.300430 0.741015 0.092982 -0.072690 0.375718 -0.923879 51 55 69
-0.272930 0.746335 0.092982 -0.072690 0.375718 -0.923879 51 55 69
-0.300430 0.741015 0.092982 -0.175484 0.907057 -0.382692 73 79 99
-0.301774 0.743792 0.100180 -0.175484 0.907057 -0.382692 73 79 99
-0.273216 0.749317 0.100180 -0.175484 0.907057 -0.382692 73 79 99
-0.297130 0.734479 0.241143 -0.078355 0.230999 0.969794 149 161 201
-0.272225 0.739297 0.242007 -0.078355 0.230999 0.969794 149 161 201
-0.272926 0.746382 0.240263 -0.078355 0.230999 0.969794 149 161 201
-0.300414 0.741064 0.239309 -0.187539 0.897900 0.398253 122 132 166
-0.272926 0.746382 0.240263 -0.187539 0.897900 0.398253 122 132 166
-0.273216 0.749317 0.233510 -0.187539 0.897900 0.398253 122 132 166
0.000000 0.108195 0.090000 0.337201 -0.180948 -0.923880 51 55 69
0.307209 0.680686 0.090000 0.337201 -0.180948 -0.923880 51 55 69
0.313878 0.677890 0.092982 0.337201 -0.180948 -0.923880 51 55 69
0.000000 0.092972 0.092982 0.814076 -0.436849 -0.382679 73 79 99
0.313878 0.677890 0.092982 0.814076 -0.436849 -0.382679 73 79 99
0.316640 0.676733 0.100180 0.814076 -0.436849 -0.382679 73 79 99
0.000000 0.108145 0.138033 0.303179 -0.310042 0.901086 149 161 201
0.000000 0.092957 0.132808 0.303179 -0.310042 0.901086 149 161 201
0.313907 0.677774 0.228412 0.303179 -0.310042 0.901086 149 161 201
0.000000 0.092957 0.132808 0.791224 -0.485087 0.372364 122 132 166
0.000000 0.086666 0.124612 0.791224 -0.485087 0.372364 122 132 166
0.316640 0.676733 0.220486 0.791224 -0.485087 0.372364 122 132 166
-0.272225 0.739297 0.242007 0.000000 0.239045 0.971008 149 161 201
0.272225 0.739297 0.242007 0.000000 0.239045 0.971008 149 161 201
0.272926 0.746382 0.240263 0.000000 0.239045 0.971008 149 161 201
0.272926 0.746382 0.240263 0.000000 0.917145 0.398555 122 132 166
0.273216 0.749317 0.233510 0.000000 0.917145 0.398555 122 132 166
-0.273216 0.749317 0.233510 0.000000 0.917145 0.398555 122 132 166
0.272241 0.739137 0.090000 0.000000 0.382679 -0.923882 51 55 69
-0.272241 0.739137 0.090000 0.000000 0.382679 -0.923882 51 55 69
-0.272930 0.746335 0.092982 0.000000 0.382679 -0.923882 51 55 69
-0.272930 0.746335 0.092982 0.000000 0.923881 -0.382679 73 79 99
-0.273216 0.749317 0.100180 0.000000 0.923881 -0.382679 73 79 99
0.273216 0.749317 0.100180 0.000000 0.923881 -0.382679 73 79 99
0.000000 0.108195 0.090000 -0.337201 -0.180948 -0.923879 51 55 69
0.000000 0.092972 0.092982 -0.337201 -0.180948 -0.923879 51 55 69
-0.313878 0.677891 0.092982 -0.337201 -0.180948 -0.923879 51 55 69
0.000000 0.092972 0.092982 -0.814075 -0.436847 -0.382684 73 79 99
0.000000 0.086666 0.100180 -0.814075 -0.436847 -0.382684 73 79 99
-0.316640 0.676733 0.100180 -0.814075 -0.436847 -0.382684 73 79 99
0.000000 0.108145 0.138033 -0.430879 -0.368166 0.823891 149 161 201
-0.307308 0.680288 0.232987 -0.430879 -0.368166 0.823891 149 161 201
-0.313907 0.677774 0.228412 -0.430879 -0.368166 0.823891 149 161 201
0.000000 0.092957 0.132808 -0.803828 -0.487250 0.341244 122 132 166
-0.313907 0.677774 0.228412 -0.803828 -0.487250 0.341244 122 132 166
-0.316640 0.676733 0.220486 -0.803828 -0.487250 0.341244 122 132 166
-0.316640 0.676733 0.100180 -0.881148 -0.472840 -0.000000 104 112 140
0.000000 0.086666 0.100180 -0.881148 -0.472840 -0.000000 104 112 140
0.000000 0.086666 0.124612 -0.881148 -0.472840 -0.000000 104 112 140
0.325276 0.704509 0.225470 0.954920 -0.296864 0.000000 88 96 120
0.273216 0.749317 0.233510 0.189945 0.981795 0.000000 47 51 64
0.000000 0.086666 0.100180 0.881148 -0.472840 0.000000 104 112 140
0.301775 0.743791 0.232518 0.652341 0.757926 0.000000 60 65 82
-0.316640 0.676733 0.100180 -0.954920 -0.296863 -0.000000 88 96 120
0.320055 0.728057 0.229695 0.976298 0.216432 0.000000 75 81 102
0.273216 0.749317 0.233510 0.000000 1.000000 -0.000000 34 37 46
-0.301774 0.743792 0.100180 -0.189943 0.981795 0.000000 47 51 64
-0.320055 0.728057 0.100180 -0.652341 0.757926 0.000000 60 65 82
-0.325275 0.704509 0.100180 -0.976298 0.216431 0.000000 75 81 102
0.307308 0.680288 0.232987 0.040912 -0.127174 0.991036 181 195 245
0.314762 0.704934 0.235842 0.040912 -0.127174 0.991036 181 195 245
0.272225 0.739297 0.242007 0.040912 -0.127174 0.991036 181 195 245
0.310826 0.722691 0.239028 0.000002 -0.176605 0.984282 181 195 245
0.297130 0.734479 0.241143 0.000002 -0.176605 0.984282 181 195 245
0.314762 0.704934 0.235842 0.000002 -0.176605 0.984282 181 195 245
-0.272225 0.739297 0.242007 -0.000000 -0.151112 0.988517 181 195 245
-0.297130 0.734479 0.241143 -0.000000 -0.176606 0.984282 181 195 245
-0.310826 0.722691 0.239028 -0.000000 -0.176606 0.984282 181 195 245
-0.314762 0.704934 0.235842 -0.000000 -0.176606 0.984282 181 195 245
-0.272225 0.739297 0.242007 -0.000000 -0.176606 0.984282 181 195 245
0.000000 0.108145 0.138033 -0.000000 -0.163721 0.986507 181 195 245
0.307308 0.680288 0.232987 -0.000000 -0.163721 0.986507 181 195 245
-0.307308 0.680288 0.232987 -0.000000 -0.163721 0.986507 181 195 245
0.297130 0.734479 0.241143 0.000000 -0.176606 0.984282 181 195 245
0.272225 0.739297 0.242007 0.000000 -0.176606 0.984282 181 195 245
0.314762 0.704934 0.235842 0.000000 -0.176606 0.984282 181 195 245
-0.314762 0.704934 0.235842 -0.040912 -0.127174 0.991036 181 195 245
-0.307308 0.680288 0.232987 -0.040912 -0.127174 0.991036 181 195 245
-0.272225 0.739297 0.242007 -0.040912 -0.127174 0.991036 181 195 245
0.322196 0.704634 0.232772 0.359954 -0.256696 0.896962 149 161 201
0.314762 0.704934 0.235842 0.359954 -0.256696 0.896962 149 161 201
0.313907 0.677774 0.228412 0.359954 -0.256696 0.896962 149 161 201
0.322196 0.704634 0.232772 0.868326 -0.328327 0.371768 122 132 166
0.313907 0.677774 0.228412 0.868326 -0.328327 0.371768 122 132 166
0.325276 0.704509 0.225470 0.868326 -0.328327 0.371768 122 132 166
0.307209 0.680686 0.090000 0.365433 -0.113604 -0.923879 51 55 69
0.313878 0.677890 0.092982 0.882232 -0.274265 -0.382681 73 79 99
0.322193 0.704638 0.092982 0.882232 -0.274265 -0.382681 73 79 99
0.316640 0.676733 0.100180 0.882232 -0.274265 -0.382681 73 79 99
0.310826 0.722691 0.239028 0.377520 -0.081809 0.922381 149 161 201
0.314762 0.704934 0.235842 0.377520 -0.081809 0.922381 149 161 201
0.317352 0.726485 0.236693 0.377520 -0.081809 0.922381 149 161 201
0.317352 0.726485 0.236693 0.913946 0.133867 0.383123 122 132 166
0.322196 0.704634 0.232772 0.913946 0.133867 0.383123 122 132 166
0.320055 0.728057 0.229695 0.913946 0.133867 0.383123 122 132 166
0.314752 0.704948 0.090000 0.373613 0.082825 -0.923880 51 55 69
0.322193 0.704638 0.092982 0.901982 0.199957 -0.382682 73 79 99
0.317359 0.726444 0.092982 0.901982 0.199957 -0.382682 73 79 99
0.325276 0.704509 0.100180 0.901982 0.199957 -0.382682 73 79 99
0.297130 0.734479 0.241143 0.263417 0.134656 0.955238 149 161 201
0.310826 0.722691 0.239028 0.263417 0.134656 0.955238 149 161 201
0.300414 0.741064 0.239309 0.263417 0.134656 0.955238 149 161 201
0.300414 0.741064 0.239309 0.633714 0.665539 0.394290 122 132 166
0.317359 0.726444 0.092982 0.249639 0.290044 -0.923880 51 55 69
0.310850 0.722550 0.090000 0.249639 0.290044 -0.923880 51 55 69
0.300430 0.741015 0.092982 0.249639 0.290044 -0.923880 51 55 69
0.320055 0.728057 0.100180 0.602684 0.700232 -0.382685 73 79 99
0.317359 0.726444 0.092982 0.602684 0.700232 -0.382685 73 79 99
0.301775 0.743791 0.100180 0.602684 0.700232 -0.382685 73 79 99
0.272225 0.739297 0.242007 0.078355 0.230997 0.969794 149 161 201
0.297130 0.734479 0.241143 0.078355 0.230997 0.969794 149 161 201
0.272926 0.746382 0.240263 0.078355 0.230997 0.969794 149 161 201
0.272926 0.746382 0.240263 0.187539 0.897900 0.398252 122 132 166
0.300430 0.741015 0.092982 0.072690 0.375718 -0.923879 51 55 69
0.297185 0.734311 0.090000 0.072690 0.375718 -0.923879 51 55 69
0.272930 0.746335 0.092982 0.072690 0.375718 -0.923879 51 55 69
0.301775 0.743791 0.100180 0.175487 0.907059 -0.382685 73 79 99
0.300430 0.741015 0.092982 0.175487 0.907059 -0.382685 73 79 99
0.273216 0.749317 0.100180 0.175487 0.907059 -0.382685 73 79 99
-0.322193 0.704638 0.092982 -0.365434 -0.113604 -0.923879 51 55 69
-0.325275 0.704509 0.100180 -0.882229 -0.274265 -0.382689 73 79 99
-0.322193 0.704638 0.092982 -0.882229 -0.274265 -0.382689 73 79 99
-0.316640 0.676733 0.100180 -0.882229 -0.274265 -0.382689 73 79 99
-0.307308 0.680288 0.232987 -0.487754 -0.244595 0.838015 149 161 201
-0.314762 0.704934 0.235842 -0.487754 -0.244595 0.838015 149 161 201
-0.313907 0.677774 0.228412 -0.487754 -0.244595 0.838015 149 161 201
-0.316640 0.676733 0.220486 -0.876453 -0.334593 0.346232 122 132 166
-0.313907 0.677774 0.228412 -0.876453 -0.334593 0.346232 122 132 166
-0.325275 0.704509 0.225470 -0.876453 -0.334593 0.346232 122 132 166
-0.317359 0.726444 0.092982 -0.373615 0.082825 -0.923879 51 55 69
-0.320055 0.728057 0.100180 -0.901981 0.199956 -0.382686 73 79 99
-0.317359 0.726444 0.092982 -0.901981 0.199956 -0.382686 73 79 99
-0.325275 0.704509 0.100180 -0.901981 0.199956 -0.382686 73 79 99
-0.322196 0.704634 0.232772 -0.377518 -0.081809 0.922381 149 161 201
-0.314762 0.704934 0.235842 -0.377518 -0.081809 0.922381 149 161 201
-0.317352 0.726486 0.236693 -0.377518 -0.081809 0.922381 149 161 201
-0.325275 0.704509 0.225470 -0.913946 0.133866 0.383121 122 132 166
-0.322196 0.704634 0.232772 -0.913946 0.133866 0.383121 122 132 166
-0.320055 0.728057 0.229695 -0.913946 0.133866 0.383121 122 132 166
-0.297184 0.734311 0.090000 -0.249641 0.290047 -0.923879 51 55 69
-0.310849 0.722550 0.090000 -0.249641 0.290047 -0.923879 51 55 69
-0.300430 0.741015 0.092982 -0.249641 0.290047 -0.923879 51 55 69
-0.300430 0.741015 0.092982 -0.602683 0.700230 -0.382691 73 79 99
-0.317359 0.726444 0.092982 -0.602683 0.700230 -0.382691 73 79 99
-0.301774 0.743792 0.100180 -0.602683 0.700230 -0.382691 73 79 99
-0.317352 0.726486 0.236693 -0.263415 0.134655 0.955239 149 161 201
-0.310826 0.722691 0.239028 -0.263415 0.134655 0.955239 149 161 201
-0.300414 0.741064 0.239309 -0.263415 0.134655 0.955239 149 161 201
-0.320055 0.728057 0.229695 -0.633714 0.665539 0.394290 122 132 166
-0.317352 0.726486 0.236693 -0.633714 0.665539 0.394290 122 132 166
-0.301774 0.743792 0.232518 -0.633714 0.665539 0.394290 122 132 166
-0.272241 0.739137 0.090000 -0.072688 0.375713 -0.923881 51 55 69
-0.297184 0.734311 0.090000 -0.072688 0.375713 -0.923881 51 55 69
-0.272930 0.746335 0.092982 -0.072688 0.375713 -0.923881 51 55 69
-0.272930 0.746335 0.092982 -0.175489 0.907062 -0.382678 73 79 99
-0.300430 0.741015 0.092982 -0.175489 0.907062 -0.382678 73 79 99
-0.273216 0.749317 0.100180 -0.175489 0.907062 -0.382678 73 79 99
-0.300414 0.741064 0.239309 -0.078356 0.230999 0.969794 149 161 201
-0.297130 0.734479 0.241143 -0.078356 0.230999 0.969794 149 161 201
-0.272926 0.746382 0.240263 -0.078356 0.230999 0.969794 149 161 201
-0.301774 0.743792 0.232518 -0.187537 0.897897 0.398259 122 132 166
-0.300414 0.741064 0.239309 -0.187537 0.897897 0.398259 122 132 166
-0.273216 0.749317 0.233510 -0.187537 0.897897 0.398259 122 132 166
0.000000 0.092972 0.092982 0.337201 -0.180949 -0.923879 51 55 69
0.000000 0.108195 0.090000 0.337201 -0.180949 -0.923879 51 55 69
0.313878 0.677890 0.092982 0.337201 -0.180949 -0.923879 51 55 69
0.000000 0.086666 0.100180 0.814075 -0.436848 -0.382684 73 79 99
0.000000 0.092972 0.092982 0.814075 -0.436848 -0.382684 73 79 99
0.316640 0.676733 0.100180 0.814075 -0.436848 -0.382684 73 79 99
0.307308 0.680288 0.232987 0.430878 -0.368166 0.823892 149 161 201
0.000000 0.108145 0.138033 0.430878 -0.368166 0.823892 149 161 201
0.313907 0.677774 0.228412 0.430878 -0.368166 0.823892 149 161 201
0.313907 0.677774 0.228412 0.803830 -0.487250 0.341241 122 132 166
0.000000 0.092957 0.132808 0.803830 -0.487250 0.341241 122 132 166
0.316640 0.676733 0.220486 0.803830 -0.487250 0.341241 122 132 166
-0.272926 0.746382 0.240263 0.000000 0.239047 0.971008 149 161 201
-0.272225 0.739297 0.242007 0.000000 0.239047 0.971008 149 161 201
0.272926 0.746382 0.240263 0.000000 0.239047 0.971008 149 161 201
-0.272926 0.746382 0.240263 0.000000 0.917145 0.398555 122 132 166
0.272930 0.746335 0.092982 0.000000 0.382679 -0.923882 51 55 69
0.272930 0.746335 0.092982 0.000000 0.923881 -0.382679 73 79 99
-0.307209 0.680686 0.090000 -0.337202 -0.180949 -0.923879 51 55 69
0.000000 0.108195 0.090000 -0.337202 -0.180949 -0.923879 51 55 69
-0.313878 0.677891 0.092982 -0.337202 -0.180949 -0.923879 51 55 69
-0.313878 0.677891 0.092982 -0.814075 -0.436848 -0.382682 73 79 99
0.000000 0.092972 0.092982 -0.814075 -0.436848 -0.382682 73 79 99
-0.316640 0.676733 0.100180 -0.814075 -0.436848 -0.382682 73 79 99
0.000000 0.092957 0.132808 -0.303180 -0.310042 0.901086 149 161 201
0.000000 0.108145 0.138033 -0.303180 -0.310042 0.901086 149 161 201
-0.313907 0.677774 0.228412 -0.303180 -0.310042 0.901086 149 161 201
0.000000 0.086666 0.124612 -0.791224 -0.485087 0.372364 122 132 166
0.000000 0.092957 0.132808 -0.791224 -0.485087 0.372364 122 132 166
-0.316640 0.676733 0.220486 -0.791224 -0.485087 0.372364 122 132 166
-0.316640 0.676733 0.220486 -0.881148 -0.472840 0.000000 104 112 140
3 0 1 2
3 3 4 5
3 6 7 8
3 9 10 11
3 12 13 14
3 15 16 17
3 18 19 20
3 21 22 23
3 24 25 26
3 27 28 29
3 30 31 32
3 33 34 35
3 36 37 38
3 39 40 41
3 42 43 44
3 45 46 47
3 48 49 50
3 51 52 53
3 54 55 56
3 57 58 59
3 60 61 62
3 63 64 65
3 66 67 68
3 69 70 71
3 72 73 74
3 75 76 77
3 78 79 80
3 81 82 83
3 84 85 86
3 87 88 89
3 90 91 92
3 93 94 95
3 96 97 98
3 99 100 101
3 102 103 104
3 105 106 107
3 108 109 110
3 111 112 113
3 114 115 116
3 117 118 119
3 120 121 122
3 123 124 125
3 126 127 128
3 129 130 131
3 132 133 134
3 135 136 137
3 138 139 140
3 141 142 143
3 144 145 146
3 147 148 149
3 150 151 152
3 153 154 155
3 156 157 158
3 159 160 161
3 162 163 164
3 165 166 167
3 168 169 170
3 171 172 173
3 174 175 176
3 177 178 179
3 180 181 182
3 183 184 185
3 186 187 188
3 189 190 191
3 192 193 194
3 195 196 197
3 198 199 200
3 201 202 203
3 204 205 206
3 207 208 209
3 210 211 212
3 213 214 215
3 216 217 218
3 219 220 221
3 222 223 224
3 225 226 227
3 228 229 230
3 231 232 233
3 234 235 236
3 237 238 239
3 240 241 242
3 243 244 245
3 246 247 248
3 249 250 251
3 252 253 254
3 255 256 257
3 258 259 260
3 261 262 263
3 264 265 266
3 267 268 269
3 270 271 272
3 273 274 275
3 276 277 278
3 279 280 281
3 282 283 284
3 285 286 287
3 288 289 290
3 291 292 293
3 294 295 296
3 297 298 299
3 300 301 302
3 303 304 305
3 306 307 308
3 309 310 311
3 312 313 314
3 315 316 317
3 318 319 320
3 321 322 323
3 324 325 326
3 327 328 329
3 330 331 332
3 333 334 335
3 336 337 338
3 339 340 341
3 342 343 344
3 345 346 347
3 348 349 350
3 351 352 353
3 354 355 356
3 357 358 359
3 360 361 362
3 363 364 365
3 366 367 368
3 369 370 371
3 372 373 374
3 375 376 377
3 378 379 380
3 381 382 383
3 384 385 386
3 387 388 389
3 390 391 392
3 393 394 395
3 396 397 398
3 399 400 401
3 402 403 404
3 405 406 407
3 408 240 242
3 409 243 245
3 410 246 248
3 411 249 251
3 412 252 254
3 413 255 257
3 414 258 260
3 415 261 263
3 416 264 266
3 417 267 269
3 418 419 420
3 421 422 423
3 270 424 271
3 425 426 427
3 427 428 425
3 429 430 431
3 432 433 434
3 435 436 437
3 438 439 440
3 441 442 443
3 444 279 281
3 445 446 447
3 448 449 450
3 451 452 453
3 454 291 293
3 455 456 457
3 458 459 460
3 461 300 302
3 462 463 464
3 465 466 467
3 468 469 470
3 471 312 314
3 472 473 474
3 475 476 477
3 478 321 323
3 479 480 481
3 482 483 484
3 485 486 487
3 488 333 335
3 489 490 491
3 492 493 494
3 495 496 497
3 498 499 500
3 501 502 503
3 504 505 506
3 507 508 509
3 510 511 512
3 513 514 515
3 516 517 518
3 519 520 521
3 522 523 524
3 525 526 527
3 528 529 530
3 531 532 533
3 534 535 536
3 537 384 386
3 538 387 389
3 539 390 392
3 540 541 542
3 543 544 545
3 546 547 548
3 549 550 551
3 552 405 407
