ply
format ascii 1.0
comment Created by Blender 2.76 (sub 0) - www.blender.org, source file: 'Cheese.blend'
element vertex 306
property float x
property float y
property float z
property float nx
property float ny
property float nz
property uchar red
property uchar green
property uchar blue
element face 140
property list uchar uint vertex_indices
end_header
0.001253 0.287130 0.070000 0.000000 0.000000 -1.000000 255 204 0
0.111037 0.264794 0.070000 0.000000 0.000000 -1.000000 255 204 0
0.000071 0.016269 0.070000 0.000000 0.000000 -1.000000 255 204 0
0.203917 0.202145 0.070000 0.000000 0.000000 -1.000000 255 204 0
0.265753 0.108722 0.070000 0.000000 0.000000 -1.000000 255 204 0
0.287130 -0.001253 0.070000 0.000000 0.000000 -1.000000 255 204 0
0.264794 -0.111037 0.070000 0.000000 0.000000 -1.000000 255 204 0
0.202145 -0.203917 0.070000 0.000000 0.000000 -1.000000 255 204 0
0.114015 -0.262249 0.070000 0.000000 0.000000 -1.000000 255 204 0
-0.116300 -0.261244 0.070000 0.000000 -0.000000 -1.000000 255 204 0
-0.203917 -0.202145 0.070000 0.000000 -0.000000 -1.000000 255 204 0
-0.265753 -0.108722 0.070000 0.000000 -0.000000 -1.000000 255 204 0
-0.287130 0.001253 0.070000 0.000000 -0.000000 -1.000000 255 204 0
-0.264794 0.111038 0.070000 -0.000000 0.000000 -1.000000 255 204 0
-0.202145 0.203917 0.070000 -0.000000 0.000000 -1.000000 255 204 0
-0.108722 0.265753 0.070000 -0.000000 0.000000 -1.000000 255 204 0
-0.111125 0.271628 0.074455 -0.190808 0.981627 0.000000 92 46 0
-0.111125 0.271628 0.260845 -0.190808 0.981627 0.000000 92 46 0
0.001281 0.293477 0.260845 -0.190808 0.981627 0.000000 92 46 0
0.111037 0.264794 0.265300 -0.000000 0.000000 1.000000 255 204 0
0.001253 0.287130 0.265300 -0.000000 0.000000 1.000000 255 204 0
0.000071 0.016269 0.265300 -0.000000 0.000000 1.000000 255 204 0
-0.206614 0.208426 0.260845 -0.551936 0.833887 0.000000 110 55 0
-0.111125 0.271628 0.260845 -0.551936 0.833887 0.000000 110 55 0
-0.111125 0.271628 0.074455 -0.551936 0.833887 0.000000 110 55 0
-0.270647 0.113492 0.260845 -0.829037 0.559194 0.000000 117 59 0
-0.206614 0.208426 0.260845 -0.829037 0.559194 0.000000 117 59 0
-0.206614 0.208426 0.074455 -0.829037 0.559194 0.000000 117 59 0
-0.293477 0.001281 0.260845 -0.979924 0.199369 0.000000 122 61 0
-0.270647 0.113492 0.260845 -0.979924 0.199369 0.000000 122 61 0
-0.270647 0.113492 0.074455 -0.979924 0.199369 0.000000 122 61 0
-0.271628 -0.111126 0.260845 -0.981627 -0.190808 0.000000 133 66 0
-0.293477 0.001281 0.260845 -0.981627 -0.190808 0.000000 133 66 0
-0.293477 0.001281 0.074455 -0.981627 -0.190808 0.000000 133 66 0
-0.208425 -0.206614 0.260845 -0.833886 -0.551936 0.000000 143 71 0
-0.271628 -0.111126 0.260845 -0.833886 -0.551936 0.000000 143 71 0
-0.271628 -0.111126 0.074455 -0.833886 -0.551936 0.000000 143 71 0
0.003839 -0.009384 0.074455 -0.538590 -0.220343 -0.813246 184 147 0
0.000071 0.016269 0.070000 -0.538590 -0.220343 -0.813246 184 147 0
0.114015 -0.262249 0.070000 -0.538590 -0.220343 -0.813246 184 147 0
0.116317 -0.268191 0.260845 0.551937 -0.833886 0.000000 158 79 0
0.116317 -0.268191 0.074455 0.551937 -0.833886 0.000000 158 79 0
0.206614 -0.208425 0.074455 0.551937 -0.833886 0.000000 158 79 0
0.206614 -0.208425 0.260845 0.829037 -0.559193 0.000000 143 71 0
0.206614 -0.208425 0.074455 0.829037 -0.559193 0.000000 143 71 0
0.270648 -0.113492 0.074455 0.829037 -0.559193 0.000000 143 71 0
0.270648 -0.113492 0.260845 0.979925 -0.199368 0.000000 133 66 0
0.270648 -0.113492 0.074455 0.979925 -0.199368 0.000000 133 66 0
0.293477 -0.001281 0.074455 0.979925 -0.199368 0.000000 133 66 0
0.293477 -0.001281 0.260845 0.981627 0.190809 -0.000000 122 61 0
0.293477 -0.001281 0.074455 0.981627 0.190809 -0.000000 122 61 0
0.271628 0.111126 0.074455 0.981627 0.190809 -0.000000 122 61 0
0.271628 0.111126 0.260845 0.833886 0.551937 -0.000000 117 59 0
0.271628 0.111126 0.074455 0.833886 0.551937 -0.000000 117 59 0
0.208425 0.206614 0.074455 0.833886 0.551937 -0.000000 117 59 0
0.113492 0.270648 0.260845 0.559193 0.829038 -0.000000 110 55 0
0.208425 0.206614 0.260845 0.559193 0.829038 -0.000000 110 55 0
0.208425 0.206614 0.074455 0.559193 0.829038 -0.000000 110 55 0
0.203917 0.202145 0.265300 -0.000000 0.000000 1.000000 255 204 0
0.265753 0.108722 0.265300 -0.000000 0.000000 1.000000 255 204 0
0.287130 -0.001253 0.265300 -0.000000 0.000000 1.000000 255 204 0
0.264794 -0.111037 0.265300 0.000000 0.000000 1.000000 255 204 0
0.202145 -0.203917 0.265300 0.000000 0.000000 1.000000 255 204 0
0.114015 -0.262249 0.265300 0.000000 0.000000 1.000000 255 204 0
-0.203917 -0.202145 0.265300 0.000000 0.000000 1.000000 255 204 0
-0.116300 -0.261244 0.265300 0.000000 0.000000 1.000000 255 204 0
-0.118654 -0.267166 0.260845 -0.559194 -0.829037 0.000000 158 79 0
-0.208425 -0.206614 0.260845 -0.559194 -0.829037 0.000000 158 79 0
-0.208425 -0.206614 0.074455 -0.559194 -0.829037 0.000000 158 79 0
-0.003921 -0.009350 0.260845 0.536645 -0.225034 0.813248 184 147 0
0.000071 0.016269 0.265300 0.536645 -0.225034 0.813248 184 147 0
-0.116300 -0.261244 0.265300 0.536645 -0.225034 0.813248 184 147 0
-0.265753 -0.108722 0.265300 0.000000 0.000000 1.000000 255 204 0
-0.287130 0.001253 0.265300 0.000000 0.000000 1.000000 255 204 0
-0.264794 0.111038 0.265300 0.000000 -0.000000 1.000000 255 204 0
-0.202145 0.203917 0.265300 0.000000 -0.000000 1.000000 255 204 0
-0.108722 0.265753 0.265300 0.000000 -0.000000 1.000000 255 204 0
0.114015 -0.262249 0.070000 -0.195858 -0.635657 -0.746713 184 147 0
0.116317 -0.268191 0.074455 -0.195858 -0.635657 -0.746713 184 147 0
0.108768 -0.265866 0.074455 -0.195858 -0.635657 -0.746713 184 147 0
0.114015 -0.262249 0.265300 -0.195857 -0.635655 0.746715 184 147 0
0.108768 -0.265866 0.260845 -0.195857 -0.635655 0.746715 184 147 0
0.116317 -0.268191 0.260845 -0.195857 -0.635655 0.746715 184 147 0
-0.111085 -0.264906 0.074455 0.190302 -0.637343 -0.746713 184 147 0
-0.118654 -0.267166 0.074455 0.190302 -0.637343 -0.746713 184 147 0
-0.116300 -0.261244 0.070000 0.190302 -0.637343 -0.746713 184 147 0
-0.111085 -0.264906 0.260845 0.190301 -0.637341 0.746714 184 147 0
-0.116300 -0.261244 0.265300 0.190301 -0.637341 0.746714 184 147 0
-0.118654 -0.267166 0.260845 0.190301 -0.637341 0.746714 184 147 0
0.001281 0.293477 0.074455 0.116016 0.570239 -0.813245 184 147 0
0.113492 0.270648 0.074455 0.116016 0.570239 -0.813245 184 147 0
0.111037 0.264794 0.070000 0.116016 0.570239 -0.813245 184 147 0
0.001281 0.293477 0.260845 0.116016 0.570236 0.813247 184 147 0
0.001253 0.287130 0.265300 0.116016 0.570236 0.813247 184 147 0
0.111037 0.264794 0.265300 0.116016 0.570236 0.813247 184 147 0
0.113492 0.270648 0.074455 0.325405 0.482433 -0.813247 184 147 0
0.208425 0.206614 0.074455 0.325405 0.482433 -0.813247 184 147 0
0.203917 0.202145 0.070000 0.325405 0.482433 -0.813247 184 147 0
0.113492 0.270648 0.260845 0.325405 0.482432 0.813247 184 147 0
0.111037 0.264794 0.265300 0.325405 0.482432 0.813247 184 147 0
0.203917 0.202145 0.265300 0.325405 0.482432 0.813247 184 147 0
0.271628 0.111126 0.074455 0.485255 0.321183 -0.813246 184 147 0
0.265753 0.108722 0.070000 0.485255 0.321183 -0.813246 184 147 0
0.203917 0.202145 0.070000 0.485255 0.321183 -0.813246 184 147 0
0.271628 0.111126 0.260845 0.485253 0.321182 0.813248 184 147 0
0.208425 0.206614 0.260845 0.485253 0.321182 0.813248 184 147 0
0.203917 0.202145 0.265300 0.485253 0.321182 0.813248 184 147 0
0.293477 -0.001281 0.074455 0.571227 0.111035 -0.813247 184 147 0
0.287130 -0.001253 0.070000 0.571227 0.111035 -0.813247 184 147 0
0.265753 0.108722 0.070000 0.571227 0.111035 -0.813247 184 147 0
0.271628 0.111126 0.260845 0.571226 0.111035 0.813248 184 147 0
0.265753 0.108722 0.265300 0.571226 0.111035 0.813248 184 147 0
0.287130 -0.001253 0.265300 0.571226 0.111035 0.813248 184 147 0
0.293477 -0.001281 0.074455 0.570237 -0.116016 -0.813247 184 147 0
0.270648 -0.113492 0.074455 0.570237 -0.116016 -0.813247 184 147 0
0.264794 -0.111037 0.070000 0.570237 -0.116016 -0.813247 184 147 0
0.293477 -0.001281 0.260845 0.570235 -0.116016 0.813248 184 147 0
0.287130 -0.001253 0.265300 0.570235 -0.116016 0.813248 184 147 0
0.264794 -0.111037 0.265300 0.570235 -0.116016 0.813248 184 147 0
0.206614 -0.208425 0.074455 0.482433 -0.325405 -0.813247 184 147 0
0.202145 -0.203917 0.070000 0.482433 -0.325405 -0.813247 184 147 0
0.264794 -0.111037 0.070000 0.482433 -0.325405 -0.813247 184 147 0
0.206614 -0.208425 0.260845 0.482431 -0.325404 0.813248 184 147 0
0.270648 -0.113492 0.260845 0.482431 -0.325404 0.813248 184 147 0
0.264794 -0.111037 0.265300 0.482431 -0.325404 0.813248 184 147 0
0.206614 -0.208425 0.074455 0.321183 -0.485255 -0.813246 184 147 0
0.116317 -0.268191 0.074455 0.321183 -0.485255 -0.813246 184 147 0
0.114015 -0.262249 0.070000 0.321183 -0.485255 -0.813246 184 147 0
0.206614 -0.208425 0.260845 0.321182 -0.485253 0.813248 184 147 0
0.202145 -0.203917 0.265300 0.321182 -0.485253 0.813248 184 147 0
0.114015 -0.262249 0.265300 0.321182 -0.485253 0.813248 184 147 0
0.108768 -0.265866 0.074455 -0.294458 -0.955664 -0.000000 184 147 0
0.116317 -0.268191 0.074455 -0.294458 -0.955664 -0.000000 184 147 0
0.116317 -0.268191 0.260845 -0.294458 -0.955664 -0.000000 184 147 0
-0.118654 -0.267166 0.260845 0.286105 -0.958198 0.000000 184 147 0
-0.118654 -0.267166 0.074455 0.286105 -0.958198 0.000000 184 147 0
-0.111085 -0.264906 0.074455 0.286105 -0.958198 0.000000 184 147 0
-0.208425 -0.206614 0.074455 -0.325406 -0.482433 -0.813246 184 147 0
-0.203917 -0.202145 0.070000 -0.325406 -0.482433 -0.813246 184 147 0
-0.116300 -0.261244 0.070000 -0.325406 -0.482433 -0.813246 184 147 0
-0.208425 -0.206614 0.260845 -0.325405 -0.482431 0.813248 184 147 0
-0.118654 -0.267166 0.260845 -0.325405 -0.482431 0.813248 184 147 0
-0.116300 -0.261244 0.265300 -0.325405 -0.482431 0.813248 184 147 0
-0.271628 -0.111126 0.074455 -0.485256 -0.321184 -0.813245 184 147 0
-0.265753 -0.108722 0.070000 -0.485256 -0.321184 -0.813245 184 147 0
-0.203917 -0.202145 0.070000 -0.485256 -0.321184 -0.813245 184 147 0
-0.271628 -0.111126 0.260845 -0.485254 -0.321182 0.813247 184 147 0
-0.208425 -0.206614 0.260845 -0.485254 -0.321182 0.813247 184 147 0
-0.203917 -0.202145 0.265300 -0.485254 -0.321182 0.813247 184 147 0
-0.271628 -0.111126 0.074455 -0.571229 -0.111035 -0.813246 184 147 0
-0.293477 0.001281 0.074455 -0.571229 -0.111035 -0.813246 184 147 0
-0.287130 0.001253 0.070000 -0.571229 -0.111035 -0.813246 184 147 0
-0.293477 0.001281 0.260845 -0.571228 -0.111035 0.813246 184 147 0
-0.271628 -0.111126 0.260845 -0.571228 -0.111035 0.813246 184 147 0
-0.265753 -0.108722 0.265300 -0.571228 -0.111035 0.813246 184 147 0
-0.270647 0.113492 0.074455 -0.570237 0.116017 -0.813247 184 147 0
-0.264794 0.111038 0.070000 -0.570237 0.116017 -0.813247 184 147 0
-0.287130 0.001253 0.070000 -0.570237 0.116017 -0.813247 184 147 0
-0.270647 0.113492 0.260845 -0.570236 0.116017 0.813247 184 147 0
-0.293477 0.001281 0.260845 -0.570236 0.116017 0.813247 184 147 0
-0.287130 0.001253 0.265300 -0.570236 0.116017 0.813247 184 147 0
-0.206614 0.208426 0.074455 -0.482433 0.325406 -0.813246 184 147 0
-0.202145 0.203917 0.070000 -0.482433 0.325406 -0.813246 184 147 0
-0.264794 0.111038 0.070000 -0.482433 0.325406 -0.813246 184 147 0
-0.206614 0.208426 0.260845 -0.482431 0.325405 0.813248 184 147 0
-0.270647 0.113492 0.260845 -0.482431 0.325405 0.813248 184 147 0
-0.264794 0.111038 0.265300 -0.482431 0.325405 0.813248 184 147 0
-0.206614 0.208426 0.074455 -0.321182 0.485255 -0.813246 184 147 0
-0.111125 0.271628 0.074455 -0.321182 0.485255 -0.813246 184 147 0
-0.108722 0.265753 0.070000 -0.321182 0.485255 -0.813246 184 147 0
-0.111125 0.271628 0.260845 -0.321181 0.485254 0.813248 184 147 0
-0.206614 0.208426 0.260845 -0.321181 0.485254 0.813248 184 147 0
-0.202145 0.203917 0.265300 -0.321181 0.485254 0.813248 184 147 0
-0.111125 0.271628 0.074455 -0.111035 0.571229 -0.813246 184 147 0
0.001281 0.293477 0.074455 -0.111035 0.571229 -0.813246 184 147 0
0.001253 0.287130 0.070000 -0.111035 0.571229 -0.813246 184 147 0
-0.111125 0.271628 0.260845 -0.111035 0.571226 0.813248 184 147 0
-0.108722 0.265753 0.265300 -0.111035 0.571226 0.813248 184 147 0
0.001253 0.287130 0.265300 -0.111035 0.571226 0.813248 184 147 0
0.000071 0.016269 0.265300 -0.538588 -0.220342 0.813248 184 147 0
0.003839 -0.009384 0.260845 -0.538588 -0.220342 0.813248 184 147 0
0.114015 -0.262249 0.265300 -0.538588 -0.220342 0.813248 184 147 0
0.108768 -0.265866 0.260845 -0.925541 -0.378648 0.000000 255 255 204
0.003839 -0.009384 0.260845 -0.925541 -0.378648 0.000000 255 255 204
0.003839 -0.009384 0.074455 -0.925541 -0.378648 0.000000 255 255 204
0.000071 0.016269 0.070000 0.536647 -0.225035 -0.813246 184 147 0
-0.003921 -0.009350 0.074455 0.536647 -0.225035 -0.813246 184 147 0
-0.116300 -0.261244 0.070000 0.536647 -0.225035 -0.813246 184 147 0
0.001281 0.293477 0.260845 0.199368 0.979925 -0.000000 102 51 0
0.113492 0.270648 0.260845 0.199368 0.979925 -0.000000 102 51 0
0.113492 0.270648 0.074455 0.199368 0.979925 -0.000000 102 51 0
-0.003921 -0.009350 0.260845 -0.000595 -0.136369 0.990658 166 133 0
0.003839 -0.009384 0.260845 -0.000595 -0.136369 0.990658 166 133 0
0.000041 0.009469 0.263438 -0.000595 -0.136369 0.990658 166 133 0
0.003839 -0.009384 0.074455 -0.000595 -0.136370 -0.990658 166 133 0
-0.003921 -0.009350 0.074455 -0.000595 -0.136370 -0.990658 166 133 0
0.000041 0.009469 0.071862 -0.000595 -0.136370 -0.990658 166 133 0
-0.003921 -0.009350 0.260845 -0.004364 -0.999991 0.000000 166 133 0
-0.003921 -0.009350 0.074455 -0.004364 -0.999991 0.000000 166 133 0
0.003839 -0.009384 0.074455 -0.004364 -0.999991 0.000000 166 133 0
-0.111085 -0.264906 0.074455 0.922201 -0.386712 -0.000000 255 255 204
-0.003921 -0.009350 0.074455 0.922201 -0.386712 -0.000000 255 255 204
-0.003921 -0.009350 0.260845 0.922201 -0.386712 -0.000000 255 255 204
0.001281 0.293477 0.074455 -0.190808 0.981627 0.000000 92 46 0
-0.206614 0.208426 0.074455 -0.551936 0.833887 0.000000 110 55 0
-0.270647 0.113492 0.074455 -0.829037 0.559194 0.000000 117 59 0
-0.293477 0.001281 0.074455 -0.979924 0.199369 0.000000 122 61 0
-0.271628 -0.111126 0.074455 -0.981627 -0.190808 -0.000000 133 66 0
-0.208425 -0.206614 0.074455 -0.833886 -0.551936 -0.000000 143 71 0
0.108768 -0.265866 0.074455 -0.538590 -0.220343 -0.813246 184 147 0
0.003839 -0.009384 0.074455 -0.538589 -0.220343 -0.813247 184 147 0
0.000041 0.009469 0.071862 -0.538589 -0.220343 -0.813247 184 147 0
0.000071 0.016269 0.070000 -0.538589 -0.220343 -0.813247 184 147 0
0.206614 -0.208425 0.260845 0.551937 -0.833886 0.000000 158 79 0
0.270648 -0.113492 0.260845 0.829037 -0.559193 0.000000 143 71 0
0.293477 -0.001281 0.260845 0.979925 -0.199368 0.000000 133 66 0
0.271628 0.111126 0.260845 0.981627 0.190809 0.000000 122 61 0
0.208425 0.206614 0.260845 0.833886 0.551937 0.000000 117 59 0
0.113492 0.270648 0.074455 0.559193 0.829038 0.000000 110 55 0
-0.118654 -0.267166 0.074455 -0.559194 -0.829037 -0.000000 158 79 0
-0.111085 -0.264906 0.260845 0.536645 -0.225034 0.813248 184 147 0
-0.003921 -0.009350 0.260845 0.536649 -0.225034 0.813245 184 147 0
0.000041 0.009469 0.263438 0.536649 -0.225034 0.813245 184 147 0
0.000071 0.016269 0.265300 0.536649 -0.225034 0.813245 184 147 0
0.001253 0.287130 0.070000 0.116016 0.570238 -0.813246 184 147 0
0.001281 0.293477 0.074455 0.116016 0.570238 -0.813246 184 147 0
0.111037 0.264794 0.070000 0.116016 0.570238 -0.813246 184 147 0
0.113492 0.270648 0.260845 0.116016 0.570237 0.813247 184 147 0
0.001281 0.293477 0.260845 0.116016 0.570237 0.813247 184 147 0
0.111037 0.264794 0.265300 0.116016 0.570237 0.813247 184 147 0
0.111037 0.264794 0.070000 0.325406 0.482434 -0.813246 184 147 0
0.113492 0.270648 0.074455 0.325406 0.482434 -0.813246 184 147 0
0.203917 0.202145 0.070000 0.325406 0.482434 -0.813246 184 147 0
0.208425 0.206614 0.260845 0.325404 0.482431 0.813248 184 147 0
0.113492 0.270648 0.260845 0.325404 0.482431 0.813248 184 147 0
0.203917 0.202145 0.265300 0.325404 0.482431 0.813248 184 147 0
0.208425 0.206614 0.074455 0.485255 0.321183 -0.813246 184 147 0
0.265753 0.108722 0.265300 0.485253 0.321182 0.813248 184 147 0
0.271628 0.111126 0.074455 0.571228 0.111036 -0.813246 184 147 0
0.293477 -0.001281 0.074455 0.571228 0.111036 -0.813246 184 147 0
0.265753 0.108722 0.070000 0.571228 0.111036 -0.813246 184 147 0
0.293477 -0.001281 0.260845 0.571225 0.111035 0.813248 184 147 0
0.271628 0.111126 0.260845 0.571225 0.111035 0.813248 184 147 0
0.287130 -0.001253 0.265300 0.571225 0.111035 0.813248 184 147 0
0.287130 -0.001253 0.070000 0.570236 -0.116016 -0.813247 184 147 0
0.293477 -0.001281 0.074455 0.570236 -0.116016 -0.813247 184 147 0
0.264794 -0.111037 0.070000 0.570236 -0.116016 -0.813247 184 147 0
0.270648 -0.113492 0.260845 0.570235 -0.116016 0.813248 184 147 0
0.270648 -0.113492 0.074455 0.482433 -0.325405 -0.813247 184 147 0
0.202145 -0.203917 0.265300 0.482431 -0.325404 0.813248 184 147 0
0.202145 -0.203917 0.070000 0.321183 -0.485255 -0.813246 184 147 0
0.116317 -0.268191 0.260845 0.321182 -0.485253 0.813248 184 147 0
0.108768 -0.265866 0.260845 -0.294458 -0.955664 0.000000 184 147 0
-0.111085 -0.264906 0.260845 0.286105 -0.958198 0.000000 184 147 0
-0.118654 -0.267166 0.074455 -0.325406 -0.482433 -0.813246 184 147 0
-0.203917 -0.202145 0.265300 -0.325405 -0.482432 0.813248 184 147 0
-0.208425 -0.206614 0.260845 -0.325405 -0.482432 0.813248 184 147 0
-0.116300 -0.261244 0.265300 -0.325405 -0.482432 0.813248 184 147 0
-0.208425 -0.206614 0.074455 -0.485255 -0.321183 -0.813246 184 147 0
-0.271628 -0.111126 0.074455 -0.485255 -0.321183 -0.813246 184 147 0
-0.203917 -0.202145 0.070000 -0.485255 -0.321183 -0.813246 184 147 0
-0.265753 -0.108722 0.265300 -0.485255 -0.321183 0.813246 184 147 0
-0.271628 -0.111126 0.260845 -0.485255 -0.321183 0.813246 184 147 0
-0.203917 -0.202145 0.265300 -0.485255 -0.321183 0.813246 184 147 0
-0.265753 -0.108722 0.070000 -0.571230 -0.111035 -0.813245 184 147 0
-0.271628 -0.111126 0.074455 -0.571230 -0.111035 -0.813245 184 147 0
-0.287130 0.001253 0.070000 -0.571230 -0.111035 -0.813245 184 147 0
-0.287130 0.001253 0.265300 -0.571227 -0.111035 0.813247 184 147 0
-0.293477 0.001281 0.260845 -0.571227 -0.111035 0.813247 184 147 0
-0.265753 -0.108722 0.265300 -0.571227 -0.111035 0.813247 184 147 0
-0.293477 0.001281 0.074455 -0.570238 0.116017 -0.813246 184 147 0
-0.270647 0.113492 0.074455 -0.570238 0.116017 -0.813246 184 147 0
-0.287130 0.001253 0.070000 -0.570238 0.116017 -0.813246 184 147 0
-0.264794 0.111038 0.265300 -0.570235 0.116016 0.813248 184 147 0
-0.270647 0.113492 0.260845 -0.570235 0.116016 0.813248 184 147 0
-0.287130 0.001253 0.265300 -0.570235 0.116016 0.813248 184 147 0
-0.270647 0.113492 0.074455 -0.482432 0.325406 -0.813247 184 147 0
-0.206614 0.208426 0.074455 -0.482432 0.325406 -0.813247 184 147 0
-0.264794 0.111038 0.070000 -0.482432 0.325406 -0.813247 184 147 0
-0.202145 0.203917 0.265300 -0.482432 0.325405 0.813247 184 147 0
-0.206614 0.208426 0.260845 -0.482432 0.325405 0.813247 184 147 0
-0.264794 0.111038 0.265300 -0.482432 0.325405 0.813247 184 147 0
-0.202145 0.203917 0.070000 -0.321182 0.485255 -0.813246 184 147 0
-0.108722 0.265753 0.265300 -0.321181 0.485254 0.813248 184 147 0
-0.108722 0.265753 0.070000 -0.111035 0.571228 -0.813246 184 147 0
-0.111125 0.271628 0.074455 -0.111035 0.571228 -0.813246 184 147 0
0.001253 0.287130 0.070000 -0.111035 0.571228 -0.813246 184 147 0
0.001281 0.293477 0.260845 -0.111035 0.571227 0.813247 184 147 0
-0.111125 0.271628 0.260845 -0.111035 0.571227 0.813247 184 147 0
0.001253 0.287130 0.265300 -0.111035 0.571227 0.813247 184 147 0
0.108768 -0.265866 0.260845 -0.538589 -0.220342 0.813248 184 147 0
0.114015 -0.262249 0.265300 -0.538589 -0.220342 0.813248 184 147 0
0.003839 -0.009384 0.260845 -0.538589 -0.220342 0.813248 184 147 0
0.000071 0.016269 0.265300 -0.538592 -0.220342 0.813245 184 147 0
0.000041 0.009469 0.263438 -0.538592 -0.220342 0.813245 184 147 0
0.003839 -0.009384 0.260845 -0.538592 -0.220342 0.813245 184 147 0
0.108768 -0.265866 0.074455 -0.925541 -0.378648 -0.000000 255 255 204
-0.111085 -0.264906 0.074455 0.536647 -0.225035 -0.813246 184 147 0
0.000071 0.016269 0.070000 0.536645 -0.225035 -0.813247 184 147 0
0.000041 0.009469 0.071862 0.536645 -0.225035 -0.813247 184 147 0
-0.003921 -0.009350 0.074455 0.536645 -0.225035 -0.813247 184 147 0
0.001281 0.293477 0.074455 0.199368 0.979925 0.000000 102 51 0
0.003839 -0.009384 0.260845 -0.004364 -0.999990 0.000000 166 133 0
-0.003921 -0.009350 0.260845 -0.004364 -0.999990 0.000000 166 133 0
0.003839 -0.009384 0.074455 -0.004364 -0.999990 0.000000 166 133 0
-0.111085 -0.264906 0.260845 0.922201 -0.386712 0.000000 255 255 204
3 0 1 2
3 1 3 2
3 3 4 2
3 4 5 2
3 5 6 2
3 6 7 2
3 7 8 2
3 9 10 2
3 10 11 2
3 11 12 2
3 12 13 2
3 13 14 2
3 14 15 2
3 16 17 18
3 15 0 2
3 19 20 21
3 22 23 24
3 25 26 27
3 28 29 30
3 31 32 33
3 34 35 36
3 37 38 39
3 40 41 42
3 43 44 45
3 46 47 48
3 49 50 51
3 52 53 54
3 55 56 57
3 58 19 21
3 59 58 21
3 60 59 21
3 61 60 21
3 62 61 21
3 63 62 21
3 64 65 21
3 66 67 68
3 69 70 71
3 72 64 21
3 73 72 21
3 74 73 21
3 75 74 21
3 76 75 21
3 20 76 21
3 77 78 79
3 80 81 82
3 83 84 85
3 86 87 88
3 89 90 91
3 92 93 94
3 95 96 97
3 98 99 100
3 101 102 103
3 104 105 106
3 107 108 109
3 110 111 112
3 113 114 115
3 116 117 118
3 119 120 121
3 122 123 124
3 125 126 127
3 128 129 130
3 131 132 133
3 134 135 136
3 137 138 139
3 140 141 142
3 143 144 145
3 146 147 148
3 149 150 151
3 152 153 154
3 155 156 157
3 158 159 160
3 161 162 163
3 164 165 166
3 167 168 169
3 170 171 172
3 173 174 175
3 176 177 178
3 179 180 181
3 182 183 184
3 185 186 187
3 188 189 190
3 191 192 193
3 194 195 196
3 197 198 199
3 200 201 202
3 203 16 18
3 204 22 24
3 205 25 27
3 206 28 30
3 207 31 33
3 208 34 36
3 39 209 37
3 210 211 212
3 213 40 42
3 214 43 45
3 215 46 48
3 216 49 51
3 217 52 54
3 218 55 57
3 219 66 68
3 71 220 69
3 221 222 223
3 224 225 226
3 227 228 229
3 230 231 232
3 233 234 235
3 236 101 103
3 237 104 106
3 238 239 240
3 241 242 243
3 244 245 246
3 247 116 118
3 248 119 121
3 249 122 124
3 250 125 127
3 251 128 130
3 252 131 133
3 253 134 136
3 254 137 139
3 255 256 257
3 258 259 260
3 261 262 263
3 264 265 266
3 267 268 269
3 270 271 272
3 273 274 275
3 276 277 278
3 279 280 281
3 282 167 169
3 283 170 172
3 284 285 286
3 287 288 289
3 290 291 292
3 293 294 295
3 296 182 184
3 297 187 186
3 298 299 300
3 301 188 190
3 302 303 304
3 305 200 202
