ply
format ascii 1.0
comment Created by Blender 2.76 (sub 0) - www.blender.org, source file: 'PlaceMat_A.blend'
element vertex 384
property float x
property float y
property float z
property float nx
property float ny
property float nz
property uchar red
property uchar green
property uchar blue
element face 292
property list uchar uint vertex_indices
end_header
0.407798 0.428369 0.069999 0.000000 0.000000 -1.000000 64 41 7
0.428811 0.407094 0.069999 0.000000 0.000000 -1.000000 64 41 7
-0.427047 0.401616 0.069999 0.000000 0.000000 -1.000000 64 41 7
0.428811 0.407094 0.082254 0.923879 0.382684 -0.000000 64 41 7
0.428811 0.407094 0.069999 0.923879 0.382684 -0.000000 64 41 7
0.425449 0.415210 0.069999 0.923879 0.382684 -0.000000 64 41 7
-0.427047 -0.405636 0.082254 -1.000000 0.000000 0.000000 64 41 7
-0.427047 0.401616 0.082254 -1.000000 0.000000 0.000000 64 41 7
-0.427047 0.401616 0.069999 -1.000000 0.000000 0.000000 64 41 7
-0.404538 -0.427490 0.082254 0.000000 -1.000000 0.000000 64 41 7
-0.404538 -0.427490 0.069999 0.000000 -1.000000 0.000000 64 41 7
0.405044 -0.427490 0.069999 0.000000 -1.000000 0.000000 64 41 7
-0.404538 -0.427490 0.069999 -0.382681 -0.923881 -0.000000 64 41 7
-0.404538 -0.427490 0.082254 -0.382681 -0.923881 -0.000000 64 41 7
-0.413695 -0.423697 0.082254 -0.382681 -0.923881 -0.000000 64 41 7
-0.403532 -0.079481 0.089925 0.000000 0.000000 1.000000 86 65 33
-0.403196 0.077879 0.089925 0.000000 0.000000 1.000000 86 65 33
-0.423628 0.401637 0.089925 0.000000 0.000000 1.000000 86 65 33
0.428811 -0.404814 0.082254 1.000000 0.000000 -0.000000 64 41 7
0.428811 -0.404814 0.069999 1.000000 0.000000 -0.000000 64 41 7
0.428811 0.407094 0.069999 1.000000 0.000000 -0.000000 64 41 7
0.428811 -0.404814 0.069999 0.923880 -0.382683 0.000000 64 41 7
0.428811 -0.404814 0.082254 0.923880 -0.382683 0.000000 64 41 7
0.425164 -0.413620 0.082254 0.923880 -0.382683 0.000000 64 41 7
-0.401486 0.428369 0.082254 0.000000 1.000000 -0.000000 64 41 7
0.407798 0.428369 0.082254 0.000000 1.000000 -0.000000 64 41 7
0.407798 0.428369 0.069999 0.000000 1.000000 -0.000000 64 41 7
0.407798 0.428369 0.069999 0.382682 0.923880 0.000000 64 41 7
0.407798 0.428369 0.082254 0.382682 0.923880 0.000000 64 41 7
0.415468 0.425192 0.082254 0.382682 0.923880 0.000000 64 41 7
0.406568 0.078685 0.089925 0.000000 -0.000000 1.000000 86 65 33
0.406278 -0.078797 0.089925 0.000000 -0.000000 1.000000 86 65 33
0.425391 -0.404817 0.089925 0.000000 -0.000000 1.000000 86 65 33
-0.401498 0.424951 0.089925 0.000000 0.000000 1.000000 86 65 33
0.080608 0.404656 0.089925 0.000000 0.000000 1.000000 86 65 33
0.103097 0.405232 0.089925 0.000000 0.000000 1.000000 86 65 33
-0.427047 0.401616 0.069999 -0.923881 0.382680 0.000000 64 41 7
-0.427047 0.401616 0.082254 -0.923881 0.382680 0.000000 64 41 7
-0.422593 0.412369 0.082254 -0.923881 0.382680 0.000000 64 41 7
0.425449 0.415210 0.082254 0.707106 0.707108 -0.000000 64 41 7
0.425449 0.415210 0.069999 0.707106 0.707108 -0.000000 64 41 7
0.415468 0.425192 0.069999 0.707106 0.707108 -0.000000 64 41 7
0.422890 0.413110 0.089925 -0.000000 0.000000 1.000000 86 65 33
0.413356 0.422644 0.089925 -0.000000 0.000000 1.000000 86 65 33
0.407729 0.406959 0.089925 -0.000000 0.000000 1.000000 86 65 33
0.405044 -0.427490 0.082254 0.382681 -0.923880 0.000000 64 41 7
0.405044 -0.427490 0.069999 0.382681 -0.923880 0.000000 64 41 7
0.415713 -0.423071 0.069999 0.382681 -0.923880 0.000000 64 41 7
-0.401852 0.401779 0.089925 -0.000000 0.000000 1.000000 86 65 33
-0.408076 0.422226 0.089925 -0.000000 0.000000 1.000000 86 65 33
-0.420067 0.410236 0.089925 -0.000000 0.000000 1.000000 86 65 33
0.415713 -0.423071 0.069999 0.707105 -0.707109 0.000000 64 41 7
0.425164 -0.413620 0.069999 0.707105 -0.707109 0.000000 64 41 7
0.425164 -0.413620 0.082254 0.707105 -0.707109 0.000000 64 41 7
-0.410205 0.424757 0.082254 -0.707106 0.707108 0.000000 64 41 7
-0.410205 0.424757 0.069999 -0.707106 0.707108 0.000000 64 41 7
-0.422593 0.412369 0.069999 -0.707106 0.707108 0.000000 64 41 7
0.422622 -0.411503 0.089925 -0.000000 0.000000 1.000000 86 65 33
0.405117 -0.404837 0.089925 -0.000000 0.000000 1.000000 86 65 33
-0.413695 -0.423697 0.082254 -0.707107 -0.707107 0.000000 64 41 7
-0.423718 -0.413674 0.082254 -0.707107 -0.707107 0.000000 64 41 7
-0.423718 -0.413674 0.069999 -0.707107 -0.707107 0.000000 64 41 7
-0.401486 0.428369 0.069999 -0.382682 0.923880 0.000000 64 41 7
-0.410205 0.424757 0.069999 -0.382682 0.923880 0.000000 64 41 7
-0.410205 0.424757 0.082254 -0.382682 0.923880 0.000000 64 41 7
-0.427047 -0.405636 0.069999 -0.923880 -0.382682 -0.000000 64 41 7
-0.423718 -0.413674 0.069999 -0.923880 -0.382682 -0.000000 64 41 7
-0.423718 -0.413674 0.082254 -0.923880 -0.382682 -0.000000 64 41 7
-0.423628 -0.405633 0.089925 -0.854229 -0.353832 0.380915 92 59 10
-0.427047 -0.405636 0.082254 -0.854229 -0.353832 0.380915 92 59 10
-0.423718 -0.413674 0.082254 -0.854229 -0.353832 0.380915 92 59 10
-0.404526 -0.424072 0.089925 -0.353804 -0.854150 0.381117 92 59 10
-0.411583 -0.421149 0.089925 -0.353804 -0.854150 0.381117 92 59 10
-0.413695 -0.423697 0.082254 -0.353804 -0.854150 0.381117 92 59 10
-0.411583 -0.421149 0.089925 -0.649709 -0.649711 0.394657 92 59 10
-0.421174 -0.411559 0.089925 -0.649709 -0.649711 0.394657 92 59 10
-0.423718 -0.413674 0.082254 -0.649709 -0.649711 0.394657 92 59 10
0.405055 -0.424072 0.089925 0.353944 -0.854502 0.380196 92 59 10
0.405044 -0.427490 0.082254 0.353944 -0.854502 0.380196 92 59 10
0.415713 -0.423071 0.082254 0.353944 -0.854502 0.380196 92 59 10
0.425391 -0.404817 0.089925 0.854283 -0.353852 0.380774 92 59 10
0.422622 -0.411503 0.089925 0.854283 -0.353852 0.380774 92 59 10
0.425164 -0.413620 0.082254 0.854283 -0.353852 0.380774 92 59 10
0.422622 -0.411503 0.089925 0.649709 -0.649711 0.394657 92 59 10
0.413585 -0.420539 0.089925 0.649709 -0.649711 0.394657 92 59 10
0.415713 -0.423071 0.082254 0.649709 -0.649711 0.394657 92 59 10
0.425391 0.407072 0.089925 0.853903 0.353699 0.381768 92 59 10
0.428811 0.407094 0.082254 0.853903 0.353699 0.381768 92 59 10
0.425449 0.415210 0.082254 0.853903 0.353699 0.381768 92 59 10
0.407787 0.424951 0.089925 0.353798 0.854168 0.381083 92 59 10
0.413356 0.422644 0.089925 0.353798 0.854168 0.381083 92 59 10
0.415468 0.425192 0.082254 0.353798 0.854168 0.381083 92 59 10
0.422890 0.413110 0.089925 0.649708 0.649710 0.394661 92 59 10
0.425449 0.415210 0.082254 0.649708 0.649710 0.394661 92 59 10
0.415468 0.425192 0.082254 0.649708 0.649710 0.394661 92 59 10
-0.401498 0.424951 0.089925 -0.353948 0.854511 0.380173 92 59 10
-0.401486 0.428369 0.082254 -0.353948 0.854511 0.380173 92 59 10
-0.410205 0.424757 0.082254 -0.353948 0.854511 0.380173 92 59 10
-0.423628 0.401637 0.089925 -0.854599 0.353993 0.379934 92 59 10
-0.420067 0.410236 0.089925 -0.854599 0.353993 0.379934 92 59 10
-0.422593 0.412369 0.082254 -0.854599 0.353993 0.379934 92 59 10
-0.408076 0.422226 0.089925 -0.649708 0.649709 0.394661 92 59 10
-0.410205 0.424757 0.082254 -0.649708 0.649709 0.394661 92 59 10
-0.422593 0.412369 0.082254 -0.649708 0.649709 0.394661 92 59 10
0.425391 0.407072 0.089925 0.913316 -0.000000 0.407251 92 59 10
0.425391 -0.404817 0.089925 0.913316 -0.000000 0.407251 92 59 10
0.428811 -0.404814 0.082254 0.913316 -0.000000 0.407251 92 59 10
0.405055 -0.424072 0.089925 -0.000000 0.000000 1.000000 86 65 33
-0.077555 -0.405269 0.089925 -0.000000 0.000000 1.000000 86 65 33
-0.404526 -0.424072 0.089925 -0.000000 0.000000 1.000000 86 65 33
-0.404526 -0.424072 0.089925 0.000000 -0.913444 0.406964 92 59 10
-0.404538 -0.427490 0.082254 0.000000 -0.913444 0.406964 92 59 10
0.405044 -0.427490 0.082254 0.000000 -0.913444 0.406964 92 59 10
-0.423628 -0.405633 0.089925 -0.913372 0.000000 0.407127 92 59 10
-0.423628 0.401637 0.089925 -0.913372 0.000000 0.407127 92 59 10
-0.427047 0.401616 0.082254 -0.913372 0.000000 0.407127 92 59 10
0.407787 0.424951 0.089925 -0.000000 0.913432 0.406990 92 59 10
0.407798 0.428369 0.082254 -0.000000 0.913432 0.406990 92 59 10
-0.401486 0.428369 0.082254 -0.000000 0.913432 0.406990 92 59 10
-0.404876 -0.405614 0.089925 0.000000 -0.000000 1.000000 86 65 33
-0.423628 -0.405633 0.089925 0.000000 -0.000000 1.000000 86 65 33
-0.421174 -0.411559 0.089925 0.000000 -0.000000 1.000000 86 65 33
-0.264417 0.280225 0.089925 -0.000000 0.000000 1.000000 0 0 0
-0.264334 0.402354 0.089925 -0.000000 0.000000 1.000000 0 0 0
-0.401852 0.401779 0.089925 -0.000000 0.000000 1.000000 0 0 0
-0.241927 0.280355 0.089925 -0.000000 0.000000 1.000000 86 65 33
-0.241846 0.402930 0.089925 -0.000000 0.000000 1.000000 86 65 33
-0.264334 0.402354 0.089925 -0.000000 0.000000 1.000000 86 65 33
-0.099413 0.280485 0.089925 -0.000000 0.000000 1.000000 51 153 102
-0.099333 0.403505 0.089925 -0.000000 0.000000 1.000000 51 153 102
-0.241846 0.402930 0.089925 -0.000000 0.000000 1.000000 51 153 102
-0.076924 0.280616 0.089925 -0.000000 0.000000 1.000000 86 65 33
-0.076845 0.404081 0.089925 -0.000000 0.000000 1.000000 86 65 33
-0.099333 0.403505 0.089925 -0.000000 0.000000 1.000000 86 65 33
0.080531 0.280746 0.089925 -0.000000 0.000000 1.000000 0 0 0
0.080608 0.404656 0.089925 -0.000000 0.000000 1.000000 0 0 0
-0.076845 0.404081 0.089925 -0.000000 0.000000 1.000000 0 0 0
0.103020 0.280876 0.089925 -0.000000 0.000000 1.000000 86 65 33
0.253004 0.281006 0.089925 -0.000000 0.000000 1.000000 0 153 255
0.253079 0.405808 0.089925 -0.000000 0.000000 1.000000 0 153 255
0.103097 0.405232 0.089925 -0.000000 0.000000 1.000000 0 153 255
0.275494 0.281137 0.089925 -0.000000 0.000000 1.000000 86 65 33
0.275568 0.406383 0.089925 -0.000000 0.000000 1.000000 86 65 33
0.253079 0.405808 0.089925 -0.000000 0.000000 1.000000 86 65 33
0.407439 0.281267 0.089925 -0.000000 0.000000 1.000000 0 0 0
0.407729 0.406959 0.089925 -0.000000 0.000000 1.000000 0 0 0
0.275568 0.406383 0.089925 -0.000000 0.000000 1.000000 0 0 0
0.274903 -0.404923 0.089925 -0.000000 0.000000 1.000000 86 65 33
0.274977 -0.273944 0.089925 -0.000000 0.000000 1.000000 86 65 33
0.252479 -0.273980 0.089925 -0.000000 0.000000 1.000000 86 65 33
0.252404 -0.405010 0.089925 -0.000000 0.000000 1.000000 0 0 0
0.252479 -0.273980 0.089925 -0.000000 0.000000 1.000000 0 0 0
0.102486 -0.274015 0.089925 -0.000000 0.000000 1.000000 0 0 0
0.102409 -0.405096 0.089925 -0.000000 0.000000 1.000000 86 65 33
0.102486 -0.274015 0.089925 -0.000000 0.000000 1.000000 86 65 33
0.079987 -0.274050 0.089925 -0.000000 0.000000 1.000000 86 65 33
0.079909 -0.405182 0.089925 -0.000000 0.000000 1.000000 204 102 0
0.079987 -0.274050 0.089925 -0.000000 0.000000 1.000000 204 102 0
-0.077476 -0.274085 0.089925 -0.000000 0.000000 1.000000 204 102 0
-0.077476 -0.274085 0.089925 -0.000000 0.000000 1.000000 86 65 33
-0.099975 -0.274120 0.089925 -0.000000 0.000000 1.000000 86 65 33
-0.100055 -0.405355 0.089925 -0.000000 0.000000 1.000000 0 0 0
-0.099975 -0.274120 0.089925 -0.000000 0.000000 1.000000 0 0 0
-0.242498 -0.274155 0.089925 -0.000000 0.000000 1.000000 0 0 0
-0.242579 -0.405442 0.089925 -0.000000 0.000000 1.000000 86 65 33
-0.242498 -0.274155 0.089925 -0.000000 0.000000 1.000000 86 65 33
-0.264996 -0.274191 0.089925 -0.000000 0.000000 1.000000 86 65 33
-0.265079 -0.405528 0.089925 -0.000000 0.000000 1.000000 51 153 102
-0.264996 -0.274191 0.089925 -0.000000 0.000000 1.000000 51 153 102
-0.404540 -0.274226 0.089925 -0.000000 0.000000 1.000000 51 153 102
0.405117 -0.404837 0.089925 -0.000000 0.000000 1.000000 0 153 255
0.405408 -0.273909 0.089925 -0.000000 0.000000 1.000000 0 153 255
0.274977 -0.273944 0.089925 -0.000000 0.000000 1.000000 0 153 255
0.275051 -0.251408 0.089925 -0.000000 0.000000 1.000000 86 65 33
0.252554 -0.251457 0.089925 -0.000000 0.000000 1.000000 86 65 33
0.102562 -0.251506 0.089925 -0.000000 0.000000 1.000000 86 65 33
0.080065 -0.251554 0.089925 -0.000000 0.000000 1.000000 86 65 33
-0.077397 -0.251603 0.089925 -0.000000 0.000000 1.000000 86 65 33
-0.099894 -0.251652 0.089925 -0.000000 0.000000 1.000000 86 65 33
-0.242416 -0.251701 0.089925 -0.000000 0.000000 1.000000 86 65 33
-0.264914 -0.251750 0.089925 -0.000000 0.000000 1.000000 86 65 33
-0.404204 -0.251798 0.089925 -0.000000 0.000000 1.000000 86 65 33
0.405408 -0.273909 0.089925 -0.000000 0.000000 1.000000 86 65 33
0.405698 -0.251359 0.089925 -0.000000 0.000000 1.000000 86 65 33
0.275125 -0.101409 0.089925 -0.000000 0.000000 1.000000 86 65 33
0.252629 -0.101472 0.089925 -0.000000 0.000000 1.000000 86 65 33
0.252554 -0.251457 0.089925 -0.000000 0.000000 1.000000 51 153 102
0.252629 -0.101472 0.089925 -0.000000 0.000000 1.000000 51 153 102
0.102638 -0.101534 0.089925 -0.000000 0.000000 1.000000 51 153 102
0.102638 -0.101534 0.089925 -0.000000 0.000000 1.000000 86 65 33
0.080142 -0.101597 0.089925 -0.000000 0.000000 1.000000 86 65 33
0.080065 -0.251554 0.089925 -0.000000 0.000000 1.000000 0 0 0
0.080142 -0.101597 0.089925 -0.000000 0.000000 1.000000 0 0 0
-0.077318 -0.101659 0.089925 -0.000000 0.000000 1.000000 0 0 0
-0.077318 -0.101659 0.089925 -0.000000 0.000000 1.000000 86 65 33
-0.099814 -0.101721 0.089925 -0.000000 0.000000 1.000000 86 65 33
-0.099894 -0.251652 0.089925 -0.000000 0.000000 1.000000 0 153 255
-0.099814 -0.101721 0.089925 -0.000000 0.000000 1.000000 0 153 255
-0.242335 -0.101784 0.089925 -0.000000 0.000000 1.000000 0 153 255
-0.242335 -0.101784 0.089925 -0.000000 0.000000 1.000000 86 65 33
-0.264831 -0.101846 0.089925 -0.000000 0.000000 1.000000 86 65 33
-0.264914 -0.251750 0.089925 -0.000000 0.000000 1.000000 0 0 0
-0.264831 -0.101846 0.089925 -0.000000 0.000000 1.000000 0 0 0
-0.403868 -0.101908 0.089925 -0.000000 0.000000 1.000000 0 0 0
0.405698 -0.251359 0.089925 -0.000000 0.000000 1.000000 204 102 0
0.405988 -0.101347 0.089925 -0.000000 0.000000 1.000000 204 102 0
0.275125 -0.101409 0.089925 -0.000000 0.000000 1.000000 204 102 0
0.275199 -0.078873 0.089925 -0.000000 0.000000 1.000000 86 65 33
0.252704 -0.078949 0.089925 -0.000000 0.000000 1.000000 86 65 33
0.102715 -0.079025 0.089925 -0.000000 0.000000 1.000000 86 65 33
0.080220 -0.079101 0.089925 -0.000000 0.000000 1.000000 86 65 33
-0.077239 -0.079177 0.089925 -0.000000 0.000000 1.000000 86 65 33
-0.099734 -0.079253 0.089925 -0.000000 0.000000 1.000000 86 65 33
-0.242253 -0.079329 0.089925 -0.000000 0.000000 1.000000 86 65 33
-0.264748 -0.079405 0.089925 -0.000000 0.000000 1.000000 86 65 33
0.405988 -0.101347 0.089925 -0.000000 0.000000 1.000000 86 65 33
0.275273 0.078596 0.089925 -0.000000 0.000000 1.000000 86 65 33
0.252779 0.078506 0.089925 -0.000000 0.000000 1.000000 86 65 33
0.252704 -0.078949 0.089925 -0.000000 0.000000 1.000000 0 0 0
0.252779 0.078506 0.089925 -0.000000 0.000000 1.000000 0 0 0
0.102791 0.078416 0.089925 -0.000000 0.000000 1.000000 0 0 0
0.102791 0.078416 0.089925 -0.000000 0.000000 1.000000 86 65 33
0.080298 0.078327 0.089925 -0.000000 0.000000 1.000000 86 65 33
0.080220 -0.079101 0.089925 -0.000000 0.000000 1.000000 204 102 0
0.080298 0.078327 0.089925 -0.000000 0.000000 1.000000 204 102 0
-0.077160 0.078237 0.089925 -0.000000 0.000000 1.000000 204 102 0
-0.077160 0.078237 0.089925 -0.000000 0.000000 1.000000 86 65 33
-0.099654 0.078148 0.089925 -0.000000 0.000000 1.000000 86 65 33
-0.099734 -0.079253 0.089925 -0.000000 0.000000 1.000000 51 153 102
-0.099654 0.078148 0.089925 -0.000000 0.000000 1.000000 51 153 102
-0.242172 0.078058 0.089925 -0.000000 0.000000 1.000000 51 153 102
-0.242172 0.078058 0.089925 -0.000000 0.000000 1.000000 86 65 33
-0.264665 0.077969 0.089925 -0.000000 0.000000 1.000000 86 65 33
-0.264748 -0.079405 0.089925 -0.000000 0.000000 1.000000 0 153 255
-0.264665 0.077969 0.089925 -0.000000 0.000000 1.000000 0 153 255
-0.403196 0.077879 0.089925 -0.000000 0.000000 1.000000 0 153 255
0.406278 -0.078797 0.089925 -0.000000 0.000000 1.000000 0 153 255
0.406568 0.078685 0.089925 -0.000000 0.000000 1.000000 0 153 255
0.275273 0.078596 0.089925 -0.000000 0.000000 1.000000 0 153 255
0.275346 0.101132 0.089925 -0.000000 0.000000 1.000000 86 65 33
0.252854 0.101029 0.089925 -0.000000 0.000000 1.000000 86 65 33
0.102867 0.100926 0.089925 -0.000000 0.000000 1.000000 86 65 33
0.080375 0.100822 0.089925 -0.000000 0.000000 1.000000 86 65 33
-0.077082 0.100719 0.089925 -0.000000 0.000000 1.000000 86 65 33
-0.099574 0.100616 0.089925 -0.000000 0.000000 1.000000 86 65 33
-0.242090 0.100513 0.089925 -0.000000 0.000000 1.000000 86 65 33
-0.264583 0.100410 0.089925 -0.000000 0.000000 1.000000 86 65 33
-0.402860 0.100307 0.089925 -0.000000 0.000000 1.000000 86 65 33
0.406858 0.101235 0.089925 -0.000000 0.000000 1.000000 86 65 33
0.275420 0.258600 0.089925 -0.000000 0.000000 1.000000 86 65 33
0.252929 0.258484 0.089925 -0.000000 0.000000 1.000000 86 65 33
0.252854 0.101029 0.089925 -0.000000 0.000000 1.000000 204 102 0
0.252929 0.258484 0.089925 -0.000000 0.000000 1.000000 204 102 0
0.102944 0.258367 0.089925 -0.000000 0.000000 1.000000 204 102 0
0.102944 0.258367 0.089925 -0.000000 0.000000 1.000000 86 65 33
0.080453 0.258250 0.089925 -0.000000 0.000000 1.000000 86 65 33
0.080375 0.100822 0.089925 -0.000000 0.000000 1.000000 0 153 255
0.080453 0.258250 0.089925 -0.000000 0.000000 1.000000 0 153 255
-0.077003 0.258134 0.089925 -0.000000 0.000000 1.000000 0 153 255
-0.077003 0.258134 0.089925 -0.000000 0.000000 1.000000 86 65 33
-0.099493 0.258017 0.089925 -0.000000 0.000000 1.000000 86 65 33
-0.099574 0.100616 0.089925 -0.000000 0.000000 1.000000 0 0 0
-0.099493 0.258017 0.089925 -0.000000 0.000000 1.000000 0 0 0
-0.242009 0.257900 0.089925 -0.000000 0.000000 1.000000 0 0 0
-0.242009 0.257900 0.089925 -0.000000 0.000000 1.000000 86 65 33
-0.264500 0.257783 0.089925 -0.000000 0.000000 1.000000 86 65 33
-0.264583 0.100410 0.089925 -0.000000 0.000000 1.000000 204 102 0
-0.264500 0.257783 0.089925 -0.000000 0.000000 1.000000 204 102 0
-0.402524 0.257667 0.089925 -0.000000 0.000000 1.000000 204 102 0
0.406858 0.101235 0.089925 -0.000000 0.000000 1.000000 51 153 102
0.407149 0.258717 0.089925 -0.000000 0.000000 1.000000 51 153 102
0.275420 0.258600 0.089925 -0.000000 0.000000 1.000000 51 153 102
0.253004 0.281006 0.089925 -0.000000 0.000000 1.000000 86 65 33
0.080531 0.280746 0.089925 -0.000000 0.000000 1.000000 86 65 33
-0.099413 0.280485 0.089925 -0.000000 0.000000 1.000000 86 65 33
-0.264417 0.280225 0.089925 -0.000000 0.000000 1.000000 86 65 33
-0.402188 0.280094 0.089925 -0.000000 0.000000 1.000000 86 65 33
0.407149 0.258717 0.089925 -0.000000 0.000000 1.000000 86 65 33
0.407439 0.281267 0.089925 -0.000000 0.000000 1.000000 86 65 33
0.405044 -0.427490 0.069999 0.000000 0.000000 -1.000000 64 41 7
-0.404538 -0.427490 0.069999 0.000000 0.000000 -1.000000 64 41 7
-0.413695 -0.423697 0.069999 0.000000 0.000000 -1.000000 64 41 7
-0.423718 -0.413674 0.069999 0.000000 0.000000 -1.000000 64 41 7
-0.427047 -0.405636 0.069999 0.000000 0.000000 -1.000000 64 41 7
-0.422593 0.412369 0.069999 0.000000 0.000000 -1.000000 64 41 7
-0.410205 0.424757 0.069999 0.000000 0.000000 -1.000000 64 41 7
-0.401486 0.428369 0.069999 0.000000 0.000000 -1.000000 64 41 7
0.415468 0.425192 0.069999 0.000000 0.000000 -1.000000 64 41 7
0.425449 0.415210 0.069999 0.000000 0.000000 -1.000000 64 41 7
0.428811 -0.404814 0.069999 0.000000 0.000000 -1.000000 64 41 7
0.425164 -0.413620 0.069999 0.000000 -0.000000 -1.000000 64 41 7
0.415713 -0.423071 0.069999 0.000000 -0.000000 -1.000000 64 41 7
0.425449 0.415210 0.082254 0.923879 0.382684 0.000000 64 41 7
-0.427047 -0.405636 0.069999 -1.000000 -0.000000 -0.000000 64 41 7
0.405044 -0.427490 0.082254 0.000000 -1.000000 0.000000 64 41 7
-0.413695 -0.423697 0.069999 -0.382681 -0.923881 0.000000 64 41 7
-0.404540 -0.274226 0.089925 -0.000000 0.000000 1.000000 86 65 33
-0.402524 0.257667 0.089925 0.000000 0.000000 1.000000 86 65 33
-0.403868 -0.101908 0.089925 0.000000 0.000000 1.000000 86 65 33
0.428811 0.407094 0.082254 1.000000 0.000000 -0.000000 64 41 7
0.425164 -0.413620 0.069999 0.923880 -0.382683 0.000000 64 41 7
-0.401486 0.428369 0.069999 0.000000 1.000000 0.000000 64 41 7
0.415468 0.425192 0.069999 0.382682 0.923880 0.000000 64 41 7
0.425391 0.407072 0.089925 -0.000000 0.000000 1.000000 86 65 33
0.407787 0.424951 0.089925 0.000000 0.000000 1.000000 86 65 33
-0.422593 0.412369 0.069999 -0.923881 0.382680 0.000000 64 41 7
0.415468 0.425192 0.082254 0.707106 0.707108 0.000000 64 41 7
0.415713 -0.423071 0.082254 0.382681 -0.923880 0.000000 64 41 7
0.415713 -0.423071 0.082254 0.707105 -0.707109 0.000000 64 41 7
-0.422593 0.412369 0.082254 -0.707106 0.707108 0.000000 64 41 7
0.413585 -0.420539 0.089925 0.000000 -0.000000 1.000000 86 65 33
-0.413695 -0.423697 0.069999 -0.707107 -0.707107 -0.000000 64 41 7
-0.401486 0.428369 0.082254 -0.382682 0.923880 0.000000 64 41 7
-0.427047 -0.405636 0.082254 -0.923880 -0.382682 0.000000 64 41 7
-0.421174 -0.411559 0.089925 -0.854227 -0.353834 0.380917 92 59 10
-0.423628 -0.405633 0.089925 -0.854227 -0.353834 0.380917 92 59 10
-0.423718 -0.413674 0.082254 -0.854227 -0.353834 0.380917 92 59 10
-0.404538 -0.427490 0.082254 -0.353800 -0.854155 0.381111 92 59 10
-0.404526 -0.424072 0.089925 -0.353800 -0.854155 0.381111 92 59 10
-0.413695 -0.423697 0.082254 -0.353800 -0.854155 0.381111 92 59 10
-0.413695 -0.423697 0.082254 -0.649709 -0.649709 0.394659 92 59 10
-0.411583 -0.421149 0.089925 -0.649709 -0.649709 0.394659 92 59 10
-0.423718 -0.413674 0.082254 -0.649709 -0.649709 0.394659 92 59 10
0.413585 -0.420539 0.089925 0.353946 -0.854500 0.380199 92 59 10
0.405055 -0.424072 0.089925 0.353946 -0.854500 0.380199 92 59 10
0.415713 -0.423071 0.082254 0.353946 -0.854500 0.380199 92 59 10
0.428811 -0.404814 0.082254 0.854282 -0.353854 0.380776 92 59 10
0.425391 -0.404817 0.089925 0.854282 -0.353854 0.380776 92 59 10
0.425164 -0.413620 0.082254 0.854282 -0.353854 0.380776 92 59 10
0.425164 -0.413620 0.082254 0.649707 -0.649711 0.394659 92 59 10
0.422622 -0.411503 0.089925 0.649707 -0.649711 0.394659 92 59 10
0.415713 -0.423071 0.082254 0.649707 -0.649711 0.394659 92 59 10
0.422890 0.413110 0.089925 0.853903 0.353699 0.381769 92 59 10
0.425391 0.407072 0.089925 0.853903 0.353699 0.381769 92 59 10
0.425449 0.415210 0.082254 0.853903 0.353699 0.381769 92 59 10
0.407798 0.428369 0.082254 0.353804 0.854163 0.381089 92 59 10
0.407787 0.424951 0.089925 0.353804 0.854163 0.381089 92 59 10
0.415468 0.425192 0.082254 0.353804 0.854163 0.381089 92 59 10
0.413356 0.422644 0.089925 0.649713 0.649709 0.394655 92 59 10
0.422890 0.413110 0.089925 0.649713 0.649709 0.394655 92 59 10
0.415468 0.425192 0.082254 0.649713 0.649709 0.394655 92 59 10
-0.408076 0.422226 0.089925 -0.353951 0.854508 0.380177 92 59 10
-0.401498 0.424951 0.089925 -0.353951 0.854508 0.380177 92 59 10
-0.410205 0.424757 0.082254 -0.353951 0.854508 0.380177 92 59 10
-0.427047 0.401616 0.082254 -0.854606 0.353986 0.379923 92 59 10
-0.423628 0.401637 0.089925 -0.854606 0.353986 0.379923 92 59 10
-0.422593 0.412369 0.082254 -0.854606 0.353986 0.379923 92 59 10
-0.420067 0.410236 0.089925 -0.649708 0.649708 0.394663 92 59 10
-0.408076 0.422226 0.089925 -0.649708 0.649708 0.394663 92 59 10
-0.422593 0.412369 0.082254 -0.649708 0.649708 0.394663 92 59 10
0.428811 0.407094 0.082254 0.913316 0.000000 0.407251 92 59 10
-0.265079 -0.405528 0.089925 0.000000 0.000000 1.000000 86 65 33
0.252404 -0.405010 0.089925 0.000000 -0.000000 1.000000 86 65 33
-0.100055 -0.405355 0.089925 0.000000 0.000000 1.000000 86 65 33
0.079909 -0.405182 0.089925 0.000000 -0.000000 1.000000 86 65 33
0.405055 -0.424072 0.089925 0.000000 -0.913444 0.406964 92 59 10
-0.427047 -0.405636 0.082254 -0.913372 0.000000 0.407127 92 59 10
-0.401498 0.424951 0.089925 0.000000 0.913432 0.406990 92 59 10
-0.411583 -0.421149 0.089925 0.000000 0.000000 1.000000 86 65 33
-0.402188 0.280094 0.089925 0.000000 0.000000 1.000000 0 0 0
-0.241927 0.280355 0.089925 0.000000 0.000000 1.000000 51 153 102
-0.076924 0.280616 0.089925 0.000000 0.000000 1.000000 0 0 0
0.103020 0.280876 0.089925 0.000000 0.000000 1.000000 0 153 255
0.275494 0.281137 0.089925 0.000000 0.000000 1.000000 0 0 0
0.102409 -0.405096 0.089925 0.000000 0.000000 1.000000 0 0 0
-0.077555 -0.405269 0.089925 0.000000 0.000000 1.000000 204 102 0
-0.242579 -0.405442 0.089925 0.000000 0.000000 1.000000 0 0 0
-0.404876 -0.405614 0.089925 0.000000 0.000000 1.000000 51 153 102
0.274903 -0.404923 0.089925 0.000000 0.000000 1.000000 0 153 255
0.102562 -0.251506 0.089925 0.000000 0.000000 1.000000 51 153 102
-0.077397 -0.251603 0.089925 0.000000 0.000000 1.000000 0 0 0
-0.242416 -0.251701 0.089925 0.000000 0.000000 1.000000 0 153 255
-0.404204 -0.251798 0.089925 0.000000 0.000000 1.000000 0 0 0
0.275051 -0.251408 0.089925 0.000000 0.000000 1.000000 204 102 0
0.102715 -0.079025 0.089925 0.000000 0.000000 1.000000 0 0 0
-0.077239 -0.079177 0.089925 0.000000 0.000000 1.000000 204 102 0
-0.242253 -0.079329 0.089925 0.000000 0.000000 1.000000 51 153 102
-0.403532 -0.079481 0.089925 0.000000 0.000000 1.000000 0 153 255
0.275199 -0.078873 0.089925 0.000000 0.000000 1.000000 0 153 255
0.102867 0.100926 0.089925 0.000000 0.000000 1.000000 204 102 0
-0.077082 0.100719 0.089925 0.000000 0.000000 1.000000 0 153 255
-0.242090 0.100513 0.089925 0.000000 0.000000 1.000000 0 0 0
-0.402860 0.100307 0.089925 0.000000 0.000000 1.000000 204 102 0
0.275346 0.101132 0.089925 0.000000 0.000000 1.000000 51 153 102
3 0 1 2
3 3 4 5
3 6 7 8
3 9 10 11
3 12 13 14
3 15 16 17
3 18 19 20
3 21 22 23
3 24 25 26
3 27 28 29
3 30 31 32
3 33 34 35
3 36 37 38
3 39 40 41
3 42 43 44
3 45 46 47
3 48 49 50
3 51 52 53
3 54 55 56
3 57 32 58
3 59 60 61
3 62 63 64
3 65 66 67
3 68 69 70
3 71 72 73
3 74 75 76
3 77 78 79
3 80 81 82
3 83 84 85
3 86 87 88
3 89 90 91
3 92 93 94
3 95 96 97
3 98 99 100
3 101 102 103
3 104 105 106
3 107 108 109
3 110 111 112
3 113 114 115
3 116 117 118
3 119 120 121
3 122 123 124
3 125 126 127
3 128 129 130
3 131 132 133
3 134 135 136
3 137 35 34
3 138 139 140
3 141 142 143
3 144 145 146
3 147 148 149
3 150 151 152
3 153 154 155
3 156 157 158
3 108 159 160
3 161 162 163
3 164 165 166
3 167 168 169
3 170 171 172
3 148 173 174
3 149 174 175
3 154 175 176
3 155 176 177
3 159 177 178
3 160 178 179
3 165 179 180
3 166 180 181
3 182 183 173
3 173 184 185
3 186 187 188
3 175 189 190
3 191 192 193
3 177 194 195
3 196 197 198
3 179 199 200
3 201 202 203
3 204 205 206
3 184 207 208
3 185 208 209
3 189 209 210
3 190 210 211
3 194 211 212
3 195 212 213
3 199 213 214
3 200 214 15
3 215 31 207
3 207 216 217
3 218 219 220
3 209 221 222
3 223 224 225
3 211 226 227
3 228 229 230
3 213 231 232
3 233 234 235
3 236 237 238
3 216 239 240
3 217 240 241
3 221 241 242
3 222 242 243
3 226 243 244
3 227 244 245
3 231 245 246
3 232 246 247
3 30 248 239
3 239 249 250
3 251 252 253
3 241 254 255
3 256 257 258
3 243 259 260
3 261 262 263
3 245 264 265
3 266 267 268
3 269 270 271
3 249 141 272
3 250 272 137
3 254 137 273
3 255 273 131
3 259 131 274
3 260 274 125
3 264 125 275
3 265 275 276
3 277 278 141
3 279 280 2
3 281 282 283
3 283 2 280
3 284 285 286
3 286 0 2
3 287 288 0
3 1 289 279
3 290 291 289
3 280 281 283
3 2 284 286
3 0 288 1
3 289 291 279
3 279 2 1
3 292 3 5
3 293 6 8
3 294 9 11
3 295 12 14
3 17 120 15
3 296 181 120
3 120 119 296
3 276 48 17
3 16 247 17
3 297 276 17
3 120 181 298
3 298 15 120
3 247 297 17
3 299 18 20
3 300 21 23
3 301 24 26
3 302 27 29
3 32 303 30
3 278 277 303
3 303 44 278
3 182 58 32
3 31 215 32
3 183 182 32
3 303 277 248
3 248 30 303
3 215 183 32
3 142 44 304
3 304 33 35
3 48 127 33
3 126 133 33
3 132 34 33
3 35 143 304
3 33 127 126
3 143 142 304
3 33 133 132
3 305 36 38
3 306 39 41
3 304 44 43
3 303 42 44
3 307 45 47
3 50 17 48
3 48 33 49
3 308 51 53
3 309 54 56
3 58 107 310
3 310 57 58
3 311 59 61
3 312 62 64
3 313 65 67
3 314 315 316
3 317 318 319
3 320 321 322
3 323 324 325
3 326 327 328
3 329 330 331
3 332 333 334
3 335 336 337
3 338 339 340
3 341 342 343
3 344 345 346
3 347 348 349
3 350 104 106
3 119 109 351
3 107 58 147
3 352 153 107
3 107 147 352
3 351 109 164
3 353 164 109
3 354 108 107
3 107 153 354
3 353 109 108
3 355 110 112
3 356 113 115
3 357 116 118
3 121 358 119
3 109 119 358
3 359 122 124
3 275 125 127
3 360 128 130
3 274 131 133
3 361 134 136
3 273 137 34
3 362 138 140
3 272 141 143
3 363 144 146
3 352 147 149
3 364 150 152
3 354 153 155
3 365 156 158
3 353 108 160
3 366 161 163
3 351 164 166
3 367 167 169
3 368 170 172
3 149 148 174
3 154 149 175
3 155 154 176
3 159 155 177
3 160 159 178
3 165 160 179
3 166 165 180
3 296 166 181
3 148 182 173
3 174 173 185
3 369 186 188
3 176 175 190
3 370 191 193
3 178 177 195
3 371 196 198
3 180 179 200
3 372 201 203
3 373 204 206
3 185 184 208
3 189 185 209
3 190 189 210
3 194 190 211
3 195 194 212
3 199 195 213
3 200 199 214
3 298 200 15
3 184 215 207
3 208 207 217
3 374 218 220
3 210 209 222
3 375 223 225
3 212 211 227
3 376 228 230
3 214 213 232
3 377 233 235
3 378 236 238
3 217 216 240
3 221 217 241
3 222 221 242
3 226 222 243
3 227 226 244
3 231 227 245
3 232 231 246
3 16 232 247
3 216 30 239
3 240 239 250
3 379 251 253
3 242 241 255
3 380 256 258
3 244 243 260
3 381 261 263
3 246 245 265
3 382 266 268
3 383 269 271
3 250 249 272
3 254 250 137
3 255 254 273
3 259 255 131
3 260 259 274
3 264 260 125
3 265 264 275
3 297 265 276
3 249 277 141
